<mxfile host="app.diagrams.net" agent="Mozilla/5.0 (Macintosh; Intel Mac OS X 10_15_7) AppleWebKit/537.36 (KHTML, like Gecko) Chrome/137.0.0.0 Safari/537.36" version="24.7.8">
  <diagram name="第 1 页" id="D_D8RBDxP8LEii6tJsEH">
    <mxGraphModel dx="1562" dy="862" grid="1" gridSize="10" guides="1" tooltips="1" connect="1" arrows="1" fold="1" page="1" pageScale="1" pageWidth="827" pageHeight="1169" math="0" shadow="0">
      <root>
        <mxCell id="0" />
        <mxCell id="1" parent="0" />
        <mxCell id="sbMq7EM7i_iv8GLkC_kZ-1" value="" style="shape=image;verticalLabelPosition=bottom;labelBackgroundColor=default;verticalAlign=top;aspect=fixed;imageAspect=0;image=data:image/gif,R0lGODlhTwHDAPcAABIYDhIZDhUaExgcFhoeGQ8YDyQdFzcfEhwhGx0gFR8gDyIiHSokGjYoHDgwHB0eIR4kIR0oIh4wLiMmJCUpJiYrKiktKygoJTgsIywxLSUwKzoyKCsuMiUsNC0yMyo0ODIzNTQ1OjU5PDk6OzEvNCAfI0IqHkQsI0k1Kkc1KlI5LlQ0LUw7M0Y7M1Q9M1w5NFQqKmA2NTtBPEtDOFZBNllEOVdDOVNJLmNJPWFHO2dXPDs8QzY8RS04REA+Rmw9QT1CSDpHVD5OYkNES0VHSFtKQ1dJQ0tSS0pKVE1NWkVIU1FOXFNPVktUWFNSXFVYV1ZUSmRMQ2hNRmlRRmtUSmZRSXJXTGxZVGlXU3VbU3hdVnNLTFhiXHtjWnhhWGpjW1FOYUpXZ1VVZVtabFhZZl1dcVNdck1ZbGFdbWFfcnVfYFplZ1VkdllneVZpcWVnanlnZHlpZ2NidWVkeWppfWhoeXVsd2d2eXd1eHJybINmXIVoXoVqY4ptZYZra41zaolwaJJ1bJd8boZtcoh3dpV6dJh8d5NrbI5jZ3OBfYqCfJuBe5eBeZqBb6KEfFpsg15xiGtrgmhphXFuhWt4hXNyhnV2inp6jXd4int9k3l6lml8lH5+oIN9joZ7g4N+kYF+nZ9+gJ5+g26BhHWGinuElXqKlX2Sln+TmHKHlnWLpXmTrH2Zsm6GoX+gsoaFiJqGhJmJhpuRjYSBlYaFmoiHnYmInoqHlpKLm4OWm4aZnJuVlYeTjaSOjKOHhKaal6aRj6uhnYyLpI2Nq4aGo5COppCPrImao5OSqpWTqI6NsJCOsZWWspeYtZqbtpudvJeXtIqWs6Get6KepI2jqYuippOoq5yiu5eptJq2uI+rtKqlpbOpqKKkvaSlsae3t5KjnZ2ewKCewJ2kwZGuzJm715W1xKOmwqeqxqmsx6quyaesybCuyKyyzKK9wbCzza2z0ay52rG10bi40quv0K6+4ZzB3Z7AwqfGyLLU1K7P0J7F4aLH5L3h38Hj4qLAvyH5BAQFAAAAIf8LTkVUU0NBUEUyLjADAQAAACwAAAAATwHDAAAI/gA9aAjihs0ZgwiFPHokhE0SERk6ACEjp4xFi2MsSuIkjBixYsKGCRs50piyk8qWMWvGsmWzZ+FiXjuHDp06de1yvpPHs+e8eT2D8oQ3FF47ee+SBlWatF3TnPHWtYsHrypUoznblcvKtZ1VrlWlZpXH9RzXdejSqatp8+bNru3SocuZjl27tW3VrUsXF2c7tHL3pmW3bm+6wGzT0WM7mJ1iepDTGkbLuPDbv3v9ck3a9J1Tz56d8jz6lLNpdqhT50zNui46djTZnjsnt6a4brhz52aHTneHDw0NHmTDhiEbIQ2T8NDgYeJFjBnLSCJGsrqykcNQplTpsiXMcM9w/tfku1moeaFEqxo1vROpztLq1Xs1Sg8eva5+sebEipam17+awVXTXXqhQ9lNUq31VoJypfNNg3itVddd6+BEWTqzNVibgRsqVhhlrxmY1lrnXFjihZPppeJl7rxXGmcubsYeaE2xZqONr7k2Hm20jdebbkB2g8457HTzwQdNIGQQco8Up5AQylWQwRBkpPHcRWNIAkp1I51EknbDMIPMSi5BAw1M14Qn5GtcnecmUlWNdhRYn8GYVXzx5bQOZPbBJVZWHxb21181EckOTpoZeBOGIs4FIF41qeOYYINtmNZh6aCFoGQXbggYpYsVxlhNhR2GVqkfDpaWgYQialdX/q/W2ZlpSM34IjtJ3WhjN6lpyCiGtZ3TDU3AFpkbYxp8EAZxxJ3R5BlnCOHGQk2IoAEISowxh5VXSrdldcQMI64wxRSDkkrcufQMNDE9cw1uJR461ps9EVVvjLjuBBdYee67n35nLZqpgbOhM86QJaq1Vk5rCbZObEOqg6GmjN01nlqOKSxZiYkR3KOPlo6a46ieAksPgovJJmimfuFkV2g4hUYje6TZOtZpuvZKG2wX94yOOETKJQ1u6YjXTW3dJBtGG2y0MdxxCzkZxgcegIBEGXNU1K0cltTCZXXGDFMMMsuUPSY03TXjjLvXvLumTTmdFw96QcX9mU5OOQWw/r97d3Wfv5se3HaazzhzzjMQq9PNh6aeM5M6tPXHG1sVSqgWW+rQM/DHiTG6zuQNiryqz6JjfpNjo1aoqYUBymjrTp7xZGutnOWM2jupjTc56pZCXDSGwh6dW9ESiPA0cUI4Ky0bbrihxAcdiHB11t2OkeUsH309EkjFlF02mS0xM/jgxyoat1A/1TsUWfrGPfM7VmHVt79c/Z1TOSomONs4/PP/EjPDKJvartEb/j3sYedgBjOExKhGKehUpLpQozg2OgMZ5lCHSV2j2LKY2kCQVIxhh+YyJZiTiegtfolVVl5ns8/QDm92iWFqcNcO1tQENRXs2HiGhSlGCQ83/hKQQUGIY4biJGQhQlBCCDjAgyXIgXoXMUMZrMe17HEpXOTKjvfSpTZnXMMZL7lGOI6Flv3QKyjqIYs8iFKe/8SjPuqJCv309Kd2sIphBDpV5R42DgUqMCXPeMkzxkHAc4SjRM4oBjMQKLrLkUxktQmZTTLDlkmBMHWam9zoKBXClB2GHqJSR4u4gpqusPB9LJQVrmaIO9vhMDEp61zRPoYpIAJhWm1g2kGGyDw3CGEIIahAE7EGRSyBYQx0wN64vlYMLXoPfNEAo9rQhI13DegtcXrTO+Z2FLLsx5T/Mkr8rIKTUdJRUC1yh6D0dJeJFUZY7wrkSgKpkpXYs5Dd/iAkMozhjG5YU3Q34VAFeQdJEHEyg5VZFSd1VxtI2QQd9CDMXlCTuayQh5Q5adEpOYMU2dlsRriq4Sp7lTuQDQmhwOIRbXSDIQkEwVnMiinyGDIEEHSgiU8s5kXAIIYyaII6JBHJ9sqlDHE9M23NkAn5DtOmM8bHm3M0p36mOseuqC4tszkHIbvhDGRwDxnDsAV1UiISZiyDOobz5zUUKIxAzsQwHVOYqEpH1wo+LFOc65ws9TpCTMVlVIALjetoRbvRyIx2t8pVaEZqo7qgJnSM4SGwjnYYlkqgIbyUaZMgIQQgZCADE5mDaOWgNYuQAQxLyBItvnSdoIprO98D/l9L+Lc28UjmX2ukl1Xa1xX+3Ek+VfWLZdwSUJrgBozGsEUmKEGH5k6iDnWohCUygQlMTCITxKBFKWixQK46gxm2EMZKjka5HDpUhz6yK0Ivld7xzNUwKI1MD9MSl/nST6Ov4mh7ZkSW9L3wRbjLVb5aKcOM0SRj7R3SjoIXvNxctjhNkmkvfSkCDzRHW6ItA7cwglowzCET5EKJa1+7DK+STYHduUYz2gavEbWjRWvs5pvW86//2A8uX7GoWD7kuK6ChBar9RotakGdWoBiFpfAwxucwIQh+MAHPADCEJYgBidQRA50kK4lbMGMZ4gJGcLQhHidQZkyJziSDcwh/ohIB8n1MgalmYozCdvxIL5kKqNVldVGX3c3XdF5hgV+7MAkmZiVVhZe3ZCGBJIUNQkXx5c88EAHhqCtJ5K2tGPocBkskb2iAlVc5lpGMoqRDGSYWrZqWzGLedhbGfNkbrkdzavnQ5X5WTWgiPmiMDIRiTKsYQ1iaIISkKAEIuxgB0MYAhKWTYRmjyAEGfCABSpwAQt4YARPRoIYqkSHSFRiFsbwangtIeZkaLCukkF3zyxlKtFJsDIp24tU0mvHuNjNohflb61k51GaZaWU/wY4gXNG6Bwehja/qwtulDWtJkU4pk0Sggg4AAJKZ0202yoDGqaYhCUsgQyR+BZ2/r5k1GGYekzLQKqq2+YNIbFuPvZ603xqDMdB1RFQ9l4LM0pRhycoYQg8CAEJPhACgWRAAxSYAAUocAEpZeACFKgAtSuQ9AUsYAITuMBnr70DJZBhEnSYwydu0ZFb0MISoDDG4jYoF1yjN4ciA1HIILXmw/CG3YI+TIQkRspYuUOFs9t3UubRTdOs8MVVfSxJW1M6DWV1WCxNRw+40IaGS3ghkP6NEoiJcSiCYdhLAIMcLhFekAh1eyEuMTKSwYxkRCNtLGYx5vhFr//kpD7tuHHA7tSOBGZCDksAQg8y8AEOJB0CEIgA8rGedKVbwAIZsMDSsc58BEBgAgtAAAKw/r+AC1yABCNYAhrAUIdPbAkUxJAEJorRz7eh283oHdi5GwnZkb053Tpiy2pUCJfXCd7wsPMO89AZIvUq/Ld/OMQbjsE7gDEqCBckutEDzcM0MQUJxBE1QsADFWA1nNd5c1AGS9B1HTcGIRcSQmVFxRA24XZqqwd71SR7lLNCMSc7vxUnXnEf85Mga7FWpSAHygECHlAByAcBCEAAA6B926d0n5UBSWcBUId1C3B9yIcAEYCEVoiEWGcBQIAESSAHk0BuxKAJnKZ2aydJiKFukERXnlIiEJMWoEQ5mURJItMN/bdC7uAeOtFvQFEniEWANfSHTmFOd9FYC7iAIZNV/j0kDUUTJBKYSw9nRJhHYdGDBDlViRmGBCLgA0wQenPwUyBRHSIhNsZgDFtkDKi2cteADeIBIjEDD+0xJ6ORY1nxN3/iF+/QDcWACW3gBMDkARNAhEY4AMJIANuHdNAXfc93AdQHhdpHjFZ4hEeofQmAhFdXASOgbGKAZVsyCZpAC0OThvOnV3GFXnqhd292IjlCaJhCKm5BF45yF/sCGjFCWPryInVCZ1nhMvWGKI6FOryTIbEBeTzSG0OTGy3XDd4gDQSxELnELG2wEI/gNEpgLSLQhRc3WlkzBkq0A1x4TJMACsvAJddRVMowNqs3JiimLs7wgm0jMiv0it00/nM3x04t8jnsAA2YMAdjkAREQAITgITDeIQRUAEasISfpYy/WIQD8ABGSADBGI3CGJVSOQBOWYQIUAFMtANMQAaVUAyVEAmZsAzvUjAVUhPud390hReqYxmC8k4kFCiME0EroiAnxTLwpSnw6BaKciIWozAUJTGY0oZDMg5ZlVWE6U+Q5zZukxtDwzbXIA3S4AzOMA1mApnSAA2UeZmYaSbMEARN02gN+ZDFcQZKQALCJAYeuC1ygAY7uQMhAARJAAYe9lMkMVYjqQzGYJJkw0Ut4UUsJg6jAnjtoy+yOEfpIAx1gAZc0AQ8YAFOGZXbx3ROZ5TU9pPNOJVTCQAA/iCVAtCdAyAA2EkAEHABVTMEa/AJlyAJlSAMXiQqIAIxWbUqoAQYwGIp/GOYkKdW+ZlPuTET48Cf/kSYhMli/+k4LLdq45Mm79I2vpmg/Zmg1bQ2EepFksmgKzk4kokN0qQ2nOlHHjpqXlVqJrZ6Jik2o+aZuNSQF8g0TlNTHLAD2YhxlWgRwUcCHBl60hEu1yESRZUdJ7GCz4RqFKobb2ZzSlFYsqgWdJQV3XAJYkBsGlgCD7AAxLgARQkCWOoBS+iE2Xed2DmV3imVAFAA2/mlVDkBUuIBQxAJmhB2mqBqjrM/h+k4LHkN4rCgBEpIGKpiaUKhfkqhKpZqzbAS/tIkmWvDoOMQSCtnqBgqmYWzNg06PnXaNrPxRYPjOImaoCp2n4eJG22jJs8QqpYKDRXqDGYimZqJkszAmShpJtAQBHcAkcWhohR4BjsgEDuAYReZNXKQBmDgmiQwZTwlB5xweiEREkU1ismQDMsQDawnW4/qDNLAYrEhb+ska4JlVVIhFknBDHXgAyEQAiAwAQRQAsxnbSMgAyMQfVRHbQswjV1qpmbanfRaAGQ6psIInlFJAFdHnk5wCZEwBl2JDG3DEmxToWs1PqKqqddASCtXp4wqPu7SDC84qYPjLoTkmOSjp5QqoA2LMDQxDnq0IoKiFyUiMRITKB5iGeyY/mbxWZgQiJBDA5nQYJmhCpnTYJnSEAYQ2SQs2jRAGwZAoKVAoKuWKAeZpgQ7QAI+oAShNwZbBmrl0iUiEW4reGrdQarjkxu0cRmAaFjzcWMVwjDdgAxjgGw9mX0TsIRVAwKfpQFIiX0/CQHE+KVOebfYqa/CqJ18q53hSQATYAEgIAeY0FO1ECZrFakcmybdwDYI6anks5gxi5hAUiL9sz+FIiwNNhMMlrkikzijgrIqkpevYUkeVGho8Ta6IbmM+V06q5nN4KquyhKyG7vQwLM9G5EOyTxCG20Wl5pZgwZiwATgGgJDIJtZUgqgJi5CNQxXu5tmJVsr2aBAclFt/lQ/OAcY12AJSOADZEAGIrB9HhACMhCuWnp0TNd8P/mcT7mvRUiMTCmv+dq32lkAejuMVmcBO/AGTIAEmVALtgANCuQuXhQ8jAu57zI0bWOZj9m40srAjxmpjhmqFFzBgUTBkOlPjtqnGewunjqt3hDB/hSq4iCqCgxPFrw2kGnB8sQSCvRdfvRdMIySpjaKpEZqJFoMuJCC4TY2xpAM5DISZpC7PhuabCC0HMABlJZTMko9qNW9TIsEPJUGl4BFJPGJKXhypLgMZuISkik+nzo8QiIWrbMfkMEwjPEMdKAEQLAEE7mEWFp0H3B03gd1SPm+RigA9buvd/uceSsA/gUwAPRbv4MclVY3JcJWB7eQCWPTPR7qRwL8yAoUyX5UT49Mw5R8ySc3DNEQvaSogrlpauUiyiZZLqZcyl7FwyeXgqecDLk5tdUBEjo6DEDVER1hC7MwC8JAC2QnDAAMZLsMZMJ8C2YHCmZHC7bAy8IMZLcACkAGCm7wkD3bNLnEomGggRYwBGiAkaKVBhWRaUnQZCRgvKHHlbosVM1UVMKQyqbmPWjTm8wQqauGG2NbxnpyHxIzJN0ADZWQBEjABD2ZASAwAudbNW+rdBqAdHTbvvYqAAGQr9wJnmEqlfZ7r4Pct4JcpgOwtiMwAk7QCWyKy0RGEl5zReFlCyiN/tLCIFbHutIqndLUAdNiBdPEUAuzgMzEkNJiJczZddNDJsy5LMy18NO04NOzgNLZdQu2UAsAbMu+zNRQzdRDBsApzcs6XdXJvMxaLcyfQAuf0AmdcMxEDWRdTcy38AnRTMQQ9plhMHEZQARlwMQyOkVgkAT+vLSaSGVy8FNS67zcM8qmVmoqJ8/v0nKRYs+Qkc8PJQ2XMAeV4ARAAAJaZ5Qg8AGVvYQVgH19nK+AvJ30+p163J2eDQCiDQAGUNoXPaYWrdEDcHVZ5wN54M2XUF2aUAq2PQuZMAulAAqlkMu6/QmlkNu0oAm4rV2zwNS6XdTL3NtbXdRDHdRaXQqc/kALzqzcQ83UV53TV53SQYx6xtARpiw2QYwMx8AlIMHd4TUS4YXMQqbVPq3Vn/DV8V0Ln0DfZx3fzHwL0kzEURORbc0BHkCJGMnEdG3XSDAEJEACSPC0k8ARzovOrXxyyJC17yyhW7smowuId6E5pVIkl1AJpUAHR5ABJLB1RhkCc0x1v9iUftyd9vriA9DQfauvesy39JrafGuvheyUURgCZLBkkTDbmFDbtl3bmpDbtp3bvg1kus3bum3Typ3LVE0L2o3TYpVdMw1kMF2bLO0Rtaw92sM9r3zKqXzKJviJI1HLS63TtKAK1r3Vs2B2Pt3V8f3VYV3n8X3WZ23M/vvN3xHZBknQAx0QAgK+q6RF16jFBEowAkw7gp345dhRNrop4ar6ziuxwNUEL+1mF3zRMKyIDm1aC3agBJI92UappRxAhEjojASQ4y/+6q8+49+J4zi+2nw7jICrAUqwZHt9CZdg1EF91Mv8y8O+1dc91U2d01Redki91DUt1UQ21SjN1EqN3S6dXUAGwEw9cmHOPWDOJSe93r4s1s291Z9w08Qc32Bd5+uu7rNQ55AACY8g737eBkrERBbZeZaWBuC8iUjgmlqJo5Ogy7EsDD0ayu1cYs/aHfEMRuQzLCBkKaIyG58gdpMwBBBBdUUprhBBAVbojF5KprD+4gHw/uK0fvIXbeu4fgEhsG1fdwlGXtvCDt3CzNzlzuRQXtQ+ndVjLdQ53/PKffPAvNRSbQox/e1Ir97UgcxHPdRCz+TL/O6d8ArvPnZ2zu5g3QnyXeeUkAqbsAn0rtbPowE8kAQeuJpYUwZiIJsetwQ+4JrCqi3YtT09CmrLYHInp3qr2sVI9fCU1XayYUjXIAxyMAuYgARu+1lYKgIgYHwIQJVWiQBWp5SErNojb/Ion/mVf+vDiABTwoVlgAmWkAqaAPO9nQnZnu02LdVMPvNC7dOs/9zH/dzNbdPvHfW4L/RQvcy7XNXg4tROr+XKHcy5//Rj1+5an/Var+7J39W8/kwJXx/9/M0GQ5DQIuBEpIUGTxTXSLv2HedxSuADNrrgYJAGk7BaKYjOYrMMRUXpy7r3aPPOLvyY80ykuNEuzPDhl8AEjC4lWHp0AKEBAgEIEBAgWDCBwgIEBAYMEABAooACFS0CuChR40aOHT1qLNCRAIEFI4YAEWPJ0iWWmjTNmlUKJiiZMGXSopVJZk1OnEqBolUzJs5SpkodnWUKZ9BMtEzNolVLKS2oVI8erTV06VactbwutbXVVq2lX8OGpWXLFrFbab2+Jav2LFe6tD7dvXX3U95Oej/hnNUWaqtWmwwbhvQo8aNHZoJ0sLBjSRnKaeTIoUxZDBgwSzwn/kESIsSQJGDI0MkkbNiwYq1VF1vGuhgy2rWZMUN2Gxk0Zs18+3YWvNtw4t2uXQv37BmzW5mchLBAIcP0DBUMKoQwQbuGCxoOOhwQUrzFACAxahQwAID6hx/dv19PAEEIJkCU0GG5aaVLnTIzxfyklE8yIXCW/2SqRRNiYiKmlKCGgumpoBxMay1aiFELrgy9wlCtW9aSayxbhBHGKxJxITHF1oqJBjdkZCvGGGFWLIbEYoaZMUVkZnQNR7mK+XGsWsYqkZghS/yKFlyGDFEtwgg7bBNIpkzMDCAksMAHMDLjMjMxPGNiiSSWQMKHEHZAgrM0MKlFtWGMMebGGYmZ/q02O5OxM7ff9rzmmeOkKS4cQZe7RAwRtKPAgukqSMgC7ihQSAMLtDuovYgwsiikjiAywAAGOmWAgQM6NUAABUy9FL6OCkgPAQqgmGGHNSoJ8JKbaBFmLQwxFIaYXncdkURdUySGV19X85XEYehUMUYecZRxRR5rq7M2YZBJJpnebuPWmW6ZCY5bbrUVV7fcnMkzXWqxrVHGHE/EJV5cbFkSFLlStGUVVVR50rDCELOyAw52AGOMLjMbwzOFPxuChNGWAAMNST6xpRhlholNtmvVxTZPZrRNZs9mnFHuGWfEQXlQZi5BggQKIKWggpe1q0CDCiKguYILtJsAvPQk/spU04kMGICBBo4+AQMMkjYBg6MbCPVTogUIQIGOAijPPIkeKokIEo7AI6ZLtkpWtRTPxvFstdd+l+04N772WhprFCZOau1Ol1xyc7tN22P6/piZZf4OfBk882zNGGRidG3FtNvOdSwjabnFK6CWugsntmhhhRV99e1XSkjO4EGDEJQQIzMzuBzjy4UVLpMEH8YUYw5LXhvm4rlvzDOZZWg7PDfaehP5t5KfkQaZTJDggOcJDkJgggo4mBTnCS6gYGdKG3ooVUw1rdrTBk5AgQUVzj9/BRrQRyEFFJwelVSrN8Iaa63TS+ACIEDYoQ6YJtFKWtqCE2FUSC1sUxuR/oSFwBS1SVjBUlvZEJi42bRmR9XK250QRxsL1qlxdKObBNc2wLbU4haVW0peTjhAznluFfra179SkYoz9IADp0vdwcogBteNCWIKG4JohpCmMkwCFK3J2JuQEacbGc6C2Are8HBTPCo6oxiWSAIHZtYz+UCAA1qcQEKkpwHuhFE+C2gP0DgyAAJ4amkqoIENalCDHNSxjjjIAQ1csEcVnCBpRzuAAhiggFNJxH6rSs8AEEACD4QgCSzBjyZ0UpW6UCUsLKxkWohRoQudhUQ4CYuv0pKrUapllL06IAPX1sELLm5udXvcbGxkIxztiFigRBKJjEQWurQFk37py106/reKYapiFU8ijBl60IHTFexgaBjDGDizhDBNkwlI2MGZkLCE2ikIR61ZzWrAyUGO4YZbVGwGNH7DDFqgAQhgnEAJFjDPMU4AAmLE3s4uQE+HfE9oEulUAzCAAhrUAAcHxUEUELrQHOzRBSpAgR9PYAIHOOBonRrAIT2CP5JogAM+wA8dKoEJAlGoklnJJFdmgZayACaTgRHLSjG5UrEUEFc2deDaRJiiU7JtRAK0BSaj0hUTZvJyW/HLJzrRF2IS03PGPGYr+FVD0ymBDDosQzRd55lpkqlhI9imGNJgxNwp42JljZEyODY8aCzjNupEp29WJoYdkKAC2pknPbcX/r0wXi+vCxiJetSoqfQYoAEmICgOpDAFxk7BCjrQwRZwMAUc6AChdsyjC16Avoke4ACDVABEvLeRREbAdGi4hCQqYQlN3OqltoBJSmVLF0rOdiukxFWwIKhKukFOlcICCwpByZZN0pZyx92KUDPXuWG+8KnGpOEHTIcEg2H1S2PqTGfAlAQfyI4JYBADHUChrLLqbhnLUFzHenfOuOpGE3QFgQb62teEIOABCCjI87LDEISgMaNqnEgbjXYCFUyWCge2QoKzoIUEW0ELDKaCFSirgx9Y9qB1PJ9EjyaqqXnkIYq8QAaYUIlIREIlQ7WtbVmKk7awdMUsJiBsR8RS/l72NIJr+a2KeBWsnOLLlGBJsWxvcVQYt9CFR3ZuK6iKpurqUAw+1O7rhjACk3ATDZb4xI3MatY3pfd3v6vN727TDGZAA64iu00B3SmCDOyTZ/NEgCILAqmCQO8ggB0tAARggM8i1gU1kEKDs5AFPRTa0IfWw4Mb/NjHbuEHOdisCsw3UadBbQGl4kh6RiK9EcyBDpFYbW2NO1tKvjgsNa4LL12MFlR3skkv7jG+8AVKWhMwxkGlSiVfzGKhko2FJ/zE5aLRXOY2txVh+OIIkoDVaC5hiD9UmHbLFILZFSwSCtoylzFGm/Oel9u/I9dbqehWYUyiYRXIgAX2CWc7/iuEUga5M0MuJbQ9D1gFOZBChLNgBT3soQ//3sMeEP1gBjt40ZDVQQ5uQEc60gAFK4joBqDWKY4EgAAJUAgJloAHkVaiFK0WS5BHPdskbaUqR3npSU2kFqjsupJQWemuS13krvSaLn/RS1s+4QpXFLvYL2xFEDjQASBMxrpK2AFptBumhQURrBBLgyWIgbHVxAY2ivO2nbYluGWoc8y/QQYoZlEJJTTvZZD6DhsR4m7tjIQk1+tZpjt1AAfAMQqOzYIX+t2HPxwiEIH4wx8AvocudAHRCS44ZPEIWcrioAY0gLwKUqC0T61RkQiogA/s4Ok5QOUTUDHFLQxUlVfc/mUWn09xbJcCE1G7dPUxgUopWpsJ1FtFQqmvS+uFLNuq6D6Fx80ci3nuc+a+cBNK+MAHUILVHSpBm0xXmBOcQKYRUJubY5BEanJnjN/Npupgpg3GyCxuuf5mGcSYxBiUQALnAZZ7l/8rGuWjnQtcAAHl0dQA+HyADbgA3w7WAz7gA0D4O0EohEIwhL8DvIArNAZMND3wAoJbtAajgsZzPD1qHwxgAMHSs4dYOyCggzmwjEvIhKWiik7ovdiiJJuri7wQOZVyqVlAwZbyvaX4pAaKubCwKZuqC5wSJSCrJBbECSJbimIhvuIzviHgABIYgqtincwgA+c7HWriKiqk/qYpQxPwmoNLIAZjMCsweyJk6DauO6+3Ip49MYZOmIPQgJQ3A4/LQ4hKUaT2c4iL0D+jMQEXwAEryIIu8Lc/CARGMARDYIRCNAQELIQ/4IN/A7h+SzQG04JEWzBIXLAsqECFwgE+cgEMmJ/1+LDoAYE8qIM5QANMGBDWU70XhMEazLVM+gqySEVXTAsg1MEKEYa24EG6+KSy4KUP4QrRY8VK+outOEKf2wQlVD4yaIM0sK7u2oFq0q7pAwPQ8IGkAy80mIRSKKs38SDu87Zuc6uQGb89Yac5EIMhyACFmBm3a4iRaEc2WoDpqL+eoQih8RQHOAEaiAIr6IJF7ANB/jCERmCERTAEWDBIWFgEAzyEwAOEPhC4Q3uwQovAQnswL/CCfWMshcoBG+CjBoiIABCARBqAEHOCN5iDMSCpS+gElYxFqgjGVrQKnFCKpIiK21M5qPAKSuKlknOL3coxtJk1BPqpTuKkWZytITuuITshnMAFzum5YmQFSBA6EtiBJjuYNDDHHaiy6Yu+ziiTHXjGJRiDOfAms1oRMcSY9AKecsGTdRKGTLAEOUACdUuUvXLHDxsA6VmUtvsegDKaxOJHAgwEQmQEgxTERfCFWIgFhDxEQQC8Pwg4B3TASDS0SLxIjESoGpAjFdiABcgaTxzJDFCCOngDMdiEUriE/tNDvZZUxda8ELIYkhrzxQsBEqh4IF/xFZ9sIFQqoBLJpd7szdyqC5wDxtjaiwGCKcxJKq5ghackPmKCBB4QGCWwyi7ZQjpwPh9gAumbJieQtmxSuiL6hG20oKwDHt+BIt5oy2ZAhqWYBDLYgSWclDBqR/kILAKYAOrYmRJII00RpAaAAYPiR0AshIFESF/wBYNcBFhYTMM0BANUQEYMuH9rwEPjN4q0ggq8sMejgRbAgAQAAJBsFQS4ABl4AzkgA5awhNPTid1zPRfNvd+7EJPbyVJjKUpSCly7qR0NCtd8KRmEub8ACtEDhV+7i2BKLuf0uVVwhVV4BOk8Has0/pjLSAM6OIoy4IGn807OkMbOMJNqG0tsE6fEQS9wBEfBuY2uQ4YPQYZZqAMmCAFG2icDYAi3Aw/8rI6eYaPuIS0DqDsamAJC44M/KIQFjYXE7IVeaFAGXYRGHURBcEzBO4RD+DdKfUiHrFBD40MJWyjHY4ENuABLgceSeIM3KAMCiYRZYK3aU0UhNDkfVamXhFWTU027oIrgQ8GqyIujqoVhBIWlwgRTHEacgMrmZIU2sKEeoK4ywIzMkIM5mINIqAVjqIQk4AE08c7N0C7OwEIkSIKrkrrcgREz9UYXKcO+6RVksIVLwAN0TEc4G4l5coj5k5k4UySIWKMDGB8a/thDPyTQRThUWZAFX+iFgU3QWGjURWAECI1QwOuDSZ3QiHVEiWwwCzwoh8MATHsIklgAC1iDMZADTLgEOZiESWgt2nLVIjOpIAS5V42KATEp1lsKU5iKlMpFWCVCF6Sc5CyyyhlGYFuqvTg9YuU5Je2cnjODD5AAHhBLrCwDy6CMZ50EW2CnMgDLIViCLZ2mzcAmaksCJxgD1BCGswonM806bSnDHamNsXuDEGgz/oozOSSJNiSAiFCk0QqAosnHft0DQBQERiDYgpWFWEhUBjVIX3AEgiwEBWTcQHjYQ+i3yMTUh4TABrMwPMojFkCBDQRNkriArC0DEiuDSGCJ/pWlLd2bTd1DqdWrtZSjteTMxQTKld/ySd1CIFwBixprk6bsqcqRF1wANqViyltAkeYsWqNVhRrqAKYtA2h1XsuA1kiwhWYwBkpIArBEAu4EA+nbjCToVm6KuqnbsmVoDWXoNowRMzRFL8Vhp0iQyzazPzuz14PgmfvLWwQAMIlQgAPAgBTAgSvwwz4IhANkBMIFhkQtWMU8SFhwBEFk3IVk3IeNTErF1EO7yARTvCiwI4jaAKIBzQV4ABFwgtGlA0kgwdSEUUryvcrJimLBPVU0pbkYEdg8Gxv8MQIihqnovVkFDL+gi1ow3qItNldI3h6gSjG4DOeF1medA0mY/l5mmAUsNQkneALps+Lp69rwnIRMWI0tg5HZ6Da+4TpuWYZKGAN0tIB5SgDoudN4yyiI6M+JuMMUsAEH87e/O0BDiAVZSNQD5uNDRVBH8IVDPMDFVUBADASB87dJPQREcEh/k0hFk7Ap0Mj1QYHOxEuSIIAQKJhJeNZMYAkVlFHXnIUaqy3da8mandUCalmRU+UXhcmdTSGl6gShsoWjHb6jHSYhCAHlAwMmflYmhtZKGIaRGQYs2gEf4KaslT5m9l4RyEKQxQRiAMdhWBw4+TYxZAZlIMdLIAPmoc/vCKx7vbMEoJry4ECNeAgDwAB+JTS+CwTHLARHINyCBYYD/r7nXgAGBEXQQXQEBPw7wYPMCaVUR5ZQTI1ADGasC3uo9mmAUtlY+eAAJZiVMkANS/gPWBW1V27lV4U5mY3lF5RVUSPpXFO9WKSkYPsEsjjS4HO9Yo2GUkC+D0AdYVZiaJ0EY5ArWigDIMjC7a1iZnYCbKoyMcBGX/lCJvpCMfyyr2PPTygDMgACdoOejd1T++wekQzJDhyABWiAFKiBKQhgAUZAQXCEROVjfT7gPu6FgyXYQU7ACJ1Qx4XnRGbEPoDAgpMwTMQBG4CoFNgABrhT+cgAIHiDOgjdlWiKFmxNqCgu12Xdj1bB2kILtZicrtDBVVsLJgmRDumQEJlN/pYaVphayroIi5wTC10pVlY4vg/ggCAgg2AGZuethGI4jmY4ZmsdAiYggy/pDB7yDCLQJmvDtvG1GGvWujNEBk2oUiZYCPl9Q7zES3uVbjYyrA1QAR3Igj0QzHguBEEAWAROVMWMhbVeTIHdZ8V1zEQOuIb9u8cFOMOr2CrY0BdggRRIgQZoYwTIACLIgyeQA0uYhEvAMtMurg4xIASP0a6ACZZr3SCU0blAMUoKTlY7EmHBEANqEpqy7LBoOSFzwbxIqk4gsg3xnBN/KqeCBOSL0pu+6UowBmxwBjLjaSDwgTRpHTHobc4Qg2nD2tSZBE4Qhm5TBiaqk/TdlksA/lku8AD55R7qvmr5gHJD0rQF6N8a4Lc+6G5IbQRB7gUGHeSDJO89Rm9fEIVHZe87dtwI7jtHJrwu2LcKpAKNtAEbuO/8Jhq1i0cn+GY5oAMBtwRZpBwXm82T0oqsQDWXAwyaogvYWvSOti0VxqRdcxCeBQzR8wu+CKalKm2ueCHnYoV9aSpIeKcPoK45sGklxoRkuIZxuIZmWAZk/nHwAq/NIJMvRQIdlwRNGHI4ASfkHkPDQYZPiIQyWIMQqFNxrm5Fyit7FQ/0GIkGwO4o8AI1H+AHTdhCIIRtVwRCMMhXYFAFZlBDIIRAWEiHpGsBLsD17jtM7QItyIIruAIs/rjEjdyj9jmBT5HyCQABKCACIqjSSrAdsZPVIKsFB0H0rnhlUoYtSG9sl1TOTqgJJMWJTR/xSzhSEmddnPh05/qcFyL1D3Ck5uU8SZAEP/+0S2iGcRiH35iFNPDpXNdxHtrxJVCC6lMCPi8iTkBf1oATrDvXZCi3kxwBO5Pycd7Y6BkIe/1MT+TYBkCBGqCCvkVkgAzIRkhEPsiDOMADPCCErreDOFADNYiDsieEQYADPvCDPwy8wAO8eDaEQwAEARQ4i8wCLMB7LKiCKpjzInABzXXoeU0IDxBuJiBZT8MEkIZlmHvhHY5RlwugVsxR0DNlWzAFCx8Suiiuyw85/thDxbugvaSKLRFPqtLfi60wIRjq+E9XBWTlABFYtugtsUiggxDMvmcYB2x4deqthCbgAawF29YhAzKQJiYwk2ck7rGNjRmxkzFEhrhcgqJvY/uMbqWPs4/ciI1NiAvYABaIgi6AZ4A0wAM8BDhQAy+Agzw47DhAAy54AiiAAiMwAvjHgi+4Ai2Agz04hG0HPEAAREQGiD98unjRo8UKlSpFpFSREqVIlIdGWLRggcICgQEEFkywEGIEGTly5lQqReskSlq2VrK0ReykMFsxVdF6qVKlrVq1WuJcSUtYTKApb+q0hdInsVqzfv6MuXIY0KhSp0ZtWTXl0ltGa53k/kqrllabtG6BunUL7MlbQ2lBFVarlaq4q+bSVcWmBwceS9LMmRNJEp2/cyRF0nRtHLZx154xqyVnCI8hYMSIGUOGMpgkQ3bsQLJkTBpLnJaRLlYMGeplw1AzE1ZmCIgJGQfQzogAAW3aECYsyCigAIDgwWkjWMARwwYaVPQACuS8kKBGhv5omVIFC5Yva7Q/gVLESJEZLL7XKFLlSpYufwoRCvQH0J/37wHpsZLlCpYiNoy4cMGCiAs07GfERBalsAEDtC1wgQUW+DCGHGkUthRMaRFD1VQrZQgUMcSsdCFQLnnIkkrCnKShTDqJRSJKJh4lDIgYyoihS8IUM+KH/m7JZCMxxURlVk4yiaUiTlIVA5cqdK3CylytjBFCXkuMRAdhgPkVSSSqjLOlYtc0s8wlYAAxBBOVUUbZGGAssdkQSDgxhiSgDEMaMsUYUycydxZjSyVIhOBBBLnVphEBAdA2AQUTICCAcMEJEAAAGnFk3AYo4KAFH809ZwgjgWQRRXlQcPHFF2QwAQWqRegnoA0CmkeFF3H80V58gNgKCB97HEQFqBQduAFyv27QQkUsGNiAAQhcwCAJQ0AYiSWXmOShU9TOaKKGFYbI4kkXmnLTiUNRuFZL3BZ5LbpGRuXjVCCaBqOPxeAyL4xCdSUMLsPEa6OPrcC1SlzR0JVK/hgfcLADGCNVGQmVgEViyzjocBkOY7bMAQQPSIBhmRhkTKYmEj509tkclhCjjDKpLXMaMsKUQgcYm3mwgKCCZkQAAolCMECjAtRc3G0MJLfcH84FIoghghTSRRQ5XKcGqaQ+gYVCEUXkQg00aF1DFFd00Vwh7/XRR6561AeqDRRhsDbbbSM37LEbLUhCCHvRUckkmnAolbXXstjShTJli1O3Rolr+FC1jBg4V7WYUmNQ1zJV4ocqvWR4uSypWBRXauW0E1iffIISWvRGRcwmm8S1epKrbNKEwUAkfCWVWP4lCcRcXhMOM8woY4kYOwCxBBlkWHaZE2piPATxaBQm/swyd5JWGjGVlLEEECD0VttstSEwgQYTKDoAo8PZfBsBCVyQQg5e9GF0II0IIgggVEChBhxxDEIIIXD47wV+qCAFh0QBBwY04BSuwJxChI1se9iDHrpgBR3koD8oOAEGGuC2DWKgIgfayAQuQAIeYEEOkZiEyQJ3E5/oxERXEcbjQoQSYjzOcDaxl0/WEi5w6dAnOUoXunpyrsoZjkJqqUkthGKWk3yiE50YXVpuARRcRGVeqWMdklSxCSFw4AOSoUNf+lKHwGBJEsLQ3TW85DtQzEEJnXkTZcjgBCeIAQxI2IEPPDMGOuhtGXkiTTJUQwxNzMFPFFgAbhBggZ3l/uY24uMNAQTgM5spKDcLooEV9qCpo8nvEHrwGv8IwR5AdKGUBLkCQqgwhSlIYZURoYIWvuYeXEGwlFmwAg5ooAIWpGBtGkTO2oDVNg1W5AQM4EgGRqAE0MxhEqPb0YhwEiOp/FAqP9FQVSLnQrdsUygyuWZKWFKtnYhTm+acShIrZLgQBaVwKDmiiXYiRRcxUXSfuAUULXcLH9nCiqlYnb/ksokkkIADQBDDHOogiTk0jDBYOqPuxhEOaKjGEmfYAfPQdJklTGZNGP1MGiZBCztNL0/GEEYlxoC98RHgAiCgAG6IkzPx4cZRMr2NcYjDgBPUIAtjM1ojGuGcPfCB/n+xMAQhBjGIOMShC3zgQwR3lUorUDULXtCk2KDqhSzckgo5oIELVJCCE5A1BWZFAQo2oFa1ZnACG+AlAwxQgma9CQ0l60QpBEeUncCQKjhqCjV31E7ARsUrTHGhUXYk2HRBpWXCcOxjgXJSG6FGGMYwDbuogtl9AeVd64IKMXChliWe5RYdEsYtTOcjS7Tin6oIaFw2EYQOdAAIZOhLlci40EgY4xwRlWg0lMGJNmaMeJVRExhMdcc8Go+P0JveyorxCTmUoY2KIoDcEDAbnCEgfLIhHwB8xt3iIFIjBmBACqLQhfcVLaiGYGDRDCFfQvgBEH7YXyEYUQj38EEL/gehKoBj+VQ/+OGpevACVaeAgxr0x4IqQAELXCAe/xjLWAdCDrHiOoEM7IB4YyDJLDIrjLbY6Fp1InGJgaIvFXuWKvqaJoqFcQwVd/ZdmAUKavCUY9SYpk6bPQ3LbszjH++LyJvFl1rGRS95Mbll8qIEJDaRRblAYrYGRWhfwGi7SMyBEsxAh291xxhjDAN4HzXTHMXgBCYwYQg+YB6ELMGW6RljGcLIhCUmIQeCGge7GiGUI8WHXUne9Dbfq40BGtCC5fThD/NrBCMW8d5AMJCBg4BPIWARi17IIhaB6MMeunCQg3hBC164Kh/+MIj4aNUKCq5gg/vzghrYIAc4/gBVDXJtA/+g4EDEQtYCKgACycwhE7PgKxDRlcRkxzjZJb5xijGbpyEHmWU77jG0a4ztd9nCyCVOUVfGMi8q4mJHuMDsIyDBWrggqRVV7kCzyADGK5WxL5VgxjrOcZjEpNEZzChGLdoIBCR0TAxLOJPBkQCEPFbmecaoc56G8RJCIqECE4BA9waAAAhwnOOzmaShDX2B8iKAARiggQIBcYhHN0LS0JGvIdyTaVj4IhaxYERSm4pgAGfB1HrIlB/2ewioUrVpL1BBgLRm61Xa5wpTwLWuXUCsimBArhcIgQ/QkAmVIHtGiwVKC51Nzap8XSrNfvaIp4LtHAMZyCVu/gu7Mnv2FFPxxtyel1G0EpM94Wvcezo3vh6R7tS1QnWvbQMQKuDFMkhitwttZl8s0Qx0rENiXFJMM6IxyDHwIAjGrWPHNurmIbxJDpjgl2mmJwxLzGEHEEBfbsb7etwQWiO3mf0CYIpToeUgC8wBKqQLAXNGvFe+sGAPIfCQhy9cpwpU0IEVtlBVs41tPdD5wx6yQIUFq2BrOYjCFKxgtgd2Qfu4xprUjdWCqhvgAiM4AhoqcWzL6aQmP1l2iYSyNxeBXf+CzT+GmMI0yUiMDKCRZBtn2VhniV2IjBsVxYSHjNstzMI8sYvprMu7sEEbQEKUSVlctEIZiEAFhICz/oAR40WCwkTeNaADC54DC3bJM3wJG7lREpzJZHRMmoQMEbjJGETCJ1iWtL3EJCQBB8Qedh3hxmmXz0ySxmlcyCESTi3ACUCBU70PyzEC8S2CFnKKI0wHH8DBFVRBm5FAAzQA+xiQ9FmBFuhBHwgfFsYcH3iBgjVYDdya+DEHIMCBBFEBr1RQrvnHDIQHBpRACUxACDCBHEjC/NnCuFxTjezIVzTFiWALBOYEjFzTLCiWvRCO5VxFODmFTKjCSixbuqyEiHGTUdCTWBxFuGhFuI1FSuBTV6RWPz3gAsaLGWhgB0pZa4UgBYAAEvDFYGBJGIERJjgD5SXjOnSJl0TD/jBcghhExsacyRicSRIsnBKUniXUgh9dFsBZAhJQQCQ1EgFg3AAswOsRQHjVTCOdYyIVxwVsQBF8zcpJR6Rp4SJEmnzp14FJgYQ5QRJwgQwQAG+YAAq8AA5An+85miFo2iIEAh9kwRTkANLRgK3BCtnEIa8UQa4xWKyxQCDOQNUR5LCB2A7l0A49zg7pUP2BC+KoxLegxCzACOJsYk3QiC3AkwFmEwMWVjYJ1oXMCy3MwlII5VGE1hQdGQaGgQa2gSQQXipgAhmEQAUokzAS4xyMxBy0gWEk4wtuSb9FQzMQwxwEAQ8oAcJVRjWKAZsc3BhMgpyQholEwhBMwPlg/ldvEAAFPABt+Myi5EakoI+hGccCoNc8Fo0g3OM94qOkBYIeUEENsIARxAEmiAERcMACaFAK9BoNMF0XBIJ8+UIv+EIh9IEeTEENIF0d4oACdcEVGEELbEAZaiYLrADSSR2B2AAGSIoFAIEcWEI+2RA2FdFQ8hBTKBZfoQgE7k0qzsiLtMtgERaNUIV0eqIkouQ1FQUt4MJQzkInvFOLNGC5hYiPAcUZnMEGDp6UbULBUECHpYEkaGV80kFgFNs5pIM6pAPlLSNi7E4zNIMyaELwMJyZVONlaEabUIYk9FExdMIaJN7NaBdOHaGgxR7P0EakOKGhvV4EKMuisSEn/jGCI2ihIzhCLDSmFvAK18SBE70BCFQAAzTABoSVCawADoQfH8AcLAADMBiCaaJm99XhFGifEcyAyCyAARhHGVaKCiAdC+xHDeymcTjIb+bTUnyTTIabYWUpSpiCTlzp5WTisWHOSRAlIxYnuQwlIybWCjnihfyECkmnUcykLZiEOukQng7FJxDlE31Fj9jIuc2Lt4XBGbiB4A1e4YVBB1TADiSBMGYlbgkGKJyDOlQqC1reloSDM3wJWYoMwZlJwXmMwg1BDf4mLSgDMdBBCFiA+CxAMmXAIW2PofXln+WGJN1GAkTh6y1IC2CBJkVHy+HjpsnCIgjCHmxVKalB/hwQAi5gwhGwlQtwJAqogBRw1R/Egi9o4S8EgyMEwh5YQQ7YZg5MAa+kABCMwROEwAQwwAQkGgaYXApE2JMSyG6CEA+kweh4hVtsqXEOpZ2uZCaGE1fU5CSmhEk4TrZkCLUETtlVBSl+k1ME7FCsqZ3yqw5RCJ9ewiU8U0wojmg54LkxmY8Q6hmwgRmoJ3vSlggkAaT2xUjUATHWAjpUauWlQzqE2ZY8wzNAw+olwQ6g5VpyTGWsCcOVgXOR5Q6EwA6AQAgQARGMwMgZRxJyj58Rh+1JLXkhQAQsgAO0wBWk2tEw5iL0Atn2AiHYCnvsD/94wlJFgQ3YQBQ4BNdY/sFTGQLZ+oIvbGsvGIKuUKQK5AAfrsAGYMElvAGMMgDiqlWMnoD6hWS9LsgIpEFZeIVObKlepVNUwIRQUAuJQCI3mZPgOMU54aSGJIWM7IgqBEViydCJZCLYHaea5mmZdsIlYAIUrcS8pJYDdlvIjmzJssGhpk6VSUAH8ADLhhHyzpsw7Kd+5lu+bUliQANFfQIY/CzCjcFaUkbI+MDB/SYoEIMkLAEa0AEaaAYIWMCkTAAJVMBt2N442sZgEqbUQgDXjgAV7MEhBFVQlSjeAsMv9AIsBLAixEIABzD/AIKu2AdCWEHK9UEs8OhoBkMw9Ogf6AEOhBUOIATjqgEe/tSBEZQheq1fBmEA4/qHIErK1dXBEZHOK74pKX6FvkpFEgkOxGZu2A2nS4QuiOREUmRODhmFKsSIcqLT5EwsYu2QTUbR7NYuFOkuyMLLAtqIEJTsoaYbJDzCbGlAh4kE8oYRYBDDzFZqft4sf2IeRYFC9RIc9l5vNRJtDTIeKAiDJlhCHJsZCZDAho1AEiDBB1RABOBMRhSA93wP0JAXR1DABTgACkzBHvQBsDZCiZItMATDL4hmL2zaaGoaztHSVlHVGqLtJfeCI/gCBBuCJ+USDdQAVdXAFVyBGgDQrhnLDIiwCZwAhI2HEYzkgoSAHHyCxcpuD0ls68quSvIQ/lGGEy14aZmW6ZzqkF9R02nVhOGQogxXJzvVC4xMYCdQIC5EIO8Kqml0248JQRMAb7oJHiQgngYwqhOEkVYm7/KqQzu0A+WdQ74dRhr9JzOgsfWqJZpkLxGQycbIwSVM0yWo1BgMAQmAABm8ARNAiXbtDBOGXCETZgRogANoQAtMAR/kbz4uQiRLMo9CMI/iLSwglUCEmn+lhx8cgiGQMt7yLzCUaB9oAQ7kQK5RgX1w1Uqz0oLtWgugFVpFGIFYwDkGGw/MAcYCM1MDcyMiEeWeyEs2dSz6kI4AUcOqXYptNd/EhGrVHTj/GOo1QRNQ8RULnhvwQAV0wA7cVhfD/rNXXqpcK4bOgonPKkFyrTH2nsGZrAnzkAEawKVQfEIkQAgaAAEJEAETEAEIlMDN+EYj3Z6h4cwhUwBGb0AVAIIggDSJOkLZ9gIw9MIv8CglQ7AvHN97lI1TAYIhOMJMlyhsx/QhVMeC1aEn39ItpZJD7FqTVkQL9EcuS8oEiAAduGQk5sRx11/96R8RJ9FZTJOcYrPZocuLaZa2vUudRJbdoV68GBm0bRtldRZqAF7vfreNYZYSNAGh5iLwtsEZ8AAFHMyHuexbRwIz2HPl7Wcy6o6/YYLP1qDxUOM/2xHD7ZEmXAgxXAKWTMIYKIESPIEPWIA4smNkU3T6cMQF/lx012Z2dHw0/3522U6yBP/vab9XavtBfHn2a8O2a/tCt3aBV+VaBvccV3EVgAmQfrjAfkiYEdhAEZyAAeAMo1bC2KnLVExWurgLV0exs4nYeXO1k0kbnpwGd085ZnljnSTDtQHZjvkYkXG3d9vJu5B1WZ9nLraBGIgABTQLhLSsVtaBHFRCNJxDN7hgN1ie5aURNlwDM2DCEIxAmRhPgKOJNQ4BnKVBJZwqqo6YMWjCwYmBD5DABZgjhYfc7AUa+GD0RsPBZgcr/6o4aP+CqG9raXdazBHCHxzCIICmJY80/8J0tz5m1gjpTmsBjeu2FJiHqqiKjhcBBmAXBJDA/g5QgiaOroz4iGNRecucVIvhCRCKuY14o2kwe48l+7T7GLZ3OWv0DjJoOTNoebdzu7YjAzOMe5eXO2qA+7Vp+2mo+5DlWDWQOaGuNxsswQfEt7O0bBdLyDCkkb/jc7/prDP4G13uQJlgb/GcyWVYBhi0mcb0oCZwAlQkA4xYAhjY0Z/j8RFmnMaNV14S5ARUwAWIPApUAR9AWsux+Gf7LyWP9miP5lFNGqU1JCmL+miyODC4uCN8K06v5hbQOE/bOFVdgSo9BHnYwAYEeQkcoiUcO3fzy7O53WMlg7W9e9V7ebZXu5R3+dWPezIwg79tKtj3ztf3jjNAQ++k/den/nu6f3vbhzu4u7u6u7u5azsSCAHeu8EUl6y9r7mzjIRIcDHgR0IxNEMMNsM1OEMMDvx/RoNYGkMk+MAIfCroVUbCFxyCfoYcCDZQgIKegQYaIMEIqOsRsiPWkpfcdISEXwALmHyHgzRsg/bKh/Zn25zLMVBDPjCp3zzOuzjPp3IdSoF9rDRP+5eoJYRDqAp4tECSqu8SXMKyxd2Pcf1mdXu10z3X61jVS3m11733l3vaN0Pajz/5l7+2ozu5o3+OYT+PWTmX2x22Ozg5430YEKoSZMAEDNsYlEHgA34Z/D9A0BkWrVlBZ82eNYu2kCEzYXV28GAiBgySIUjEkNGo/lHMmIoXO9LRRIzYp0lyynQco8RHiAkECAyQOZPAggUGGGDA0ECnzgs/L7SowkeQoEaLHCV15KtXU2C9ZDXt9RRYLFiGDBXCyggWsGBfg01VmhQYMEeHtOCoQaMGDilWrGjR4qVLFzhw6nrRYmUKlShFjBRpYWDBBR9kPgkTZkzxsWKPiylGNnkYZGTFkEVbhqwyZMyTMXueDPrzY2SMLZsOXcwY6NGtTY/GzIzZ5GS2byNjlrtYMt+jgX++/DnZstaXkStWTAyZcmHFiAnD5Zx6EiFCmmRvEgbMEAsUQCBBU4Y8mjTky4wZM4eYsmbXxqFbN25cOIYLhwmTw2ME/pIlSHYgYQeMNlKPDDGSGGIIMMaQxBJQTKJDDgY9ocMHIDKIaQANabJpAQxO2OkEFlDYYAMHGjBRBz4CKcSRRUTBKhSmnPIlFhqbsiqUrLRyBJaugtkmGGB8GcuRsswKZA+11soBhyni6mKPPfioko899PDCCiqq+KsIwQi7IIk5aKGusufyo+6x56hjExliiqmsM8ieY61ONiPzjE3lIuOzzTbz9Cy0yySjM8/hBM3TuTWdi+5PYZpTzJbphLFFOVtoCSOM65JQQokmlOChgwnCW0M99NJTD4wyNOEkmmvaiaeeeOYLZxlllhlmGGLkCKE/JHwgYYIKdpioo1Qp/rIIozQcvOSSScZYYo43iJhgAgRgWoAEEDKw4FprL2DghHFRUKGGHFhI18QNVvwDKV98ySqUUETZUZQfrVqEkUUM8YXfrAyhl6qvnhrLl7J6WUSQPqzAgQa2noRLyir7qFiPLLPYUgrABGNggRDSiMRSxexULro+1UxZmDQVSxPlPRld9NGZzTQGZdZsThSZ3Eh7DtHYIA16NUVRbu5moves87EzztCU0ySS4MECDUZQQozzUE1PjIzouIQYZ9SRtR56xnkmV2J2naUM/pRAIoQKHiB1CJXG0FoMJJRYcAw5JpmEDjS6A2IECxCQSVsi3rDjiREq8PCCBkh0wYUc/qbIAou/TERhxUAYcaReHgspZJBB4iCkkB8ZCR2rfw0RxXV4pypYqYO96sWRhbWQ4uG2oMyiCz34AMTiLL3Q0q8vi2DBYyQsmcXRmO80E9Dn4EzzmEhp9jPpm5NerDM1RQNOfJ7Fd2388nMjHznZEl1tZ+GKCaPpTYVAIokmeKhAgx2SqDvrVMEghjJI4hK2eAY96LGOczRjGJwABSg0UYpNjCEEO1BQCChQExL4YAmnIo+qkOAfAUYiEnKIlkUCdC0LyIAIZFiDE4I1gQtYwFsYYIEKXkC5LACCD12QggpSwAIddEEQ+/pXIQJxCD/oQQ1N9EOLAvEHQhhCX1gR/gW/6jWvqfgiFElhCjC4wY1g+KIQfdhLDVxAAxxEAUpSolIfpnQxLW3JS8ljwASW8IldZe9liqkFn5DWpvz0UWl0ApTRjJFI07QGT6lZH3BqY5udlY+SwOFZcUbDM+FIkjSbpKSmznAdISRBUzuogAX4l57/pSeAZCjDHCaRiWE0YxkkAYUlLDEJSWCCEksgwQguWIKaEAsj6hmDGcawNTC0jUFp+Fu0kuAEJ4yAAhfIABF84J8jKEgGR4ACBi+ggslNQQt/wMofrOACFLAgB13gXBW1okQ9WK4IVLiCHwABiD9IEStYuQoXQ1GIGdludr34RRiDAYsy6qFhNmCL/hSoYAU9dKEPV8ISXbRwBb9EoQZfUl4FxvDH7AnDUTQrKR8XQ7JAQSZniyFUZAaJM5updFCVrE0kaYO+namvfMdQ3yUtiShOku82QnCaEI4QBE2JgAId4MGq/Jc1MgRQJXKQxCQ6MQlN9E2Xc5gDJeighAwAcwccEGZhQKC39IxHVZ1aQgArMiY64IEMJLAAB8mAhjc4oQlEIIIMRjACEPxEBTTIwRb0UJRABEILOXABC3DQBa1gBYmi40MWqCCFHOSgCl3Q5z4PYYizBGxehjjEIZZisKl8RYyLUJKWcLDZHETBCr6DAxzj2AUtZEwHUqjBb5PXgBGwp00jaxl1/k5K0pEKEnvHyI/NztSyROFpMYaKTTIso9OdBpWTlZTNJJFzG/gNLTWCypn86Hed7PCAAhoAwhJQgqr4RmtrBxpDGrw6B0lIgg5zOI9+w5oBEPigrCWwyQQ2mIRjoUdVbVvCf8SDB8WBAARPqMTf0JCEEWQgAxeQ4QUqQIEN0CAGh+2DIJCIpSnQgAVT4INWGAG6JVohChzNgRSysAd9BkIQXfSxaU97CEE4Yl4HCwu8EMaIQHShYZuNLRuzQJe6TDQvcDneb6HQAhIkoQ60sMWX2+TlmbFsudlLLiGdM1OSKY3NjzGGcbwb50wmozbkU43PguMa1UAGF+17zFHV/gsqpnIACE6QA9ay5hGqqqQM+NWvV9OAX0sEeMBve0DcLECCECihg4lG0BCScCBgEWEHARpC4tAQrMYV5gIj8CsQhmAEHGyBnKh1BDovFgUaXGEQpwNdIPigBb/8NmLAA0QgRJvseQVZyF080i+awi9GNELJwZ7Cb520WdpmYS7F83YWMDuFjdmgBlAgwgjeYAkv08IUJDEuMYxbZpPJm96PCtSa8RyN1vCUkkCVM2l4uslCCmrgmjK4ppRAhBBcwAOFTo8Z4oueqbbSCa1s9H73Swc6VMISdwjCWFtSAQOXQEAjyOaCUbVMJIChOzvwwQhCoOkhEIEEG6oACWbQ/gJtzaCvTTgCDaYwhT2gVhBa+MEW9pCFKHRhiloJXRL5QOMopDGHOJAoi2TkiH4yuxGiTYohKgZaqGtBB2tJo1rU2LsuSLl4GQv6X8hdhBDSoRS0EDOZJaUcVdB7FSxLbr1lphzsGfJ7r5Ezvw+/yZoKVc98XqlnmnYGMzAN4W8jwXtPFXH0ZKRuHsmIGfR7VYxLohJzCIKAXt4BBCRgAr+qGoPGU55kJsE/eGOCE4YQAgxQIAEDKMEEtKVpElzAJhSYgAYWwAAbZEEPVDwEIn6Ag0MAwndOp2wgBuEFKXD0BZI7OxX00IdDNKKLWklikE0rCNNu4QXmqtzFsjCF/hzQQAUoQMHDCmv1KGfUC+AO919owAU66gnKYBJsAd6oo0z0Trmcw7jwDvBo5gHTjFEoMFGOw3ziLDcgxZEwQ5MYTzW+SzSEQ5MgoQQ3ARIegQ1C6W3SqoPuSw4ObQ4+aAzoIBIk4RHmgA3QA+MmwRIqQRMwYQ6G4PKGwAc4AAEQ4AKGQD2KEAnGIPY+iAwgzH6SYAl8gPguYFtMjsACy6+IwANmYgAYIAWugA9u5/msYAsOoRCoJHTc8BD+IOk4SnLESZxuTEoQIYlQrBCCjA/MSRCeTw9iwAQOwAReIOiCzrFOwAQYkQ7Hqba4rf8sZwqiAO3YAgrGgBJK4e+K/mveGFCQGuVPVgECU6p7wEdQ3ue7uAsDbQMESaOS4Od8NgnxkIEVVkEVVGEVWqEVHkEIQkADQkBv9gYG5cCrUEIOMmETOUETmHETmJEZOWETP0ET5mAHQgBvvAMJlXAOIkEMeMBqoLAM0GAMnMAiqtAiSGABLAAImIAJlgALxAANpooM9goEei8mEGABoEAQfAEQD4GhOIefsoIQ/gAQdGv70KgOVUCcoCT8xG8PT2voZsQQEEEPtuAHYoCcsMQK5o/+GuAAHAAF6LCw3kIuMgYLqCDoYsvsaAAK6AATOFEC8a3e0oQTjyvNqIMxVmaP1ORk9qy8ekO7MinPYqM0/oYSvH5DKI9SfMihKV2BHFxBF8PgAzSAB5DAvhrNqoyxDETmVqJhFZShPZSBE5QhLJVhGMKyDXjgGpdgCDjgAZJQCURCDvKmf8KxDMiACeqyLSuIWyrIfpxAr14ICDxgAbBlQwZAAVrgEIoEEPegD5CNsrIiii5rCtSCDstlIV3A6tzoIfnwEFiEKXzhH7cgx1rkDxgqBxZyBVDgBFZgIWFTjSIKLviiCqagCJiEBl6gCMigE2ZBpT5RJtGMFIkzGpCrT5Dz8TpJzjzJuzpwMiJpFWlxKZGhHKyzKZtSFc7gAz7AKseADOqmGPMLBivhVZ7hGq5BIdKTIK4hHMLh/hmegRjWZgTeagg64AEIQAnpYBYsgQzaJh7D8YRA7cHaMYSUwOWYgB67gwQo4AEoYAFgonDE0Au4iLJ65EUAphBQc9i6j0RMIDM3My70QMd4bLEQ4RBEYSpiQRTQQgv4oNcM4bIqEY3sTwVOAETTjjZTMuiKIAdqwAZcYAaqoA5u4Y8M6U/w7gFtMu/aBN6iI96yR1fy4+9YRgRTw2ZYEbwe6d/6TUslqTRi4yitsxzswR6akhXOoAM4gAeSAC/JoxjFEwYt4T3QEz7ow07pI0+VoQxEgAeWgAzcMm4qYAjogBY+YQ7MEQ0UFVXuJoSiSQz+NA/e4AmAJeZ+wgIM/nMCKIACDhMAEMAIFmFHVEcqtI6y/KALqACNXEAFVmBcTmAh1ch3wm+x3NCcpqIpfCFGQocQeHUQLOcKrgAH6o9cxIkGbCBi4EIlv+RHA1BIKyEUzexPRCoyiEEBhaEWcCFbSUqk/sTumpQ6RpGkZLJQIoW8tnR9sss0iKp8ZnE4VjFdz3U0rLNMx1Qb0vQDdmAJzEC+xrMMLsEZ4AMbxqFO8ZQ+5kMZzKAHDmMMhqACkLACgEAOQIEYLIFhr1JR02BRk+UilgAN7EDC1uDcOODANkSGgG8BBAAANuQCbIAQiiSJCqEXhiReWqcQ+CBYVXVYx0UzcYD5HhNgeCQW/qiiKX4EFhThaAkhDoAVDtSgCtZCIV/AsJ4koqggJSvRR9fCBmaADGaB4Jh0ZmySGP5IbG/hE26BFm5hFuzu7r72E902Ah/lpVAxTrILUfCs8cLrZ37GXAdFZ+r2MpJhXu2hXqcyBIBAgPhVEiLBqzLhGtAhT8+BPh53HSiXcseBGChoYd0yHwmtUJUBFBB1QRaVwe4mmwJTDupAcUJgAazlQSeACJDgCEDgJVSWAPJxA/TARRxBQxdBNHNVFAKBoXBgJFszMwtrCrzA2Aihc66iK5DkKVDnaBWBEOAAC8pQD4IVa3dH2/piR2sMB9TCBsTXBtbAUuAkepRjXP+k/hhqoUxq4RM64RNewRM84RI8wTe9DEpFEcyIEzjJCxUbDwRdMQT9tqYiY2/bR17HdExdIQw4YNPIAAbfFAZJqL9K4RwUCE/lQx3aoYPXgR7QYRjGoAeGQB7t89I4gAgK1SEsQQxAwjwYtVP8QyOWoKweeJu25QieQAlkIB0HQGUHAFsuoAoWi7KkohdgIVcJoQssk/4WklzKZXIkSscGIRBg4UaiAhh+4ReiAhZeIRYYgVd51Q+slw/8YC9W8kfPpcb6gi/EbUbZwqGMAA1wYUmLS1unI48lBVNuwRbKthM8YXQGwQ7sABPidxa41XypwxaG4cug9ACXQ38BBShF/nDO2AdMF6+AkZN93FVvOxkZmvI6rdMVgqADeqB/XkmCy6AYJcGriAGDIxcdzuEc0GGDO7iDLxcMQoAIxtEHJgACEIADkCAShKEZkAEUIsEimOC+SLcilID2AIQDRuAJ7IBaPAAKvmAESCAdOYQmNuDFWsQQjtgqDGEQtODaMPMEUiAzaUAKtGBEAUErrtgXfmEXZIFIfOFHpNd0eJX67gnY4i8KjMBHnYSN+6IKtq8S2eJHiwAK8EBuTSpbs3VScOEWLPoTPmEWNNqiO6ET8GB07CAO4oCQ8eASPsHLqrVMvkyl4c0ULIXM3s3uJBmQrKtuD1g4NvAV+zY4MDle/mGxksiBTMshqO2BlJ2KQV5pK1lZ44iBcjF4HWqZctVhHW65HcahFpagP3qZUxFgyyahGJoBGojhElZCCVYl0jYPmpEACIoFDfDgDdzGVzJg9cIQCWFCJgzACAaBir5IRWGBehvmaYHoRmEzB8APnrEiFpzCnmUhFqzCaAlBEUJnR5REDwbh+faijr6EjaVg+ygxN43VCLiAFoBDe05GUiQ6W8/2bAG5EwwZoz8BEwg5DuBAC9QADkbaDirBN9WWf4UBpSvlbT9x72amfWCjOVexu7wrKfvN35J7kmojlAfXOluBB9YUlfMruyOhBo1hHaa6HaBaqqsal2lhCa6x/pcdtqubwBKY4RqegRmIIRKS4L3MA9FSggksYkHqYBLQwG1AIOYcdgAWQMBPFlsKhwAaoAoKASmcohdioZzVgArmb1Vbk7DNBccm5nRgIXZkQRZe4Ytf4WhDhyt25LQQgQ8CEdxoDHk2u8a+F3x/K8aRwA7GCzPwjKT4TKLL9hMCmRAGAQ+AHBMuARMqYbbVYAuwQA1E2g56MKO9zKXFrMyGM10/I5E2Qze0NKdogzbobMtpAxpyame2vCC4HDrFHMu5PMzFXM23nM6GeoHLobqdygmTOru5cb+igarXwR3A24OrGh6suhTMGwnSYAx8GQFIJQkugRnO4RqYYRg0/mEMaO9qCv2DIDVvMOKVAIcImCD3tHAErsUmwnBDFqAFuqBzpCKfCeGydGdVdVYzc0BEUbwQFPtWY+HDpdefYOEsEKHXt6DXteAitwAHdMDJOqotvrcSwddHxbcInKATdAMa1EfxPKOiAVmQR4cOPpaQt522tQALwP0LEudjO3oWbGFsaaaPDCl8KonMncEZaAPe5Z0ZCoLMm+HdmUHeD6IZ6J3foeHf8702AD4Z+P02+P2mfuPKs/zgp3tM92ETesCplOC+8mtxvcoGJ6EZbpkeOhjQ/xzQz6EUDnQJCn0HrgUBQEAMGvdxr6GWJMGFl6DRsqZRk4BB5ICE5uA//nzAB4gABFjXJu5aJmCiAWYgC07HsVEn+7BgwheyeMulBnTAdx6zEBgByaoCsnlVEZLtDxDhIrse+rbgIn8g+n5gs2LcWP8i2zZrfGnACMagN7YcGpzzMSalbDXBxwfhLuCA2/k+pJk2C64A3NVg3Hf7E2rh716aZCKFMwbuNLxrN3QD3uNd3qVB3vn93ud93umdGf49rL28GXgmOsW8y9uc334jGRreHvahHCAhBDhgB5oplWswuzO+z+GB48cbHjy+Gy5BCUIADOZADHYACSGAA8TgExx3Ha4hGpShFOZglFblgz6oIvyDBjEBQv4GCUAAU4dlwBETrw0gBZZu/hCu+EdEgXqvoAgCsOnH5YZUwLC1gKK0QrGjoheOFhDiIA/+oBAAsevHfuwBYsuWHwRjGDwY40UNFy5sOKyRowaNGjYmzihiBxkzZsmQeUTW8SMyYcKK4aJF61anSoMGxYGjRYsXOHHs2LQDB44anVm2VLmiRo0dPJg6zaJFjCTJYUqbNi0GNWqxksWMiQT5cSMzZ1q3buTadWOyrh6ZlTWL9Wqxq2rZQmWLzF65ufvKkXvUowMQMGPGlJEjR1KkOZIkyZl0rZ3ixYrdtYMHT7G6a5aU8BCDBkwIBAgghCAz69o5dOjCMSNmSYwSvmVauxazRAmSMXU0kez0ZEeG/goWPFQgMGAAAeAGDDCgcWUQIVjMYRGKk2XKQhcqUJy4ngKFChxWuujpY8hXr16xYC169bwLnC579PxAaLAgjBgwVpwwgQLFChTUXdT4D9F/NLhwQw0zQIGHVFStFZVTuNxCSyee2OQSTFlooV5OL8WhhhZZfIgFFVhg8UVNRH1CSy1OrbiiVFA9xeBaHr2FVo1mjbXRRyGFBFdIayXzlovIRDWkR8LM6BGPac1Vjj1yaWPGBx8A0YQYYvg1RyRaFibHJddExlg79CwGGT3rPGOJDztgJsYIDzzgWRmlXLMOOuM8w4wyoNCxRBJ+uZaGHGOAgcQSYsxhCTG0YEIH/hpM+JDBBMEtgMBwBBS3QRVwLBdLp87FgUURL1Bn3XXXoUADd+wdsoh448FiiCEvUTHFFji8Rx8Muu6q6wEwmHDAASYMa8IJK6gwkREVCbgQDTM80UmQJU07FUkvTmXLLZ+shEcc3n6YRU7iatFhTFdsIUWIJH5x0yUosgivUkw5ZYy1MBJ5FZBwsXXkkDL6+1ExHQUZlTH4HinjW3A56WST5JwhJRBJWHllGYRFUtgcmnQDZpiKQQbZOtBI4oMPmC1BwpsT7FAGLdeMAzOeywxjyRhJsNZaGmmUAVsSS6ARCSi11EIMJmIMMcICBCwwgdLCGecCFsrFIssu5REC/keoDFVn6nUq1CBFd3wEYsh4wPQCKyF8XJGDCivAhxBBvOo6LAzCmtDACV8XERENEzWbwxe3JGywv1MdrpSiKmGCR+N2cKjTFyXmlMUVlm8xYhVVSJHuFV+8YYclndxiCzG2wDuvMKnH65SLCjOIZL6xw/5vkgG7jnvub3XUkT37NGyPNmF08IESE5OB/BhyZEnHHHNkgk47jj0GcmQgt6MONJHwcBkaKL9ZwQ5yENNMzM00w8wynMzRZ8V/zYHGGEsUOgYdloAizCyVoEHGEBcQACdLlcAAFzCCGgahCFlUTRboyVoRtlaq/GinBlawghfGFgpfnA1tiyhEF7Ig/gUcRIEgW9ACIk6ICIFsIYUrJMgPdtWAAzTABC7AAQ6KIBEA/e0Ng0vStRrUFGLg4kGfuEQlGtctb+VEcl9QwxWwUIUtMIFzVTBCEa44ojfUYRKdMMotksK6MFJrQUT6V+3YoqSAGU5ha9SdG4VEJIbNhRzkGN6UkGClMVwJMHQQzBxmET3IMKZ6YFoHM0hmMu+l7AHhS0MtnAGzcEjSNDQbAxL8VIY0zEEOOxMDEvB4GFAQAxSTAMMIOECCHQxBCUMIwQUuUAIQQCEOhFDgLn4hC0YM4gpSWIgKqhNB7eSggl3wA9lcVZ4O+oEPfOjDIVCIwmdCc4UnHIjcUJAC/r3VwIY2FJDfrkgHqszocA0qRraGiM5tVQITnsCDTV4SlMppYURSiII9r6isIhghXWiogx24OItZnE6MBLXWD18HO5GkUV9tjBFUDGZGMr7xoFFhWMNcIQQNcGAHTHACGfT40eVJwnmcQMc72vGOlDImHh1bxzLmwAMgkEEOSODAAxZQgSHUoRh0glkkn6EMYrAPCWBwDSfjN78lkIEOlzgdnwrF1EzQAQxK8EEISMAEPNzilr/oaiwU4YcrVMGX1UmBWfPzAh1YIQtd6EMhwuOL5hiiEH/4gyEWgddDPHMQeu3rNFU4kBgwxD/crCcOJOKfIkABEwW7VkmSgk5b/uAiFkP8xLaQ6Dg8wOEL4LoCFahQzyhcUZ8OMUIURoQGm1SiEygBIzGqJQxVDFSMKJGXMI7R2NwVyXBqzJ1EkVGvieICKsMdruuSwbDflWMVQugACYaAR4qFlDCFIcY6FHNSMlEPZOtQRhp4sIMxpKGmD0AAB5AQCWagIx30oAc81iHJZhBjEqopamuWh9QkTGwOkwBFMWrRxU+A4hOWaBQd6KAEO8hiq9Po6i+AEQusUaEINiCVWc/6tSlYQQt6CEQhGLGI5iyCEXP9MF4NEYpCHIKvfZWmCRGhBRW+hwYvmEhhRZtDh4jhEwOD7YKSgc5b4AJWnugiJjAxFDxU/uImcOhsiEIr2ipccSFF6Ojn6GCH1QpUKbYY6C2cMlAwJo4ktJgttRT0wzauUaJSAVLt0AywNeICSMU17ot8tw/lqiIIFeAAEZbg0St9VHmEmQMx1CE9jxHyvcMoAw+GgIY0KCEDbyKBEijRjHWoo72aHkc45KsJM8jGL4BBAyfl5zOgaYIYxqjXLUCRiUtEQhPGuEQZhDyNbTQ4GMGQBVjVUIUckCo/Z0XBC3IwBbZ+h2wnjtVc74rXUMSqEIIIBDRjXMEfoGsgODAIdWzMzShEpCE1KEIaiJEMg7nZRUB+UBcJ0RJ4KweJnXDn4+BguQ9ZjnP2FK0RInLFdLHL/iaWQBEYbTGLWtiitsJIiiqSYuaFQ1zM8EKci8R58XIqLCQlUXMZiQtEcsLWSXmWiyryEoIhKHUMZBBD8pS3PGGkgzHT+5j14HEOYYhBBJAegxIu8KbzYjp69FAHaTzdDGVoYgzQxRJgNpkGMuj3UPcbxjKmAiRh0MIqtOivLaAxjV3sIhhWw5pYK6ICFmBz7Si4AQ6o0J099EEQzi4EIcj21kaA2NmHEMQfqokIKxiWIEUwyKhG9TdudtNvDYGCHdjcZmLU4hbokbdLWjIIPBACiTeJA2c9VLkQgfaeObihFatAItVeohS2wJbCh0ZQWrAoKS9SiuvGGWepxHm3/nC5veuGgebXEhcXwpgLP35nj1agfAhJcILLP5rHnc1BGNGbuce0Ow5T7BwJrfEfnM5rCWdcVx1GtxMlLVEG2bzPefi1GRPAkIZZE2MZ6QvLSCwrjF3gQuxWU8QggC0Rv6QC2XEC1oECNaBhHLYHfxAIgSAIhaBiDSgID7gI01Ztf8AHKRQdUhAROaRDg+UCfwMgh1UREwEF0XJQC2I6tDALnWB5OeEH8TYIR3RENhE5H+IhI+JZtNJvoqVPJDIHdDAJBYcUDWdmYtRls0dRvKcjsqNGTZgWIvFx4yQVwKd7UTFEyWB8DaN8HDAlYOByV5JHY4AGFjMM7VAni4Fo/opxXdIzGaVgSrPBdB1QXiSQBJegXu2wXuhwDuNwDegDCmgwBEywfs6zSWUABj4zU5awdegDDefTDNCwEcsAJJTXVbLwKVcABWTFdhKUKhWkB3JXVw1Iin/wgG81Vw34B32wBydUQeKWAzlgY4g1WH7DLMziLEXwBraQDAb1QySxcO/WEi+hIZiXeZxnB3mwWVngBaGXOVMQBVPAb1GGBf30T6OTIvAiewVle7m1Lwr1jW4BjrzHIz8iI+mGLy7iO/zgO/awCT3AATznBGDgfGBoJchjhtGzDm0YJmOCaNegCUnwXH0xBCUAJyGwBJjADHXCh9fQDdcAkdFACzSF/gRkECiG6DxoIAZOsAQ/MwmaMAzMAIkj6RHZ8gqxMA295hxwMFZbM4Cd+DXcoYB9EAij+AeAUFcMSIqHQIqsiAg9YQXSGAWKFyAuoBAeSAMOYYv/4XhUiDvCgHBdlAl4MIw0EQcxeIz2hgdY9hJe8AVX0IxPFCJVMAWj54NYcAVaNAmTkAmfwI3xMlAix4RlsS+844RQGI5RCI5QkQw9JiPHl2d18QgfUAEioARK1XJiAIbI43JyIAzdsI/nsI/XtY9sqA7r4AyWgAQhgASZsQNANwEh0ASY4AzdQBrd8JDYAJHNUAsUGX3Ls0mAkYj7hQm1gAwjqRU6cktkh4mE/qAGWMCJ+VGA+RGTU+AFemCTN3mTOEmKNcmAq8gHe7BCH1RBU2Cd1kmU/4F4DVGLBuIEmbAMuPVGLPhuK+YH4oKVx2gT7pREXdmMWTCW1gllUvYTWpRlbbkUTbE6q/MUCzIMvMWEfckReamXPYJGWTGg4TgMSsIPx+ck5MAGPUABhmmPi4k8Z+By0/cyk7mPl8mhfMgMltBKSqBHI2CQnpEElhANpnkOqQmR1+AMxJB+0AVdToAGzqNJgtKRHlkKy/CI5yOJ6eMM0uAN22CkuAQLeABsFZZ2pVKABagCpbdW35GTVTqKzrmKgNAHfRCdeuClx1lBYSoFoMVNEwGC/iFIY/4xA7tYJGaEJNgSUJ/gCYTwB8/BBy8Rb5mFRHmAE+vBRE/0WWYpBfoEBSQiB3bgCZcwCx2XcSwyJFQhTiPxjVyBPhsBDWNRlwnKFlrxiGkEiQTKFnl2fHYBMRXAA6thJRZKMWJwbuUjmX04DufQh7K6DjDTDCLKmYMSAhPQGR8QBpiwDC8qrNiADfLFdENgVYYpBrDpPIjoM2UQCZdADMzwDJAokudDpEa6DWUXB2dHKtiBTSmgAoSVbN/RB8lZk6W4nDe5pc3kpe/qBTFRnSGEA30zIP4xKv5hIBhRoLtnJNliWa8wp4SwTMwUB3mQeUOxnnzap+rheV8J/kX1FELlBgVMcGWYcAmy51uqkzBrAakJM44C6hVg8RVooRFJ0hE5krJ9qRHWiiMgAYnQILN4mUYiYQ8NWhcP0wEaoKyKCQY/u5GGAgaGFg3O8DI+hbRIGw2TMAQfUJFJEALlFZpikAnMEA7joJrD2gycMAY7sAMiwBs+AH+GCBiDwhdpYAmzsAy4eZvI4A1FGgy/UHYOtDVdcx/a4QI5EI1ZEIpb+pzM2ZxVCgiDq6Vb2h560AXNWJ3Q2E20OFgOYQPPcgug+hHC8CAqUXmDcKdw4AXegllJprBWuR4fhAXQOGULYQNQcAVyUAd48Am3oCIbWxIQtSBqxiMpqxEv/jsWYyGJIIEjQcoMMmupwXutj0i8ljqk0IAMM2sWnKq8ylsWvbsPOGsXYcABFtCziqmYTsC9PysJwuAM0dAMR+tTEIm0wzAHO5CrSJAyCDABIwAGl7AMVyusL8oMmkAGXgsCE0ABI/AzzMpJQDsGkZAJ0xqJ6KMRuRYM2xC3uaSMUuaSTgqlNFB6YeMdcrel5+p3zamKVqqKrIi4HxKmtNK4fkMD4/ofNlBub/CfdwkSJusv2vIJlZcHO+EFDhsHmXdEn0uMN5wFPKjCA8ICLlAEV5BabLmoMtJqhGMVbbEvNtK8XwEWYAG81+qIMvujjwgNRusMWCyJztAMQwrG/pEoDWVcxo94xmlcxkN6fICpDUnQAR4gA3jUcvZoKPMoBpNwm9EgvuSLtS96J8IAU5zpSVGLABEgAt9JrZL0MuTwDH7oDJmQvztAAhNwASDABITGfoLys8pjCbWwtkAqkrlmpGTnC8+RBVHgkm4jnAVYQ6WXbN7xrnuAk4BQbRxcioRAbYUQCFq6B4nrIVpwBUE5BX3zgRURuVjQCbYjEsGbshvRDAFTWZVHjBkCB3mweUeGWXlQzWE5BVPmAmqnAkbABG9gPxl7JFGsEVrRDAKKDGCBI1ohoFf8o9Z6rV0ss5DoDfgsDWMsxjAKo9jgDAMNowMNxs8gs2ZMpArN/tALXcbesI7HRw7NBQKn+nxgqEerOgnMwMd8XD7P8DKALNC2IAfqywRiQAQ2BQETKgZ4KElJi7XMkAlisAM8wAFM4wFDIAYWs0nOY7Y7LQkgOZJhXKQMHAzAIAtYEyoDIoACCKXbZE8VFBOzLHc4ea6kyMt2B4EldpO/3AVf7QVrBXe9lEMTccIK4Sx3UAxdEc8/KpJWfDuUpwibp4zrUYx4cAmYRQiEwM1xAMxWgGM20KQtwAJQYM6TUAq1oBWUyhUDvRXoAxaRKMUGDaT1PJJGew1ZKw3XsMZGW8YQiQ3SgJqoydmlPdoQedqjPdqi7Q2r3Q1l7NqoSQ7lgLOs/hAEzrUDeDQGZ9AXYkgxG30NHR0N1HoN4QCjYRzctvBdITAxPmABCwABpjoGpcAMxW2+SBuiS8ADI0ACTJMBEqPJOEoGnTxrwhC8kCgNpMxrvxBhXkAFAdjUZfVL2yQF1rlWH/LVXorB57oHDpjVdveAdwcI6+EFBR6vi1uvFBHE9+oCz/IKWlGt5zPckDjGMVvGHTF5rzDXeXCev0wTeYDNO7ynLyHCoIVD4ZwfhA0FaGA/i2rFENnYAP2iyH0N0FC/wrrZRvuQDvkMqu3jPw7kPi6r6BDkpknkLVrkptkNo9EN5HCzDboKt00CEpOY9xiGVqLHzcDHysDlYTyS/teAJ6UwBiKAkEfz3Ct9GZeQDOZ7tLB6q0iw3ZU8AR7AUcsahLD504dBCz4KpNJgpNzADbikCN2KQ0wd3xNkQ2F632xV4Pq9B4/e31ity3utNnyQuF1AKxXEg4vXLFvDEDOQB8lwPs/wDMZd0AQNoyD9DA1tTrig4XvNzeJysHHQOHzaLY9TOZ41lL6kdijAAhfB4op6mzdO7BAJ0sK64w6J2j/eos3eDemg2qRBfulA7Zo27dQumdQ+7eyQDu/ADtyeDuCeDuigDuFe7uEe7uxAGtS+h9rQoMenCjb9XALMciw3aGRgCaEcDVze5UONJ5kwBiEAv0dTARCw0iJA/gZVO77kayfowAyTkAQ13d0VEALGs0cYmQZmO8Cr9qPeAOiAvg24JCtYYAQMHt/zjQNhI68bhiEGfsNe6h04mZPnOri/LBOVI43QOJTiJhH3Oq7hHM40gAfNsNml3oek/ZCvjZrO3tqoKQ1D8iDOwdfesiF8rYze8gU6EZ8JfsLFNgNGADSXAAqLLA6RFDOyKqtHGw5I/5BoP+QOOdqkIe3rkA7kZ/d1zw5ruBjywBjezo8pxQ4pdVKC/+3eDvjt8O2J/+3o8O3nQO3kML3Hp3waUPFX4heX3xdl0Bd4CInKIAzKIL64iT6zIAYgsANLAAZDYAEGHz5jkAnRUNxJ/lsnIYoEXlvJU476YKhJWtKs2jsH0iqS0CANH88NuhZhoFLoqyyAeathG6a4ayUTMiHVjR6Kcgfp3pG4VvBZUyBC2dnzDDHEM0DYLTADeCDaO472pOH2Qy6r2P7sr/30Q3QLc031s/4SYA2fm7541HFhLMACRgAQX+xYAsUsnLhuCcedOyeOIbqFDK8l7Hbt3DiM69Kh43gO3UN26tK1gwePXjuU8trJY7mS5ct3L+W9ixlT5s2b79jt3JmOJ8+O5fYN5deqR4cPSsaUYdq06VJNzJpNjaZMmTGpU7UuKwUmxA4nYIZUIAChApA1s5yFu4ZxHLp169A1m4TEBw8S/hM4IBkzRgyYMXTmRJI0J80YMGLGTNJUDJqzbdu45eO27dcrQnGwRLFRg4YLFSpQoAhdA8cUKla8rM5ixXWWLFpke1Ftpctt3F28dMmSWocUHDmK4IhSw7hnF59dLJ8xg0ULFk86Oev27JxGjezQpdO4nd05ignTMewmTRouXK9eKcqTBxCfOHHgdLlyhUqVKkWG48BhwwZoFlBIAboi1JjDE1yYEcehi8JpiKJzwnmmG3EWUsittziCa6Pt6PHwHZJKaocmm3Ay8UQUZ2LpJxZ/8mmoffjhB5KjelDKKRyXokWrZqqyKhoep2LmEjBIGOIvHyhAAAILhpCDFmae/nFLQ3XOiUYSu3YgoYQPkEhDDr/GmEOSSMqcowwwwCBjDkxwQSaZYCTjprJpZMlssxpseGE50FIIjb8oUvNCDz1aoyI11xLVwrXZdPMiC/uokEKK4yo1bjkaVGCBz+RYCJCFEZygRZqLLurGo+3II888VqXx6RzznEFvvUbaaw8OOLyor4ooouAvzxxyQA40FDwt4oo5LKkFmWfECWecBReksLoFw7E2oYkqxOgaDbv1aR16YioJnhTLNRcmEmlq8Sd0dtrHHhnteaQHCUJQgoy+0MCxDDHK2JHHaAIOshlnhlyChB3EEGOHCZZMSg5bnMFwHLngYkYSJXbYwYIS/kJAQo7CEAO5zEjkOGwJMOSwBJdkpplzzm8sU4QQPjYrwobPXhBtNBdwkCLQ1QhtbYpeUSMuCh1Qaw022OybgmhhPUPuhuVC+2xTPkU7IYUNNpBhDFyukYqZZaJ89hlWkVE7GWakgcY8n8qTJplidllvkDwIyQOOOHTFIj/icugs2EuX85SFIsSY45Jblmk2WsgR6sZaa8WZsPJwJl/IW3rgaucklUhiqcRy5zk3J3XXbXE7e2Asx4wPJBBhiCTSTEyMM5bqSw5iAAYymmcGZqaUJD44MgkeIliSBCXoIEZKt+LiaB1m6PBB4wz0UmKOSSRBU0wyC5tDjjTlqASX/l2SeXnObYJhJI8vNuusak2tPlo1QvXQgmj++MshuKQ9zQqIehr/jEMDGtSAT4djQWhUwCkXsCAFW0PBBkBwhDrMgha0mEUpZiEMrTCDGehBTzGEQTdkSONU6UiI22ZFCEL4IQ58yFUWsDAF/RihCIIjXOEOVwQnsOkTymjGhCK3ICNWaxzXeMY1riEhJl5kcxrSiDpWgpKUwGNENDmRTeJhLi6qaHQ6UV1P2PEifryLHGH4gAZEAAQlKAEJSKjd7RQ2BxA+Q2AD08ozmJEJJBgpLDxoGAS6JIlitOUtFIOLOtChDCz5gAQWMAsS6KAJTYCpX3MYjCToIAcxLAEN/nhAn8vWx41fKGIQX6BCEYYFmtAkJwdRmEIW8lcoK/APB8bpzNEKWECkJRBnLrjBDR5Ig+ew4AYsoMENhukCFJxAmiYwwQYwcKQ6RGJM3MvEMJZRDFDg4hOW8EQnzIketZlnOy1kRjFu0YlCDKIPfNPN36KQQxvkYAY91FSAVGCEJcxhEKAQBjMmkhBpPeNsTTzIgs4xoYo4MUMf2U5crIhFD5EEJeyICT1UcrouziRdqSvjT9I4FG2wsQM74MEOgOCDIQxBjkhgQu3mUAsR8rGIU3FGwS6BBBDcawk9KAEEIMCBJFQiGlPanDqqNIw52GUEHCgBCZYQCUx6Twxk/kgDJ8tUhzE4YZSv2EUw5jQP9u0iM1/IT57oF0sa6KeWeuiDblwzheBYyjTEAY6v/IdAGxTTmFVrTmERWIMXRFOaJzBBAxzbAiY44Q1lGAO+ymAJTtDiE52YhCc8MQgYEsITt8BFMVIoDXS00Bl0wwwgADEfXUlqh4Lzj6U0VSwXGOEJb6jELUB40OpQaEHQoly0JjQRiTLkIXDx0DrUkVEslkSMIE0R6UhkxnR8Y10bYYeMUCqEDnSAB+Nt6Q58AIQdDGGOSZiDLYDkjCAFz4/OcGIzLKGEvYwBCSEowQMMmYRJMAMb1/lIxT4C1SHsIARUDYEYKkEMYlyiDWMI/kMZ5DAHwUQiDWQY6y/MetbK8IIQcPjCPYflwNDYAAdQqIIX9tAHXFIBrzmgAc4SeJz+9c84xcxUMTlV2Bkkh1jTPAEGGuuAFBDhCU9YQ2UVMwY5TGISkaDDJ+NgBzt8VrSvIG0y3uYNuUFjGbeAYXxqiAUp3IyX/+GTAiO4AhbMwAly8MQnHDORx1WLcnumXEUoghFYJYSK6ljHuKRLLuqey7ogMqOL0vFoSKfjpPxwBXg/oLHyslRjLlVCEiIxjB7Bt4jwBVITnYgN+w7BY2JIAn8fMIEPALgZFIsLhyqKYAWXoKpj6OYwNOG9xJRhTIWRAxrqgAdF7EJO3EDr/i5ikZkr7DCBn0ExC3LwBVa6WA+8scKvPIPAw0rNf//7tgrALeTP0GAGOAuNYqlJTcdiIMlL5sIa1kAGMihsKZTddx3sMIlOHIIQgyhEJ9DjZVZBAxrIKEYsCrG3GvLKlRCkeGg8lTI7fMIWyGiGcPn8cco9Q0oSGkfmGCIODXmIHoYml0cTjSLSwaQdPIn0d7rFkTN6dx+rCAJSWjpeTGMaCOqlwzBECF+DYASKEh3HMzYRBOaRIQkeIAABYJ0ESzCDIXG5jlw2AtW7hKACJdjBGDixjGgIQxNzQAyUOXlhOdgBD4wARjC+wY27b2MXsMBD/IxghAS+VTQ16EIe/nizm0UBBzmHTeCvPlMDGl/qgZhC4Av88xl3vxvejnXACGwABS6Efg1f6kuYLCuHSFQCE+b87CAOMdqDJ9wZDCezH+bTm+K4eYGgWaAKVoACFzDhC3PoBCiGAY1mgVz5II9W59DhIad6iB3y+JBHP0R9mric+uHSqHRn4pIt6oSMjv5IQlQVnm7oXBU9/8B4gYDeIKA3pnIEg1IJZtD6Ml2RTLSEgpdAhoNBgOVRgklohgJzLkLriGFIgyDggRC4ALJDg1KYCrUDtk16O39LBEWQhWVDpV3wBD+4AixQM+WoNhxQA0JIhC+ojysADhswN8rbK2/7DGeigRcwpm97/isB0bx3w4B4a4EZOAIocAIueILQAxnx6SQpy4TMIq1P+AQYAi1C4DL0cBu3eZNbuATDsyGicaUaWIGKqxoJGo0ZwAI6uARQIIYoUSiRC54iUqipUChrYUORK64FQQeU67pae7SK6pbs2Ajuiota8zqfAIrtuLmOQD9FVCHzSAgZkZH1kwAN2IFOSwJLnCMlsB0wsATgcSL6OjWmcwv7Gq8lEAMk8AAB1B5LsAhBpIeKWYdzIIYyuJ4tqQAeQIMdcYZoIIZfSxMx6Ko5qIO4y4Nk68BgwIVC8AMvGEEX8AwUcyAbuAI84AVFiJ+f0RkwxBTj4A/UKCD/0ZnRCMdw/lwsFOBBH3SsDWgBIjiCI3iCITRCLriDTJhHTcgEWoAwCBMGfUQPzxq4QfhHT3gFXDghhsMFW/gET9gbEUwz/WAz3uOT+YGm0UAc7uEEYigbPyqiKMmKZmAGIIkv5YOcg7iWUxEuaVEucZCGZhG0j7Ac8HjJFqIIRlShFmoVtFHJ6mgVafAGZ3jEogiCCPAAIEAZTfwLxcCdUoiGT0S1qXCiUByHZqgEHhiBJDBFEkjFDlCCrIsIjOiIc7iGUhgDBduSCJwFqVAGXowE/SpFKDMZuVOEupOTYPiFZ4ODFkQsZ3xGTcECPEiE9YCDVoKlWAKNGogCKUCURcmlp8mB/hcIkMVirMfUPAdoAAZogBRoDiiAgiWDx9CrA1sYBn0cBm9aBtI0hn0Up5kZBD/wA9UErU64BdjEhVv4hEvAAziwoV5pSN2jOAWCDk9hgjKQBIIoqLERIeM0Th5ROGgQoeWEhjhEPjZ8w3BwBmlwhjYUOZXETuzMTjq0TrShTupslfBMOOZ0TmZQOPj6zrdZzkfch03ggQ7IgCG4nTNQmNxZin6ZQI98L55qSpFzImaIhCCINScYCwE8KiRQKuiZGJ8Cg5YiyxBIA1AgTbTkBEtIAzBQglJEAw6Vu1iQBQ+rDHCQhVjAAy1AswPSS9FQgSrIgzvAA1LAgysQzMF0/oEcQI3XiI3WuCscyJQAGY3I1DzOG4EgZEfNdAImCD0uIIM1OAVkMM6y0UhjMIZikE0oVE1c4Zs48ANCKAX1KCdMwIP4WMafwaes0RQIagE1ZQEjwIIo0wTjM061WYZkeFJmmNOyIZtlQIayWQaFI03SXE4ozdMnBVQR6tOFu9M93dM7hdJCPc4nLdRCNYZh4FNL5dM7VRtkoNKy8S57gITYAYEgAAx984snyx1NWIYeCRhWpQqlVEpdnAMe6BImMNAlCYEmiAQQ6qk+Cp5lqAQH1RJdC4ExwARhEE1QyITuAQNLZALFQAM7IIQPNatgCIZdkAVVUoMtoBR2U1EW/oCCOHiDN8AD+GGzGqWBw2QUL5AN2NCC1tglnVlRIM28BnAAByjSzBTCzVRSeyuFPI3SsdFHYpjNK7W9LoCP+JBCT8CESsADLIuDLsACSfmZ3BPDw4EgT3EBJxCTSbiEWjhWYbCFkBVZfSyGYSgGYhgGYyAGW7AFYtBHmH1ZYZDZmRXYfYRZWrgFWphZYgCFW6iFn7WFWrAF2NwgDpoFYvCgWVjaeeygpS2FJ3xCUJiFTKDaUsiET4DTTCi+WWjPR/iADggBIGiCsDBKMXCCrVKMVGWGYWBVH6HQVW2GYZCEDyABJFiCJHmAsgCBpLIFYyhU0lQbZhAGS0CCHiCB/gqAgAkQATKohFLgIEzSJlOUo/+DVkWIhbKqVmvF1kHogm01AoeEpRVYAU0xgjf4Ai4Q1ycoQT65gRtNlNvQg9WwAnftthJsN8WapgZIR3ZkR3c8giUgQtGztzUoOmSA2WJI3pbN2c3CjEGQD/2BAz8AhH/MGyyzA/ngDRuS2CqYAmFRDk8ZjRqNoBYwAiYgAzmgA0uwhEvQhPW1BEy6BPi9hEvABEx6X/y1hI6dhPflX//F30mohEqggwCWsiojYCmbMio7YDM54E+6sDqYgzegMmGUgzeIYDqogwy+MGitgy8Zn0csh6+lALGdqfWaIzpCAjG4hNAUTasYhpSF/llhsApZDAEjYYIRgAACWBIREAM68CCjrQUh5gROyIRIUAIbvgDFDYEkSIMCjoQ6EEYxGAIgQAIoiKxxxVzNtQxZgIXMOFHd2xMHYgHSPZYs+II4+AIjMKbAa0YVmwL8IZQ92AP9WZTgWA4wxF0gPYENiDN2VFLO5Fd7G4MLpt9M0AT6lV9LEOBJcNg8iA81wBU+mOQ+yINB4APDuw1IgRQs6OQpkLhhYqBiwRrDUUciYAK2RIM0SAN9WeVVLgNWZuUxOIy+OMowseXSy2V8Cau/CN6zdYKwCF5gXoIloCNLvMT1OuYkYAIiQOE5IoI4amZoRgIiIIKYmj85IoIQ/oadChCBTbsejYGpoRuCq6pHTNIE++UETKLHVNCEqx2DulUCVSOAAbC6EFiCNKADkpkyT4oEKUsDJSABDoAABJiAEchEyqKsfAMDqSICHyACI/gCPIgFD4uMaQgGEo0hNfiZ0BVMPvkfKoCDKnhBF7i8F9Ch7lWNPeCDPugDOqaNXBIW3qO2dsOADVAyJc3pnGZS4rW3L+HQMuBQNMC3J9gqMuCCTq6PLDhYPgCEPwCEPJjk24sU/JCxp+kVI0AOFKOfH5uBhzYvcfYBsR66lzqvIRBr89K0TVvrqcw0TQsBuIZrEAiBuZ7rEYhrECABvdZrDujrvSaBvP5rEvAA/hLIgAywgAwo7ElKbL22gAtw7AuogMPOgEc0hzPggA4QAbomAbjmbLoGARGYnTW4ME6agzbgpC9hijQIzvUVA4F2QA6oOnsm5zBYAiZA5btFgsTYsCHIC71dgAxIr5hyqXEeghGYaxuegSfAA1koq8jg4mfrG5uBoMHMxmbMj1h6IJyJAjU43StwsT54DzpOzBlrxl1SjhZAAeVegzdg755+b+Idg57mAiIYuhG4byAAgfuWARBojr+TAizIAjjggz/4Axh6DzjQAhGUMVr6ZBkrU612IIqLoOfYAMOugArggArogAqggAqwAA2fAAyfABIvcQgk8RKAwAso8Qk4/nESX/ELWAAKIPEFePEVL3GjyvEJUNyCZvEF+PEFSHEgZ4Afb3EgXwADOPIfX/EF8C5yEAJJ5AHM9nALqPIqvwAN8ICDjqNnxkR5Jmtyzucl0HCBngB6HgAIAIEdGAERAAEP6AA39+wqToIdqAAzHwAEqAA354Arl+y5JoELwHIKSAEuyAMQjZPKwGgv7twriAIjoO7J4xSsifTlsAEsqIRZwIO+iwNAaOmXXhQdSJocq4EZAMInSIM7oIM7uIM1cANWj0f4hm8uAHQ7L/Ean4AFCHQNAAE2hQIsiGQDh6Gnng8RnAKKdfAb6kK3iiBmx5SSbsyu2YAg3/ElIfEc/jeqElgAAlgACOD2HC/oIFfyBfAvblfyhvnxJC/yJTGqal8ABBD3IydyeFfydxfAeXdyIfiADBABCyDxGS/xf8+A4wZxEOcADcgADbAADNeADiABEQgDN1CCWkeAM7e6xM4A5WH3go6ACfCAmOqBCqD4Ha4ADaBxASxow86AGFeACNgAKmBu56YTWViPvmn0m5nwCZfw4yiCOLiFYjgGaqBGQIiDOZbdRyFvX6GtJ7iDRKAEp1/1O3B1qF8DVre3MliDJZXveyOC7OH4eWeACxgBNq2CK+D0YP+DuvIbXukVWurk7jUxivOPzvCP5eCaDXh3d1fcbc97XIf3HHd3/jM/dx+H974v8hovclyfgBlX3Hlv/CNPgJOP/BJI95OPEX54cg34AH4HeGtX/AmwAA9QYoJm92u/diZeAySwc4IeANZfkg/XAIJekpM3KoTxgRC481Qcfd1X/IOPcQZAgBYo9OZG9Pbp4oGL2PwoApyH9FjiJSjIg43DBnz4B70TUz6gY0e5K6LRrTwgBVMwBVIghVGghDsgf6i/g3qL9fRfgyeobw9Q+Xm/gHS0gSLAAi8gcND6Az6QXUgx9nuiJYCggmXKlChRasyo4WJhjRovbDSswYJFiw0bGixYMAECR40LIGQMCQHBAgQcRyIg+RHChJYTQsKMKRNmy4w1/mOSJJAxJc+eKQcQIMAzqNCU/I5GC6LhAxAOEyg8hXpyQoYMG09izQqBAxIySihwHCBWrMmrHB/wZMlBxA4SE0oE9dmzpQaoNjc8wdPrV7BtfoPtikWIUJwrVYxAfLFwMeOFKh4zXIiFUi5q3/Dp0/cPHC88Xfbo8dLFCukpUN6QAncM1SlTpF6PonQn0Z3atdfgzq17zRMnT34TGZHhgswLG1oYkXJFTZc4fvjs6aLFChUc1nFEKUiQShUpUXI0ZDzDBvkZM1hYxEA8KEedOjPqRECgpcmTESJodflyJv+dIeebJB9M8r1XUk9iETBASgkkqCCBBiawz1GsBCHB/gc8VPBUSyVgNUFdWnFUH1YZKOHEEBw2iCACEaR0X4gpgURBCMKNBFRPINoV0gxfJCJLMH1xA5gssXgySBxYGFTECzQ4ZsNiKjD2GJQ01FDEF6Uc44w77WCGDz7f8JJIInqEloUXVlyRiC7UVFPNaqeUUsprpIwSW21u3LGGG7vlRsYTR/xGxhpccAHFDBloENIEF5zAghFVXJEFHF1QStp1ODRUhHdSYDHQFFWQp1BjLtgwQwvobaBeTyyqVJRcPN0n4kmK9tffSCGelNJ/r/LKE1k/OZiShPuoAsRSPHTAkoYdStUeAazKJ2sFQyyxQwUQpBhXtARgRVJKF5AA/kIFP7kaIIwQUABVSgZMQEQer+zyIzdB7jLkYHGosQViELlApagLOQllQ0zSQEMRcZxSTTZd4nMPPv98A44io3nxhcW8WIONNmxWowtrrJVSJyUj34lnnrm9gdsTTfxGKKFvpPwnCBcwoBEGLdhQRBUCZZFFaZjWQAOmRWjKaaefhjpqEeexkEKqGBnY609DpVQuSiDVmjVJHeaEE08JyBX1q2D3JCE/qvRgIYYtpXvSA8q+GC2BaXF0wQ5J8MDhWCpui1/cEVCQAQcVlKQtjHSn+1ICC2QAxbvx+rUNYLHEUoiRalCBWNAuqDDw5otF5G+VeGDsZWZemo5PNolU/vxFHopYY83GbB5zTC65gCwyyXe48QYXt9mWBxdMHAHoE1ykvIbvtXFxhAwbLNoAckVEIcXOVhRkHXjWGUH9FJ1ewR14iC32gkIToYeBejuRvaBcwb5abkYGZB1SzSFt3VFMBXpbdUhg76Qn7YtaRo6yj1TwQAM96EEHXAIWZhFFKEQZC90swAMkiEBve0NJT56Vq0VlIENVcxAHJ4AAtqVrfh7Iiyx2wRfJTe4VhBgEHLRQhYN8jgYQgUgNQlUD8DQEBznAAiFygY3M6CMfSMzMP/5hjUS4ThaxowYVqegm27GGTiKDhG3cgCc8reE2TijeEZjgBN3kIREwq80b/p6AQQxkoAU0MEINcEAQgkjhUjjoXhG+h4UsGGYK1HNBDwmpkBacKgUYgJrXeCI2qR1OVzChX/1oUsn6STKAYdvHPuyxCQb2IAQdSFfbssKioABlbwMQAFC4BYEK+AAJIaiRWFjpKgly61wcqUCGanQ4btlEP/sJHBQI0UK+/OgXsoDFYOAAhyxQAYefI6QNHkKeIlQJU9apQRXwUIzL5COc4dTHw/6xDV4IbzaJAAc4qiE7K9ruFFqsk53uVBvazOYOzSve8QSFMuXZBg+1+cITgNAC81ApO1SgzhS0h6kcGIQKV9BC+KbgHWxGxEktQEH6GIm/r0HyVVi7JH/2/kNSlUjSW4/soCP3UY5yQGKUIxBBVDjEEbNEIEWqHEtRXumDIZAAW7Xkm6sggJ9zkRIlcbnVfJT1FOJkJAIbwEKP4pXMwMRCEYSpYTSD5lWG9DBnRIsC9XBANBpU4RWWwYwSmRixMB3hODe4wRHywAtd6KJN0bAd7ua5xTrdk56juAMZm+DPlOXpDbZZ7B0wgQffQYGO3iONz7KnTexMgbIVNUjQyDORFIBWfVAdkE/EVi5YvchrMtGVUFbb2lrJpX29Om1L92GONnxAAiEQgQRKoKGW2EeoO92bUFhSgRHwgAPy2SmBaGtUdEmlauXSD1Q0FJINcEERu7DqL3bR/otYwEKGfoAD5oAWEYaI1QjdIyv1okBHLOBhF9lo4sOswZlEcOEGGXAAf+cqgxYcIRG4Q8WAUYEKOlFCsAqu02vwW7wmcAE3MFPsG0xmG0okghJ42DAe8vCGLBwGCliIFBUKEgUholgKmbUCNJPUw0M2LbQYoMBH5Sa1otBWJZrU8Y6HsoD3+LhwuwqpTwhgAAO0D3782Ac52tABDciAAxKASoZcYp8IDjdYE6gACEQwLgSoEsdFFhEFSgAWMNvIfxxJXHVLMgEZ8Gi7v+iuLIa0iBnG4ZldbcgOw1MEPrbXO0nq5iV4YehECO8Ih9KAVOc6V/46IAEyyIMuWmOK/lMYmE6w0fScSHGKRJxisE0wXoT3pFjb4NM2CB4FJjTcYYtVAQtfCF93TnwdhZKGoWQlj0ZRAFqLNACqkMRlggz3qgdIcChBeSTZ3PNjqr1PzM1mKZr3BiyeGICT5AiDBCTAwDJXF0RgpraNSVKBqpgQzay0kbFNQhSWpMtXpc0IlV2SkQvM4A2v8BGd6xwLRuA5Dl6IJjUV4tWc8TEKN0zSn4uABSZAQQYyqApxDMAA6bUgBQ5gQAIUoAAEKIAAGeCCp+XpmlPIc04oX/nKc5GIPzUBwlzwYhjvmc/FJpjBDU5Eh98w6yxgocQ3RLFBtlPi7AVNBShYutPUF2xe/kWQQEMVywNaGcHivi3HUJcutK8+XFROEJVZbuVYjrLtDnRgBKNMnFk2shEip2TL6K42T+dWNb899y1nHrcjPfLbmhBAAwE+5nbrNSSAEyYOWohmDvpsAyolXFMGkQLRKm8qBoBcAUc2QAMaANqNK+ACGmCABupiQg004Q6kMAUvSo5yT7MG5QY+RaUJC6gjQFhPtEm1gke2CZ2nghRi2nAe8uAFQAaSrNiZPB4N0njOgRYF6Vkf14ld7LDzFCgC4BaCro5jbSnIQQ4Se/exPPbzT32VwzV7GDSwFg4kNStP4WBIX5kBCgArlezWliuxtea2TY257IcDLQoEaAAQ/sRXvQDGdvlbVg3CeGHOdzCJV+nQWG0KWQEaYlRERnCcAjDAAXSeA1jEBlQFHFWFBiAKCsoAF+DBK5ACL7AcpqGCx3gMgY0CF4waGUXYHbwBbdRJIggWEAqWFiXCaygCh8GBxVxB0NWaQRSdoIGHk7CArzlNqmycdO2NLV2dAGzfTnWh/hGX/vkEu5Hd2OkU+o3dunnhUbiCEKDdCOidWUzF3kWSXNzKuV1ATo0FF6ZZXAQFfvQf4NDf4ZSEorhEBgDBHeiCN0xDvcyZkFCOYMwQHFyBd7yYQviLDSScE/7ZQWjUIjWA5nncAZCiA6SAeWyAB2wACGQACbaiB2QA/giMwBGsAajNngzGIKbZng7qyWwsmM6t3g+KiZjMCc91WBIeX0VJwQU6IQ7QwJIoHQqcwAiqBwPkFPkRgBZm4yplY4pw4QQNgB6uW7aUoVCg4Tmi43Cp4QCwoRt2gAiQEli4XXVdC7TZY4ug4LU0CBdyodQVRaxwRATox7b0hE0EUwcAgRvswj98SeG50HbxwjIhnpFcQUEAUcEMTOW1F3sVAXjQAAuowEWEogKAYAiK4AbIgKIBgQiMQEqSERAQgcQRwcyBWgymgjxhminsEy/WRs4NofCtnmsIHxDewSisnvAd4TF2QRZQVIkx3IlFhJQs3QlMoxViXpZtHyp9/mEqfaEakl+WFVs6iuU5ruMeLpkrVMgHfEC6+FZUlJnbDWLV8MoFDMcIrVJWLtcAMJX80UcA6spLtEQF7MAa5AJDPgw7tZBDBgYsGELAhc93bA6VQMQmOiFEJASTOE3nfWDnNYBFSJzE3R6g4EbvqAwOktET1KLrsRxckZFouoEPGuUoFGERrpwpCKUQGuXqvcIwCgIg5AGlNKVTJokQOUY0noAJVCX1hZmKRJAa2pIaIhsuUdBQaOFy0V0ZBsvXqVJZomODEMBRrAIQdAAIhEBUmCcp9WX8yCVPUMUF5KW1VQ2IsIRTDQW0uEQFrBAvXAY5fYk1dJdD+lt4zdB4/lUkDmFkZzUcWRmEEeiQDeQAk7CAA2hm56kPCByBy6xMbrxmF7mBy+xk8XABbWaRPN0BERDBgwGU6h1lKtwkysGgpwklnRRhySnCK+zmveRZMnKHRR0ENnGO0p2ANJ6A+mDAxhWO2HlnUGRlgrDSVnYj2KWIXLQbucVP1IFf9nVnVgrAUaANBYCAW/xfmc1nS6AF3K2IBmSIktbdT2AF3rHNm85NQFLABygBJSxMEqFOxIBD4QXovw2GkRSGRWKk6NjADzihe5EKrxXMDYhkCMLRCCjPGt0TPiWChWnooJgmiNbiyiVCa0KYYuUmpuEOpuWibc5JqB6YjSqCVuUB/h/0wTMB3RRwB2cpxAoIaZASqXoAJgLIVgeBI1h6ZU4ZVUaAREt0QAR4RDBthAd1iBxOQC7VRwdBALL92FduZzZu35KVQg9EgAd4AP5B1/zdFItw0H28jf89wNuYxLl9mU7hGH603VW0xAUAV30sBRAoQepVwz3wJ+r8Qzb8ZyzU2ZDAwiJM5HgtnoGGig7VkUGY1cDQgHlUBKNyJn9lwAesoBcFllFSwmuYgoGhgmzcgcimTKZeqIrmQWtCAfKISYvizu0MWIGZgpx0WinYJsqpqlYNAh88U9BhQRV8iicCKVVSJQakivqQkkBSAC9VAI1hoZJuo/rVUoKg2Qlt/lkFkAAHaO3Wai0JZK3WVgCaposGWEDZZm3ZWkAFXMAFkBIvXYAFXEDTUgDawi3+vWeWLdknaYAIfCveSYV5YguMsMiWLS1+oGc+mlDY/SO6eAjTxu25MRqaeoAMBIEb4EHCUEM2ZMM93IPmzpfDmNN/DizlwIKfPmCehY/nbE5E5EAOdGQR4AAPnUdFIMrFOYBxgObvqBPs2c4x5BXHDBaCdZHJXigX/MlpAlSdiCrM5gJfwWxrvEac2KypksIrrKoi/MEfTArQjRgVlJgQ2cDQEi1yHscIhMAHtCL6xuL97cRdShCw/soJcQAP7AAQ7MAOIFf9AoH93i/+9m/9/vbvEOzv//LATBXwCPzvDgzBAiuBEiCBD4wAB0CA1KojP8BUB0iACKzlVAjT3vlNBGgAeYZAD6jlB4QAK1Jci+RlcVEAB5yvCJywBocAD5RwEJjBKOjC5uKpl3iu5zbRPZhTMNAZMCxT6b4CIxjCA05KRWKKZB5cQ0ThwDxexLYAzURAAvDXBszAgwWWDOaVm1RDFVWDbIjMHbSBFxFva5IRFNScUabCxxoY8zIvKrjGzM7s9L6Gqg4Gz3aBFyzh0QhS0CzdrVLlBqTAESxBae6viYYACRgIlJ6h+n1hcZEADyQBGIgBJotBJnPyEiRBE2yyJ18yGJAyJptyEySB/hM0AROIchOQ8iaDwRiUQRqggRzIwRggwQ5oQBqykgU/QtqIAAk8kDxWV732nwbwwBA0cAMjQQMLMN/i31PoYStFAAjgaxMgQczFXL5GWGrcgzjxZ+c2TOdmQ+xobufCkBD3QhEXrFb5QZ6pQSV6pApQiQuYj+hkVHkgkgMwGl2iJBCAqJiMQioYWF4dQ5u0SS54zB2wge7wTocSihqrMWqCalB+rBzfDoHlAsrZZikQNB2znh4PAiDAgWggH3dg00emACEP6QawwBHgySn0VZ4wwRCUp1IVxXZaXZRCQAgkQRrMAR3MgRwMtRykQRnYshwgdVIndRoodVErtS2X/sEalAFSp8FV2zIdRMIkVIIleHUkjAERaEAks1LVPYAFO1kHJBebrZl+4Aq6gIASkIEZ0LUZrMEY4LUYDIG4LIDoJUpWRgAHAEETeFFh24YpUMM/ZMY4kZPmmjPqkLM1fEM2RM6PBMM6w0Jm39kk1hCSAFG/LEZKSybDWqZ5DIHzbPGD4Z4bjILsIfQVNW9sh+wdsOjIiOyeuIxEAwqh1EZQyh7IajTzcnScXNpqWq8ikHRJqwHQlVgRPN4gpwDRSvchv0Fru1M15AIPOkECrad0RbL+FRcPiMEcUIIlVEIlREIknDd6p/dWt/ckpDd8u3d6SwId1DcdTAId6PdW/p/3JVwCKNBCgH8CJryBEjhy1PphXPADOZjBB3TAB8AfVDyQsiTOuUQAEJCBHEhCfUtCes9BG7BBE4iABkDA+sqHAESABBC2iKICQlsDQ55OwzzMZGcDNpgz53qJOzj2NnhDkPwCMGB2LCzCnSkxJXaHMzJJY0SEV72YeZQR8iQPoXRoGKgeyn1xm/guzNZOLigv9ALWYO2Jnnioy+BGUXqs7L0s82IRR8/sbxsYL6wqIeBBHPQx0DnsgzJddB9neoggCjzBG1CCKRz0MaTCbFBCE3xAXKYEd4rhAFAAD5BBJWTCLJRCJlyCJWACJlyCJnh1JWDCeWc6JmxCJUxC/qmb+qmTeqlTwiRYwiVkQifcAi3UAjHUQi1kwhscAQlIHfzk0oKHwYOLgFNsxDBDgG/xUk9oQBCsASVc+shYgm3fgRiMOF2GgFUkAAjfQTZ8gznTOEPegzl8QxPReA/XODVYw+ZC9o5vw7z8CGYXbGMOwgP68TI2XsAATL8ETSY6qBEgj5nLqJjYEynEHl69du3ogkIfQ518TBY1GJjnSZjrRm+vngxitBzL3s2C7O3oMWF4weJNgQ5gykKwgHSbwEnyFwa8NBdQQsK4Eym85iqkwhp8QKz4avYRW9zxwBhQwizUwixogiZYOqZ7NaZjQqdfQqYP/dB3tdJ7eqdj/nomfEKA20KA3wKB57oBbB/f+cSCu+GFcIAGLAvj/taLHGAZVEKla4Kru3olUMIYiADbZsAJL0AEfEAieIkTWYNlaIM1ADHneu65e+430DgVnTtkQ8w3+AW7BwMRy4LBwjsEYoEUDIw9Mwa/UFPB2AAUPIHqITxeeUynjcLH0l41GFgYs4kV5UI1vIbHFNgpBN8PAk8Y9c5r5qboB7ccExjIEjQcB7eN3gusekcUKh1oSfdx8pcJHEe+edpBV4MphJEuHAMpcIEEQAtPeOXVxecOgEEkZELPA70mVHoppL3aZ7p/+3emZwLRY0Lah3r5t7qrQ32sBzgtDLgcMAEI/syNH8rlPiSFhQCBVQDEhAkUJpQYKPCCBQgIEECoMKTMpVITNaXKpMkSpTEhKGQAMcJDBBmk8OnThy9btWrZslnLhg8mvnsstdVkSZMaNWv/YuL7923bNm5DgwX7BUwWLEaEBvnhAyfLlSg1ariwevUqDRc0bszwyuXOKV0qtVUrS62arlOkxKJCVc2aLlS5rKHVSe3YsVGkcvXti+pU4FSkRo1KdAdx4juJ9rI9leux37y5jvlFZQqzW799eb1iGqdLFitTcOSgoUIFChQpTJxwbQK2awcpoLyh9FYlqTVh1Z7i8iECguAMEQggcJwAceUUQoCho2lWKVqzZtGa/l4qU6lOnT5p+vTpYilN2MdPzHRx/HlN579/sj791qdLdZqMmHCceHKGyfexAiJBBCA4uMAgCgwkSCAOKoBgIQg4UKKO7EyZCLvzKhljBwoqGEGGAEky6aSWqqGmJW3uKekkfNy5iUVr6srmRJj+yaaoobgpKphdduklllgM+UyNK6SYyoWqrHohK61cYMGrI9w4hSxtbtLGpbjWSisXnaqpbMQRc1Jpr83cAsytwAgrzLDFEiGFzcACg6yvvIZRqbK+Tslsrs14UUQRQkBTg4qparghtdVWM8GBDU5wwDXXWqhtlFy6PGWNN0hxRa1RwpBBguEQOE4A45TTr6EQ/sSIZDzrannPuomoo266V0tZtRRYb6Gl1llWXS+T7aj7ZJZObqllPidGWEC/BZQjjh9WgpDgAyAyiICgAw0UqIIMJmBoAg6QuMOSiVIR95JMLgTCQBmAaEKXf0CUMRu0WIwxpnvstZclF1niyaefarQRR6RigYUQQvyAQ40sqojCBRtsMBIrG7SiYQYajOAiESitMYule2bM5h9reDnly5ZcpCynL9EqrLLK5hpzzLVMYfPMNt18M85otsyrzlzKzHOzV/ocBDQtSLPhBkJXSIFp2RTdwAFET2ABisWyrItSjMeqhpTDNtVgOPz0S46A4SAAYQk6LqHFFupWZfW9/urgbntVXdmexZRZMtE7u2C587W9+Z6wb9nC91nlWRE+uCACgUqo1sALsr2AwQk+aKIOSjArxRSJyq2EDBEo0ECGI06B6V19ZoRLymzMubcnmfDNhkqXvpHxm6KEIirHXWTpsU9C+AgtUIdtaLhIrJJEmotTXEoJLhan3BguF12s5uqNczrmDkqOGUZMXeSSK7CZS0nFlDtvPgXoXHTpS5djhHl/M5/rp0XoguOA44oppjpNNathWgoatSgHHPAGT7CUMKjRDK6tYQ2JQAX5RnGHrq1BBJ761KfIRioOJOE51ZlF295jiumoijrSsc4Io/M2XVHnPDE8z3a2c4tO/sziE5iwgxh2sK3C7QcB+2hFD6DlAQ0caCDVMogGMkCB4EwgBEm4Q3nOR5FLXIgHEiBdIlD0LpiIyCavsxfqejKj2unrG0CxRjBsdKOi+A54THmKF4SEA6ooKXlYoQENkHaDI7xhJTOhnvRapL0RnewuKatGBScjmS3JJWZ3KoWbfjZB+qHiGGnZUjTmQj/J8AwV+AteHOJwhYU9DDUsMBQKZJOoRG1gAy1QICl0oSXdgIWWgamgBU+RiCNoQAAJiAABBJAfskVAA0mQhERgBbfrrKoW0XEVLb6Tq+i0pxMyzOZ2yvWJG87iEjsEwgWU9cNP2WMTPfiADIADOQgc/sRAGWhiBN4ZAifQYVycEw+FNkEGHmjgA254SUxMgqJ7aIMarYMdQWNyE+u56BvcCMrueAfHWAzND3HwQhYCZcetXOV4enTBDJI2Ay6gwmOrU8nzvvExl2Bje3lRSfVysjFKPOkY73ufW44xQZ9CBmbsY1/9+jLTnaXFk7oQhpjyR4g/wIF/WIhCESSmghSo5qopOOAJMIABWG5gBlUjRfW4xgVcuokUiNnLMU7RBLAlYFn4EY4HljAHTcQNPSt0lQg1oYlyZeIT2vkbeDLxV21mk1c0DCcXiHABUjEErsSxByQ+AKAMVKAEDHocQTBbgQ80sSER4IET7lBFClFI/hNhEEEGmgAOmRC0oPoQ5PNgRK/Y/aQl2QDHLn5BlDYSxXe/W8ofngIHL4zGjjWgAVWsArGP7vEIUODCGkjxEpVG7yYzqpKWJhmnuliPe24wRU7HMhf5uWV8lOkZzCbovjgZNS/ti5NlTPEKzzgVql7AwhRy4DAWDJBpiFLUCZ4GVrHWckuJ4EIY3MCWRDAmMXzJBS/cIIMIaDBsCPCAEuRgCVxxYj21WM9pY9jXS6zHr+XK5nn+Wi5MrPgSl7BEjHmVCUvgYQ3j3OB+yMaQyVYWBB7oAAXeeS2BGGgDHqBAQyjAgzBQghT6HE+5SkEJ1SpBFyUhoxc/hg2WuOO1/lqGCb5mwhJdvKK3vyXKL+AIi0IMYhDGPa7/7LjHGrzABixQnvFsoIMvKOLBL8HXSqOH22/URSfHGC+dqKSTuNyhwZgcy07zIhc6wRd+QGuvz5Yq057p1DKXsa8i/pBR41KBCjjYIw0GKEBYOg2WLThCHsaKlrKCZWSEQYwbLIhJtt7BwqOKLAIywOFwcSITuDqP3irU7BOXAhMytgSLT6yeS9CQ2i2eYTjXQAQLlNOc5XgEET97RAQdBAIaCjKRISBaMahtQhXSRJQpcYYmnOIeBUUR6k7isZu0dIyxu9e+/gEORexCzRLNkSx+16eDhUaqOEguc/WoguXeQAcZ/odCxh8Mjnvdg3rVyxdLwOEitZRcfHDRpC4gnbFViE++kvrSTMlrmc3sjDI0n6/8XMaLUti3YE8hXhWKoFxVYnWAA/5qLP84Cl3UZZFm5aWu71AHC+piZl1zwxEuvGPiFDsNlUiPM1foHfT4FROYKMWMNZH2GL+9xZ24hHwMG+Mbv4EIJDCnZB/xAdKZO4kCOXIFQDAtBjX53flMhdrLQ4k7VCPf+jZJPmIrE+kFXMyym4m7rIEHWQSDogoP7sCGBhVTRiEHd9zjDJS36qRh/PUZ58XHyzIW6znUemrRBTjgF79KQ3oUbWlvz97rpbTIz73tG4utu1SnnuV0wkAn/gQg/NAFL+iXv0gTIIBPwEpYepXpXOBLl+7AhSc0eGaUoASa9gLlXiLmCJ16LAK8hQaxp4cYcJMmjLFjCUtg4v/+DwDTbgAJ0O1mrJtODBMmodtIANy8jiHIgQ38bgS05cgghwJKIFua6PCAgAwgIZ/OpyJIIRVIZoxAZPL0gfJAxF7+YSZgx7Y0ryTy4R+E5hd0B7gYruH0h3hII/VWbY9EygVU4PWK0I8SwV0GDWVchEpMRifUIpcmKJOoQXyAD700g6jcYqaY75F8ppF4ZguJr/dywb5eoRD+YBCGpwuuYL/6awivylBmo1GgxgRgaQaeAA9OARywJxGaoAkW/oMwoCzK0uo2juGCII0LNKBwKkAJwg7FsqNWYsgiYkgizgMA/Q8TKeH/NsEAKQETKiHtZow6sknG7GANjiADCuexyOEMJEACZEADAk/wHmcCNCDIGoQCgAAssiMTUuHEBkMXYARGUHDy8sEYC2rgWvBEMG8ZZ7Af8gEcEiEWwAFHeofhfIFPmAIO1rAKpKA0lCsIt0JituI0rOqAzjFpdIALBgrksOctXEJKpGRrwMFMgk8l4qcvII0UfGpMLEOmZM4uZi4twOeTZE7nJKMvJuTB8CAP+mAb6WgKpsAItALpBOhQ6JCrEmUGZm1NeOEOnkCBGsMt2OQO9gKTDgPS/tzgwWRgIYijAoBgDeigsKpNhqQt2ipBAKPNE3FSAC0BFNPuJwlQEy9BhOTDEuyAC5BgWkhlbI6DHMKgA5goFi9gAqjyIBACBC7AsSBAA4hADKDstDZhFFAKJYaRGFXwGFnwXtzh4wJuGVWwH+ISH/qEF26QzXSQ9HiQDanAG03jufiIYmZABYaQCM8RgTCOC6xBdlpCLo7By2oC6iaNfN6ikSDDDdrAMYSKvTJpS7ykpqCuGoyhpxzJM9GCqHzmFPYkEfCAD4Zno6xgYUyjUFipIl1jwA5oA7zKpB7sDZ6gUsJE0QjDFHIBM3IhrdxgN3KpCTxgW8rGA+9A7f4q/tpiLBSrExMvwQA/cQAzojrx4DpLgRiIoRag7SjfgAlCAohAhQAGgAC0QQk44O+wRfAu0Ba/rd06IAjMQOyq6CLwzV5UIvIoDx9W0BhXMEXoZSbYcqHg0h/ish+4AQ8UIRYYbkIHJo4AYX/YMDaVixxV7wZcgFBQwzARSAdugAvA4R9cUETmghquwaFmakyGE3s24xQQQ6jYh0w0o5aWTyVSZubQwmVyrqZsjajkghe6Bg/wgJSsDwuwgOiMYElWCQ4HqIBag6swAARM6g3W4AnAQnMgg000gzBIEDHy4A5MoZZy4Q6UQAPSbQfIoA580hMxkQD9DxPmNCN80ie1/nMSFtAnK2ESJiESKiFJ/69WbEEYiAGcjjINjgAE8oPHBiBUXCEINIADQqAC5lPwqsUDQMACGgICPCAIymDazOMSNgHyBm0Y8+G10NJABc4dXNAFY4dB/aFB86EaIlQRYIFXBwYWgicPjOv0VI1D7SwIXw8FbgA2EOUwS/REl7Ed88TLRASpyOcxxId+2IrXMhNHAwOTco4y3KdLfJTm6sQumoH5eo9+1iIRCCEPSElYqUAiiwCALBLAHICV5tAEuir8uKAJdmM4L8MU3GJCxjRNEIMUjsHRKEV0eEAM5AAnt/P/KgEUPfESe9L/QBFQAxVQN3YSvLMSYqw6hEEY/qLjE+0gDZiAcNgTOQRgAF4WceTpsgYiUyXnAjsVbNrtA5SAVMNyE7Sh3+4BQFWw3wY0LfWtXt5SzGrVVuNSH04hDghhV3kVFmRhKQohWDlqSFRv1WrA4ggFWVUDUW7AATAu47gA8lR0Y3zmHa8Hktgr59YV0tInRzWzp6BPXH3U0RANL4Q0ZdzWfSYNMFaTIfcH4haGqrTiv7aPSvPVNq9UN5/AD7f1Tl6mYNVv/SANEGuJCrHnDkRABB4WFAMQAC22Ti9xADvWEgI1UCOBdTnW/4iyOmyhbaStEuRAZZdsPRNgPV/2ZVXhWTiABDK1AixAUyegAnCWQSDgctrg/hLibUJMYaBgwibQEh9eh2hTMHVQMC2Nth9stWnjMhsS4QvygBH4hBEuihAKYRthMwqm4mEeZtUqhitogAVuoAVQAF/JNh3P1uNSKl6Aym/9gn3Kay6QCjAgTXNuph83Q6c885Csh0hLM5FSbqYgYyEBAaq04AqugAqqwOhY4L+YxlDg0PtgYwPqEAMaAKyOgAmaoMEG4y/YpxRIQf0SYzeCD8F6ChVIAe+coMMoATtRt2IpNmQp1idb93WX+HXTDjqiaYWuSFDlwFiGqXd913eHqHgx9ciwJVOrMgOGd3lBgAnm4BLGJZ9MwR1OAsxmwkRYcFUNlPII1CSe8RmL/vF7wddB88Ea7iAPEoFP4ihY9asKJE5+gXDVjAcFSCpZV6MIM04H/NPfNgZmuoRt2WdLeCqnxkSBMzNH3at+FPZvHQ1dVcZLJBgvqiEaeAZMk/RdQ4MNp4Do7JcF8jerShgFTGA1HncDGoCFR+AImuAJ6mAvBvZn2OSG7+ANFkOHae4yMIEMxCDs7BQTWXd1J+EnjZiJtxmbQXHupqNuCiuJcXcELuxlrziLe4ADOOADKuBaEOSLJ8ACuLjdQgBznpdz2EQV3IHywAwl3hgZ861A53igC/oYjdFBwTd880EbkhSQ+aRPBjni+osqJMZI+CgHoMAGSGoGNgCr7jdZjzHuCBLh41gCe7xV5mzOHaWQH+/gDO6gBCvpL2JuCn0Ulbskgl3E1jiTM17BlTUqC7BAXqnKYVwAl7Oq1V5NhbsKA0aACJqAC9xgFAY2fbyVMA6jDXite+zxu7bEONuADORgEuxUE7WTADUWE5P4EwF1dXGSJ8caE9aDVbxJnFd3DsQgBCQAAV62OLCYAAICACH5BAUFAP8ALAAAAABPAcMAhxIYDhEYDRUaExkcFhoeGQ4YDyMdFxwhHB8gFR0hDiIiHSslGjcoHDMtGR4kIR4pJh4wKyMmIyUpJiYrKiktKyopJTssIzYrIyoxLTozKCsuMyUtNC0yMyo0ODI0NTQ1Ojc6OzEuNB4eI0IqHkMtI0sqJUk2Kkw5LUU0KFI5LlczLks7M0U6NFQ9M1s6NFYpLGM5OEUcHTtCPEtDOVZBNllEOVdEOVFHLWNJPWFHPGhVPTs8Qzc8RTA4RUE/Rmw9Qj1CSDtHVD5OYkNDS0ZHSFtJRFdKRUpTS0pKVE1NWkVIU1FOW1FPVUxUV1NTXFVYWFdTS2VMQ2dMSGlSRmtUSmZRSHJWS3RYTnFWRGxZVGlXVHVbU3hdVXBLTVdiXHlhV3tjWnViW2pkW1FOYUpXZ1VVZVtbbFhYZl1dcVhfeUxYbGNdbGJfcVtlZ1dld1dqcWZmaXpmY3ppZ2NidWVleWpqfmhod3Zsd2d2eXh1eXFybINmW4VoX4pcZIZqY4ptZYVrapJraoxyaYlxaJJ1bJV6bYVtcoh3dpV6dJl8d5VqcqF9e4NXWnCBfYqCfZuBe5eBeJqBb6KEfFpsg19yiGxrgmtrh3FuhWt4hHR1ind3int8k3l4l2l6k359oIR8i4N+k59/gJx/hm6BhHWFinaIinuElHuMlHqGln2Sln+TmHaLknyZsnaOqH+gsoeFh5uGhJqKh4SBlYaFmoiHnYqInoqIlZKLm5KKl4OVm4aXmZqUlJmRjKSOjKOHhKSQjqeal7OalquhnYyLpI2NrIaGo5COppCPrImZpJOSqpWSqI6NsJCOsZWWspeYtZqbtZudu5eYtYqWs6Gdto2jqIykp5Kmq5Oqq5yiu5aqs5m1uI+usqulpLKpp6KkvKq4uJKjnaHAv52ewKCewJ2kwZGuypi61pW0xaOmwaaqxaqrx6quyaeryrCuyKyyzKG9wbCzza2z0a683rG10bS51quu0J3B0qjGyKjHyLPU1a7P0KLH47DW4MLl48Gzs2uBbAj+AHt0CKKmoJtJbtT8+5cwIRkiHTCAeIKmokWLdDwVG7ZsGbGPCxcaM7YsGbNkzZypVBkNmriX2LzJDElzns159HDmjHezpzub8YKGBGoT3kJ4SOG5c4eUKdN5SpUGDeqOptV/S5fGy6qVXdap8+I1zbouXTp1Zmm2W9tu4Vqu7syqc7dOndeFctupW5dVnV+0Z/vK3fv371l1ehGvRcxObzt26eK6m7v0LN+lV5k2NYoU6ljPSTeLbgevHVO2fv+ZNQt5sN7VZtGl86ZOpm283jpsCPLGjW+DahoGV6MEg0Qnc9hcxMhpmHOPw4oZI+Zxeslkya5Cg0YTGzlyV63+5uxJtGe8hWGLhlbaDmpYpZrXc51aj+r5hXCnsmudzis7q+5sxRV+cqX1z2WLJaYUZWiF1JhpaNlV2FJ1GWbWOuyU9dc6dR3m11mJsaUXO3YFFpJcdC1l2mVIbQWPWPDYFJ9n8zy1Xow3lrYWUot9GGF4Vpkl01m2oROhTB5gwJsbQPrmxhlAcIABEE7QQcccy6FBxybOfeTclx8RY4wy2Jn0TDRoRtNMMy8thI044AEp50I8pQdkZ1RlllRWUdk3VYBwBboUO+9w6FVZZqVIll0ZcliXN4mGhNiHHsJW4GCWGjYXpvx5CE9hmiY2WIQRpkPTYQa2c9lS8HVWVXj+Ofp0446m6cjWapL6JdtZqw05m2q8UprbQFY5GRyTIWHAARBn0AHkHJls5BExXw4z0khlZhceTNi8GeecQPZEJ00w4ncfTU6JFZZTXy1VTz3zoQtXZHGhIxs7u0qYDodo8YfNbJBG5tdaQAJmqYngpmYwqeoc6FenoFL6F16XHjoZvaxCxdScnSVlk1U56niaY0C+hmlspNoml6QddNCEk8YmpBBNG2gAxEJXZolGJbMME2a1YlqLbZlrrulMS9B0K86pr4I7VE0CCnVUVDcGKpSA+cEraIoV9ucdNtttB2dsREoomzrdBlxg13MhyitsPmp4sF317NvOagsnCpj+wat1ylrT4E5mGld9Vt3ZPzeBfKPGbPHI1jo9DkwTpR6iJVPDk6vTAQQhIfvPJMce2wQPGnhAE5ZZQgvutcckQyZKzTyjUjNzfkXe7bgHOBWO7IoWVX5bD8oO1nDthS856HyXDjloNuMRM81Eg01t2ZATbDprHqx3f4QZzG9hIMJtWWuAIQpxiZaVChuJkbFTz0L7hZSV/O68xSdoOHbs8Tw15UgrabUSEWraEp6FeeMftoEUpNSBjstBoAdeQIiTJDicggjhA6VDgpasNAerjMEMlfBEtUYoEupAj3Y0UUl4TBWSGDkNPeqxD52oBh9AQQUrW8NPVt4RvIWYbz/+rYFG9KK3jCFCgxxgW56R0vEMYzxjNmfrG1o41De4SQxFGlJHPdh3lhe6JVNvc0eGtmi3pjUtMqpqWlLkZBQYxsgz8dkTjzaDOS/+g2+Xmw34FKgOCMhADW/oHMxC1wQMegAJNLlSB0NSBjQ0xzn/oJZzjDGMf0xHW3JyBpD4Uif34I48MHqR7wD1IsBRJXjzotA6eMgVtwERHd0S4pqgEQ1mLANNzIDev7qFjmc0wxjN8AY0vLErDIFRLllM32oq5Jf6+C0uh9FL16JJQDndBYeU4QplqnkUO/KvhZuJY2YAaBpuquVugNGLr/BWm4B5AwIdYIjnaGIsJXwAAx/+YMIcOHglD6LBEqAY4QhHsoxcQs+LtOHKN+Xkk5v86ZRfiUc94PGuFgEOPYRzxxbXUQ/I8YWBukLHNGTyjGRExxjJKMYsViqmYhCDGcdw6TNkMg1sNCOl0HgGNJYYGe0VaGFUDJbxhpeht10ILSajoo8oVcAXboWAfArZQu8klTWuUU+mqUdiSkYTd5rqgAsBzEKCADMm+YaexIkID5ZgpbaiDg2MrAMnamGM8FBrJCcp0wvBepWejKc8YQkKUIg3H6RMlKLwOZdV6vgPQhnVXrPJ6S9BoYk62AEOZ/hHcuiQCU1kIhOX2MRKNTGMZ4zUl8mQxTBS8q+5ncVv/Nn+S12SiaH9OEp94rOiwTQ6Gb6UZWOB+wdplgIa98AQcVMNT3ziWLXJjGxg5rwKYIgJsAUCbDczK9Ygh/CBhYzhhdAqxjKuQp3xLgQ7C1nJSpCWNAQCa1VeTFxQSgmXGrJqLHC5zFzQ0oxMLAQVqDDFLGSxCU1sYhME5oQmNGEHMzQBCUTYwQ54wIMhJGEJZSgDHKyUCUxcYrXOuCm1SJsMaFAObn7DG2yS6dPyua1BXgQchVZElvlxrDMfm9rirBoyxzmmmj8+MZFYqBpinojIEAjCJCZBiSVL8KyfI05IzlCJtrbVKkugMihI0pEufaQjBX1h0rAxuaEI9pPmAZT+Vtas5jW/S0D08gpamriJOsChDGcwgxOQoAQlEAEEHviAhIEwhEIPAQgy8AAHOKABCUhgAiEQ9A6Q4IQyzMESl9CELLDlnExwqRlGZQ0Y12FHL0bXjlXB3F5qPCBw0Qh/MtKfjpRSo9DwqX4CBN9eBrMrKy5kJiFRghuaPAlB0oQMO/CAzcpwFTrAdSFLwDAaSGuVu06HOk4jM02s95++4k4sdBLQiwRUI3e8I0NsJipWtrKOZ9ACE2hoAhCAAIIOcMADScIABR4dgX5HYAIUwMC/J+DoCEggAgrotwP+rWgQgEAJILQSKGZBrWKAIhOzYAY2EPWhXvdrX+YLtcj+LQWZdJZaXrIlDKvop5WFttEq6sExjm/SMXUYpdw80gxTINcjk6FqbmI1WAJdVtayLtkNZACCsphlZbeGBAnRNkNoaSLJkGASXM7oltM6SZ5/IOUfW3HRT2rIoayguz5LUcczZlGHJwyh3hqYAE0O4IADGLzf/P43Bgju6L5LQAEHUIDgBd/vCkxAAyBwwhnKQAdOmKIWpiiGJTZBjJkK6fJ8U7EVRf02EmU+LyfHysAitCq/oDI8sjqc4r5eE/xlpZwCDOukTma5BCqwurlpApCWHJIx8AAD/1CCnOZghn8MAepjaLx4l0FJSIqkrk7TZFev8vLWryuiTsGvoDD+5I1kmKISTwCCvScQgYUcgAADIAACHKCAR0/AOMAPSQX6TXcH1N3+B8i//vNPgAM4WgPHtwRzUAmhVQyccAmyEExnEUWZkjc/5YA/EnpqASR0gTEdQmr0Iy/Vh1yKNTWg0TS1gkNU8yp0kRiTohiZUxuaRzG21wPZZRVH5xtNAAIUwAFKsE9NlzNLAAI7IHz/IHWcYElgEjSVZEdpU0Azl2Prgi5/8jtkgSDYgAp2UAZIAAQeQH51NwBaOAACYHeGB3D6RgEUMH/zJwF2B3gEkIb8d35sqIb85wAiMAEfYGGNRAeyQAuZNgwx8SsS2Id+qFyoZEY4gnOl9Du/U07++8UvfPENxbMvKrgaZxOJDXRA3jBSI5VAw3SJNMUDb0BsMFMsStADG+ABSvBsV2EGY+Bw3pV8nECEXlZe5ZVLyrAm0bBeSQNs60SCY5c/RWEfFMJKgWKCw3AJc3AGSgACGwB4B5B+adh/hgd/8EdwEeAAC5GGWigAWzgA/2CNBICN6KeFzZiGIuAAHiBhSFAG0XIJlsAJwWRdpcI3QsZxupYaePGOobZABkMiQAQseYMOTpM8bnNHZmE96fAvsnGQsJQ8DRQT3oANz8BLYANWabMdDlmRD1mR0zANz7CRa/IMypCRzaAMvuRLIVk0ydADZEBPRecbSuABo4gEONj+dHMwB2UABIKGBGMwBmhwCRthLUPoEWBmUFfxkF11e9mEFUPBejHyJ4qSX5rhDZqwBmZwBkPAAQ9wfuinf8mCASHAASEwhvTHhteIjdkIjgIgAN9YAGW5hf3nAMYBAj5gBhdXB5lgDGljOb0yG7ERMLLhTpDyL0gES9hgLw2JDdnQLdqWNoh5FVCERIjZLReJmIUJNjpFmQ8JDYcJmc6QDRQJNuSQU9lwkRR5mSnhDLJjmrHzD+zFkYj5kLOTmgsxizelDMqALbVZm2VCJsrAG03iJGnQkhrwAWMQk1Y2k2PAXcb3D2PAeM0xLZPEZUEJLpHpVTo0FK/Wi4SFGWX+VxrNUAd89nb/EAEi8A/55wATwAGJdk/KggEVUAHK2IxrGZ8CUABkOQBqmX5r2X96hwE7YAeaYCWyoAwV2ZqR+ZgGapha1x0P2QzaZhUbmVNJ85AXSZJZh6CJ6ZD/4Azt9Q+tWZFhEzbfQUzeYS8kSqLkIBMKaS/Ig0QiWqJogZB6CSmTeIuTSFNgk5EfqZEeqZEZuZHT0AOBJEgT9Bv2tAE88F1yMgZJsAMhwAMX9g908GE+8yULEYsGlUs3VZoqFJnAEjC6+BMwAkf2BRfAuA61cAY7AAIfEAIOQAALFwEB5wGJ5gFiOAF8pwDkiYbxWZZk2Y1bWAD0uRD3WZb++QdwHlAGm1AJZ6AJKJWg/0CUHAqZBzqZkmqYYxYTb6KYw5Q0O0WYMfEdX2OQ/9JOMtpr6UCienmqQAQZZoch7aBV7vMuGWIaEoVuvkUhjCUnfDUnIpWRvvqrPZqRwuZkT1ZWxPEBGwACjJeDHKSkQxACcLkQWrJpHvEP1QJmBWVQKaGlpvmYDRkwTGWd+bM1KjcZ3mAKTgAESjAEGBB48acsH5BvBXdwERB4gncAV7GM6Zd/e7qFAgAA/woAAluf4JhwEQACa1AHTmAH1kKZw2R7tpc2EJtAEnsiE8uQxCRMt7erVjGx1aVimfdxKCM3ukU2clGjCTQN0JCR2/H+q0ZDkhmZJtFwJmqSEhs5i8oQDa6TDC/jNG/wrBqwA+AyBkugBEzqAxfWSDzZEZHkJVyWDAWlLeo1tYo5JBtiO+pRboGSIX7hDc3ABkRABF5wBAI3AR4AAjJQbxGhb3z3d/vHp1pYnvr3jdmIjWcJsHcrsHprt2ypABMwBHDQBGWwUsAUYkMUYjplWt1qWj0amj0aOxs5s2fikNJnmrLDkSE2s80QNtp2NA5ZNKV5mpe7uWDjkDyqEhKqUytrWoprur5kmjWLJuq1JihxLa8zNNeSu7lrLf9AVyMhUMNQCyOke07jBs+6AUBgBsQZkzQ5BkjgAx/wAUqwBB8UQl7+QgxWcS3ZYjRU6622MUVR5SpOOSiAYQxoUGhNQATQiG/2Bo2Opm/91n/faLd8u690C7dbqLf6CwAFoL/1SQAKgAFEcARDcAemsAkoNTSws8A3JQ0miVLYUZLSoLu7iy0U3HxiMh1W4ZMDpbs3lcC3ELzC6xy1+bvN9yW0ELw9GR0iLMLCm8LDsFK0MMMyvFI2fMM4vFKyMGCyMHF3OMM0PGCfAApe0JsIgRA0gQbEeWXKuQT/gAQ7IGhJkJMZ4VKURBKTZF6vQzRAIkyTiDmronNb+1GH4Q3DMAdPgATyhgEZgG/4hgEesLYV4GgVQAERcL8DwL9cSL91S7BnmY3++xvI+puNB1AB+AQCZpAJlaAJs2AKsoAKxVAMM+wcI1wLljwLtWDDtCDJkazDsuDIAobDQDxgN2xxKxXDNuwJA0YLq2wLszAnOaxSlRTDxVALt8DKw8DKo5zLQFzLwjvCMUwLtdCTkxzDrqzJO5zDsnDLt9DDsiALQEILakCsTMZ7xKoGQFA6Q7BBOUh8ZUC0SeADDmdhHwRQ1boQ0VFeVhHBm8utlzoksoGBOqRNtgo33VkHd8AEOwB/hhzHbmwcGsCeZgifWsi/9CkA/8CFB/0PZ4mNIYG3+eu/gdy/A0uWBjsBSlAHZjBtC7YJpbYJpjBxnDALI70JoAAKphD+yjYMCiplw8nMwyGxycXgCQtRDDSByb5syZccwzyNyUJjwthrSddiLa44EpLUJZMEwyMkzLXAyjk8C07Nw88cEs/8zLQACp9AE29AzVy9ZGRAOsGXWXOSk0uABCAQAha2EJXACTZNddjaEVs8S9y6EqzLsRJCF6uyDvHgN81wCZ42B0BgyMYhJcqyaGx7cFhpjddo0ICat4FMlgELsJIt0ftL0RW9r/73AXCAipMH0lH91KIc2qQsybRwFZTMwgI1zF9ywj1z2pMEvAIFfT+9u689ULANSSn8wqB9wy/9CbYAClbRw59Q1QsBCrTQiV1NrG6QBDwQT03AzTKJBt/+jKQ+AK1MMMWXRnHQ4TNfBmZlAlOgG2IrETs1dYnk4xeOwi/6CBvPkGmyAAfJpm/GoWj3xrbKiJUiML8CexX8+w8FEAD+S7+CPOAEDo50hwFJYAdVsgmOt9sOnsOjPMMvHc2bLMMzTNpBfMMsbEerLTRFeNvO0ZNNrVKl/Q813NISvsq8vcNVTQs9XOLgMmydAC5fvQEfgARskIOmqJwh8XbSuxBlUAmb4LvX1hHq/A+5hF4L0ZHqtZEhwbFAYinQcAl1MAtwkGjs2c/xmiQIR55sWK/fyL/77d+AWuaA2of7C+ADbuAH2wZtEOQHdsAg/dIuTeegfYcv3dIPvtv+d+jTpUalclItPdnaS10Myezin93nVo3DBBbSz4zVwP2H4SEEIBCcGgQkztLE0Wa0IeADUKe0puDWC9ERKJXkC9E6KHGadB07sAkuyyMOw7QJdkgHQ5BvbpxvGIB+/YcA+aeM1wiojP3fZR4A/WvZ+mvsx07gFG3sbGkApLhncFBgB2Zgfa7MOuzSLs3KLJ7h1c7nn83ne+7gmWzDwRviMSwnTh3V2j4LJ/0JylztkD7EJ93uE1fnK3UVM34VZg0BTmqKaMAG0kp8ORkSTMBdc7gQZ1AHQ27k1ZG7ebW9V2dHqdqXLwENyWBgd+ADdDrfSUJwC1F3gXd3V4mv/g3+AP8AsIAaAMRu5gMe2QSu7JW9hXa3A0QwBItqYNLOCY5X1Z8s5wfGCT0P9Ck9YAxuCkIP1aEuJyCd0o+c0gc8C5EcElC/Unpu51D92bgMxM5hC5YswqRd2zqt9ZPc1One1JgM1Vd/w4iu7bcACj/sySHRCqPQCXRP95TQZHfvBvb0DzyAMxbxVuFR1tDbg9QLLa/8D0yru7m5szdlRxMrE+PwEi+RUplQlQRnHIYsAXV3d3gnhvWaf2e5EHrL8ow9sANrAAJgAAawxy+vt2q+twUg+gCbfgrwAUcAAkmACZrACdLe8ygt9A2+UgcsC5lsCqiAYLLM1Lwsyagww2T+L8yYTPYcLLwjIcnW4rvPicnjNR3GgAyTRAzZsr3SYBIQHP6LPyYUnAwJ3P0nLDQZbAyEDsy3cMvC/CVdPwytwApWQfdWoQQa8A8AAeTfQIIFDRb08eGDkiVjylQCVWvZMmLGKBKrOPHgv2YbmzVL5kwkNJLPsHmbNs3buHHixEFrZuySEgwVJlDAkLOChAkYJkyQ4EACBglBDxwgMGCAAAEACjyFCoAgUwEGrC7AagDrAgNVBSxlCkDsWLJiBxYY+5XAAQpHfPigs8kUqk2zZm0sSGvYXmMHje0FvHegMWMV+RIbRpggYcYGCSeDHFlyMmWRPzZzFi2ayI8ioz3+0xwNJjTOHyGDBDnZWLLVrBX/Wx2bMeHEBGXdonW71u7dtVm1At4KVSfhnTphcqOkAwe8BNGUWRK9YXQlIDz4YLKkzJxMgxNPnMi4cjJmlscnQ31ZpDOYmKFhI+nNJUlow+r40BBBP0+hEv4NleCACIaiYAL9FCCAgK+WIusppwAYwCqtGGCABBJQsAAFFEYgwYILKMzKKgESKKvEB8Va8AAghgDhCU1kkWUTvWYZBrHAAvsrMcB640vHv3JcrSDGdCTyr41iS8awf1iDrCL0TrsMvWaUMe0jKtOLLLbmYJuNS9p+3Gs3u8Ykc8yNfgvOoE4mCaKDLf9Bw4wxlij+iM5/dgABhCGQgNMSUGq8CLwaH5sssvOSeROaf156CZtnkKGDBwkiMDCCow4YiigJHhiQggr0048ABJVqqiy0ILzqghJOaKHVVlNogYYUaGghBRQsBFHCBEo1sSyl2BrCgyHsgPFFMmmZhRZlk0VWWYOKodGugWy5659q35R2oGIAk+XGHG9MrMs3hVytotcYg6y12foatyDcbsFLFlA+gbEgNINrxbhOVqEEiA06GKK5OMsYY4yBCo4OiTx9GKgMOjjZlhjwwiN0svIiY2agjt4U5zNsnJnFjSE0qBRBAoTyKcABB8SAgkkVMOAAUnktq6oFLrDAhBVssKGGHH7+BvpnWlNI4YQSRhiBQga4EpFmE5USFQMPPjjDFE0u2USuWTgps2uvj+3aoGwLquXagYbRay8ah4kW3MCuDXfdHr91GzAwazuoTFlsaXdLV1gB3CDgiJsECAwAfrOMg6JLIuB/Ai7DjEu6lRg8gyS7+DTyCHLmmfXYwywzzTBLJpMlQMjvQAUU0A+oCBxwANSbXlYAKQafnpCEFmqogaAofscBh6B5prWFE1A4GmkGLIiBqwQM6BVFpbTKSYlLNLEkk01k+bp7r7n3Pnzxuy+o7nDN7xH9f94ef3xk7ZL3k78BB7yVe4Er/F/Hm0N4IyJA+IAPGuKwTdSichrp20D+npHAZgyjEkjYgQdaNxDWTcoBRxkQ7Gi3ulE5DUUTskAKajAFEmLBhCeMwg90ELwpRAEHPuOdC1yQghkerwS56kr0mJKgnoCgDpqoxPXA1z4i2qUW7yvT+46YGyTWgm1GdCIS0We3xRjJL8MY19qe+D0kdg+L8TpI/dD0m/x9oF3RGYidCDKEEPggCdphw+QsgsCDFOojBAnd5z7XjNEZoxJJ2EEHfMK6T0WgdkhZC+xi94CjcPB2NRvAAipkAhdEYQpWMKEVrsCFK2zhCpvcwhY4aQUqTEEHWBCeDnSQgxrIygS3SlqIqDKWAARAQQNQAAU84KJLCJGISOzi18r+hrYxfXFL4CoGb6yVwGOaL5ll69oQ20eLW9wGmO9SVjZpYRAx/uYfrXADDzDQAyUkcDrZoc4OHvdGM1RiE8U4yEQic5DUqGePm+mcMz5CjE04IYI++ccEWMfBtRzFghe81AEU8Mi05O4ELsjBJa1gBS58AQx84MMeNKpRMIDhC1zgAiZP+A8srDIHtSKa0TC0NK5EiCxUOUpPgFCHOlwCE9vTG7WSCCNlQXNM0pyFLWrxD2BaC37JGtOyBjLEYI4vTHoZF2DMtL4iho2ZeKFfVluhhg9s4ANIMAMaxDrWsdZJOtFxQnR28IEd8Okf3DHFxCYmGSpJRmOdyyNeRbL+wCnVgg2o60nJLrWWAbkOoRis3QBKdJURmKAFOJgCFj7JhT384Q+CEMQf/MAHP3AUDAQB6RWwMFETBo13J02BCUxQghsyrVS1hBqlelAGPARxcvCThSlgBCMyySKbRARqNN8H1CHCqC5VbV9wgZss5YovfuBzxfyySr9vjqEHGwBBOZuTBBAIcAlpnVPBDPaPPA3hjWiwhCcMAp6MFcqu/9gjaDz3jAZm4hJz2MGkfmKpo/xKQJPir8wwVZQIKFYstbQZA0YgwihQ4QoW3cMgCEIIQlx2EJrdwxc2qtEveNKTJtSBC0sovFbSagUmIMEFFmBgFAkgKQeYABHsQIf+OVSCt/Ka1ydAYRdUzAIVup0F+MDX4+Yml3vgyw1Sj4zcaJJpGNzbS1PZpjYmj6lsuPHtsoJsxGEEbiCs+BtBfiOE64JgvHhR2AcC1pCCKY4gPgBBW8dwBjp0ZyDLSAZ4yLOMy82zOfpkxiwqUYYdpO5A/fUvBxOr0AFNSkFpSfAIHitZDfvBDxQuRCIQgYhCUJgQg+isRvnwh41+lAsfvgIVRitaK0wheDkoQg1a8EoLLADSSsHlBJRwBzuggQ6gwOmShds9ZOn0a7lRrm97e9SxXdUggGkmQcokNrM5uzms4Cb9UEGGHmgACE5AwxzwMgYeBDA7BTuIEhTiODT+XAKeBcGzMixSEMucBp941YxIhpEJNLARVPpB5AASOthcG0igSxmIWK7CABPYIAqb3AMfBkFhSCAiEY/A+CMg0ekL+8Gyf8goh0Gq4S9YIZQnPzUJo8BKF8jaBAzgFa5xGQEQ6MEObJjDvOSyCVDwlrk9Hp8sTvG9IO922cQlkyl+aeVabOtsgsmi+6ZtbayCebqdEMIGNMADcJPV62YAJAiQ4ATxfvcfS0gCE+CMnTGYQdzwJkaTlsGMi9HdUIjaiD43QQc0+IAClCrkwGUmc0y17FMLFcCpmKKVxtLgkpWd+KYzjnFYVF7jncYsZjG64Y5mmLKeryhIt1DKlcf+MLUwFwvhJfCBJ9hhDWiQiyay5vOf+7ipOxUmE7vYrPB10YlroxuOrAib9NnN+IFxYpSBT5Dbfy3LPLUy2+D1pk4ggQMYGAIZvE5WOlSCDkMIIEEQltaEAdA5l/AERijSGrsXihnGOMYxLkPfZtCXGcMAhSa+75P9HnIAAxm8ASCACKCAEHCZ1WGxD1qAEVCBGtCBK/CDyLu4yaM8WIgFWHgEi+s0QsgsjMooD+QDDSs1kgODLcACEgoe3pEVC3g0AGAKgasADDgCOzADM9iegcCpn2KWpHKuJDI2aVKWapoqMlkiGkGW3cALcAGSKVqb3yMTqtuI+GkXVpCGrJL+BkwIAg7ggCEYA6+bAzogCLk4AyBoKycQv+8qgzJIgrVrCDOoA4ixnOYAiStpD33io2YghmIgBkEjNw7wgAs4NERCNBjLCQPpoLIwAAVLgYi6gggjhERIBAyEhV7ghVjAuAt8BAy8uE2jMEH4B5DDqA6MuJDbsD3gpBN8Nd5pARa4AOihClxSAAwggjuoQVnQhBeZvS2jFmkqsjIxNuRKMmLrRb0YKig0xi2Jn3kBhb6hwk4YAj9UgjIIN6+jAzqoA1OQCSXgAfPSDoIZA7I7g3+Asx0ImDNAL1CYO7orDHlSF2boDI64DGiIBjwshvLYhDpAghDwAA4wpNW5lFH+WYuhqADbIZWX0goSaEAs2II9AARCQIRMrLxJ7IWIxESM+4dNQwRPC4RAsKyN/EBSi7iQ9LwraDUXCh4cMDEFoIqvMCgZ0AMzWIOsuQRQyARN6Lnu0ale1EGg+kUuSrakKrLmI7reuskt27K+aT5lkYVPIIhP0DFQiC5XwIsrBAII4AAlMMO3moM5EKsvfMNmkAU02AEeYAgnILvwKpg1DL9/cENOEJLKYRJjUIaBKA8+sjvTwIhkKAb924EQMBDBGxUM+hTbSQqasZkLQIERoqxLQ4RFgAVf6IXIjIVeuEDLyzhNKwRBIISB2EgO9MhRA01S5LCJQsGTlLUVaMX+FxQ4AfkAMziDOdCETKCDXspBJgM6JmOqYPQenSTGrpkyLUo+tfm9YQjOLUqqW3AyWugNuzCmg/AtGJHKa6OE6+oA7fqHaqzGtyOIZbgECGKYfzjLbxyIxokzt6IDTfCEiamcx2iNuSMP+/uIwiiPYdiEQbs+CTikhPoVSrGUWxLApnAQF0zExJyCKxg1zSwESIiFX2DQyPwFX4iFipQESUiEjaCwjQyEysIoy/rAzfsCkqQCkzxJWUEBBlgKXDsABwiBJCgDNsgES5gDrOE55hLK2+tJZfMabbKLH5Sy6HsicEkbt9mm8tkI5pyyG7GLIW2O6Zu6gfAavJDK33D+A38RO1/DThq7UlPQJ1kwgx3YAax8gqw8u4RZKwF6q0rgBHYhl9Y4BvKgO5hwx7r8CFCYgy5tmfy8lEQLEFLBtYIQ0AWwgBZ4uIiLPESAhF5g0F+IzF6AUF+Y0Al9hETYwEDQSEKgVM0atY0Exc3LsA81oYFwoZ+ZtdRcEFGJAB9wghi1xqwxFhzFzSTdG7AhIlvQSR1ctmKisidszt38qWD6Le+5KjCLLlZwg4EAgSSw0uz8wmqsA1SAhmfIRj1xgidoiDOYE7NMgoEoQzM4z2LQiDwjCCZx04y5w/qrv2cYBjooAxAIgX4UMEQrqMSSnlOBNAW4ABPAgS34Aj7+QFDJ84UGVVREjUxHzcRHiIRCwMhKrbCIw1DL2iwONUVPwqQWMskaSK0MQDyWRIodaFFLQK9N0AR6GaKerLKjK6JjpLYqQzYevDHn0oTm+JuopC76cYMewIBjfZNhGJ2w9NKxS8MzSMMwXQIlGMshaIg40kNmkCt2wRgpaQZmmMdnmAZjoIMzGAJDPAqDSBD9FICBUApI0ooMoAEquKg/cEiMlIRFDVhFZVvI9IWLk4RFgERPu6yQ68xAeNiPK7VUO0ERdbkU889L8QAkoIM8aLdN0J7jYraSPTbmYtzH9SmkMiJeZS4YccqbfBM7e5PpGoit6gEOEIg3IYZnIF3+YuhOPVkCoE1DgjHLJRiCHfAB7ULTYVBapaUYdlEGunPHp20GmDAGGF0DCRK8XxFAqJmZBTner7iZE8ABKyBUCkPbRF1URE3UX4jQx/QFXwgFTetEkPwDDMUszerIjPIoklS5VJw1E7iAhYIahcI+XoPN2DSW5JLcqtJR5TyiWYhc4lRSsqGRf+AR3kCbYdLfHYmyA0YbKisbZto9bbLcHcsmZWvOgmgFgtiqgQCCJtgSSygIsOy3HWDRM1BdN3MCbdSTMqAzOKS7ZbAI14CMOOWj0akPGoODGUCotSgomZO5tRDAANRhBWAAFLCBKdjXyyKEQkDYQniE6aVMRv3+V+u1wAhl1EXYtE4DRSPmSLPNPE0NwQ5rtVJKwdN8JRNNNA5ggjtwgh+6BE7IhMlNFicSE+LcjWR6JpVNUiUSyiTSMiujBWghYN7oqTvOprJJyt66hZ7ruSMTMlnAi2Vslwr+sk4giGhcVuycgzqoxkswBmzg5GZAhkxAgm1su8gxCNf1UoJY4+1cF3ahu9DQDJk4Azs4ggDLU4GTOYKoZYZSCgUIoeaNMM084kKIhEWQBMi0xEdwhAu8wF/gBVjghUrUXk3jNELYUEu9UGvWzO/FKI/ipFIK0RcS4w4xgPalORRGgjqoBPtS3DLxKS17n+bbLehL0nnuLWlC2Xv+HpelZGSigp9j/A36WYUkWA5Kxk5M/kLvu4SBIAdy+AdpCEsfaKufFeE0/EYWQd0WzQRHpqM2HdcYjgZm0IQ6mAMkCBBRyWXCgx1/PICzcBCWtFcUoIEoAIPLEgQkhsRIkIRIPYSd3ulX8OlDeIXKq8xYWISd5sA/4EwMDeZOy2KQy7CTy4IsoFhZk5XUIoEVK6gJ2AEnYIExiNFMqIT5tV9ftIuhYxYhowVUqFVbfdxjay55CcNNuFxlpBdHbo6n1LHdsutrYwWs04DqdLOBoANLqATvq6lmWGhHwcNLACSjReHHttYygCC2citLcMt/UNpjWIZjYIbxWIaPGB3+WqgDO2gCDkCKlf4HRNvhAcnaf0jAFLHXDDiBHLgCmkbiSIDEuR0EQNADPciD39aDO7gDMYgD4pYDOTAEOYiDOLC0PxgEQaDUzjxbjtywj8oCLdCC656CKqiCKCgCGliBEzABC6iApBjACAggEDiDmiJsrlm6WSiGYrg9XxVGZZHvIxSmrtGm3/pNNyaT+6bnZrHnf7hJUNBNsNHr5rqFBf/n4LifTlACDxjcwBbsaqyEg8CGgTAFNCBDJKBwhPBSrEzhd2OGYygMjtbszeYjY6iDfqMA1/avkz7v2gkLsUCLUtWPC8gAQd0DzazpSBjmR8hMMAiDMBADObCD4Yb+AzHQAiiAgiIwAiOAAuzWAi6IAz44hIy8UEo94grrrI/agiyQAinw7oIgcyOwARdggeO5gKQgJF3agTXYyvNkZ/2dXKhbn8B4Jmihkd4IUj1f4IEgZN5IPq8x4GbZER6hjbqxkRtp9KhKPmQhJldl61qwhUW/tlboFw3wgCSgM2tE52ok7B/6h3RAB4YeCGLQhDEgRycQYaA1A4pGgiHgAR/gEzRAU4nJGC7BmM42hmYAhSXYAQpg31/Z2hMVQEpBPBsvgJUUwNWRgAs4gRrAgkvzNCA/2EEYvSrAbjEQgzZ4gicwAiiPchqwgSI4dynQgi0AA0NAhEPY8ksFuQ/+TbXuNoJWWYGdsYEWiHI0n4ETU18DCMibCIEhkPMYVToukyrAUM5hSKYdwd/ghGNwiRZkqJZreWejNPQkkrZk8Za9MIxGJ5IimWBjwpH0qQVciLLbSNJbsJt1QYXOBY5/JqNu64Ak4NZlrQTCLmw6MAWDII1mKIY5oHUP34gxgCAWGDu3U2F6gwyONgZQQAMi+AAOqB3z9uGvQAAJ+LvbufGvWBAHqJ0FyAAXoILKAmZhPlhBuIIaiPIq8HYxeAInh4J+twFa+QeeqYEoqIItAARBgHfo5khLy6gtqAIcQPcTYAEPIIEMcHzHR4EMYIF8D+9XWjEFqIAC/Ko1oAP+TLjFvgmTROffGQmT4iQbn1Lg+H7jJz2IvUgmGzGMkT++bakRtyEM4Cv9uemRg+AbgtgNl3f5MLHgzrXgSeCBDRhcXPe+7ivs5t8Eg8CGeSSGTGD1IWgCV19db2wccuSTGL3sgcizEn/6YuA38sQAH9ZhDOIJmYm59DeZBkjMLeADT3PISMhILnAhuI8DOJCDuG9yMgeIIlFqEKTRgkaNKlf4DEJUSNCfiHz47OFiJYoNFytIXOh4gYHHjhkyoFhhEsUCAwoqXAjBI8mcSpcumSI27KbNmzp3DqNVS2etf0KHEr35j9asYrNm0UIqqynSpbNqSa06i+hSWkOH1er+WkwnLZ5Gjf672ZQr0GFV1UrtOvVtT6azZF0l+o/prbx5b3bq1Mruv1at1PTYAALJHEuAh5rClo4cZHLiojFDhWbIDiVOzpgp03nMmCVKduxA4rmOplnHliVLxuz1a2KgKplJsgODggG6D+jufeBAhQgRcg8QAABAb98EBhBQcIEFFTB/CFFHFCkSIj5UtISRc+j7HTlxwHDJkoVKlPQ4ckTJUQRHlSxgBBES5OcPxT17vlyJQsOkCRwxAFJIF1hgQUcWmLCCCReoFAEGHyhxRkyXZCIUV1MNU8xPOn0lFlUdYiiWUj111ZVPPUH11ixmwTXMiB12iJZYO32oFof+N+U4401WyULWUFItZtdeeg11y5CCDdbBBCAkgcaQQtGCTWSQTdbMMJeMscMQS5Tx5RlljCHUEpgN4UQZbFwyyzLMuHaMMckc89osmpgxxAcK8CaABBxMkBwBDkQwwXAEGDcUAb8lSpxKF9SwBR/UVYcdIWBsAYhQiCByiCHjjfeFRVZMQYWoU5haBRVh7DGIIIPgtwcjXOyxBRY50JDCCQGSQEIGFgjVq0cZfGQBCytYYAACEnjQ5Rpz1HEJXT2NyNNUWkVpU4s8UbVUjkAm9WJWVt2FYYpIrbjTYkzVOBUyO2WLoVUtYhilUHIhheRQxgjll2B2raIGCBzssET+TJUYbInBBq9JZZVXLmMKG5iZ5tkZZ4wZGhI7AGEaGnVsYoybbbb2WjKzVBImCBHwZgAGHESQ3AEOEBqBocfB3JwCyxFgwAImRPGFIIFQVwgiiSBCiB8NJfJIIoYYAkgcgEj9aqhXdIGFFVdYsQUXSUOU3xdbWIHFFLa2kAKuJqhtwgm5mjDSSAgygAILLBhggLJDnLHGGnRossmPP/FYozE43VR4jTnVqO3ijSNuzOPGEAM55cnEebnlQw4jOeeUe77Y5JArju+Rew1zy06kr6Ik65000cEGO4yRGMIIJ2zwLI6hU6VQyWRZhlBJVPwlaKCV6QMRS5hBRyazGLP+DPTMzJkMMZfERMcOKhPQnAPL6bboBBJ0XxxyA/x2vp7MGcDACliAMYhQRC8Ciab0aZrIIVN/9wgshRAyCKy4IMAucOEKW9jCHvwACFb5QT9buAJ6cGCQFpwNbSk4iEFm0AKTmKQEFmCABVZgNwNEgAM+8BIaKsGJDkEORoV74TAmF7oXtvBwM9wcDM3CE8DAqCzomhbiYkhDyLXGckUkImA817klikVf9BJKLWihlymejnSQm0RfUMGvLSahAxqQHRuidIlhoEMdjyEHOoQSDcttAg1A2BiYPiMm0fjAB0j4Rwo/thrYxGYTm7jEGpQQHJV9jzmLioADfpMc853+7wDC0c3dLjCDhQyCEIXADiQe8QhNcZIQfxDEIRABi17wIhb4A2BFrmBAroHhCwn8QyAEIYj9aC0KOKgBBSnoghrkgCA4WE8vCUIQAJVgBSjhWQhAMKFKPKVxzrTRTrrSuGIojissfKYQP1cWzxXRiMno3eWGYjluKlF0O4HcE4VyCynmBRdTzItd3DAJSnQCMJQQgga+ODs68LMSdKiDwehgiWSkgx3sIAdgqJeJMYBgCGMIU2c805kk+OAfSHCCGeagiVq4Bnptgh4xZmE9HkhAe71JlCMdkMhFolRPB1BASXWjgAWUAAdf4AN9LImITHIyEUYjRCgfEQtYxCL+Fo44xCAaKLaxqZILYHilpALxhz1cYQrruZULbICQKJiKCg+8yHuEicu6UbACJKTAYegAiqJgUydB1GHjolgMn5woSGH5UFh4cqPN8bWJcRon5fLVwsn11UOIG9xNbgG5vDyuh0eqhZGOhENj4MsN++qLkigRhA10YAhl4CcdKmEJOgjFn5f4JmCwIZRmlGwOSgBCEuL4pTJYjKJDMI2aOMGavzIDpLPIhBk08A+aDYU56PuNAJK7m0Y6UgIuXYnPbiqI+EWCfoiYnyYL8Y+lLeIQRtNDHLIAhSJUwapY6MLYuCBd+hSivYGoCBYk6AIaICQHU9iafhoYNvTUgAb+Ws2lDVaQEgVMYGBs0ES02NJDHcXQmjCqy7R2aC1rhkVw1FLLhmbUrbZOtpxO9KEPORyUGEUxQ1GxyjtJtxg3qGESkxiKktLAAw90AAj/AK1A/SlQOlyiGep4YjE0UQYeKCG2nAFTmMpUmiXcWBObEwrJCtdGkp70AChNVCINVZze/IORv1HpbxSggLlpQTqCuOR1HpFJTWYyk4l4iB/CUAUoEIEIHhgQCVpQAxxgAWuyOjMi1JwIQfBhC2WjIEJwMAUEDqLRrTxPF6RQhH/4twW7xOWAm/TZNWVrKWw5Sl65opR4CWle9QrXiKPSFKlARdWrbnVUiEKVnVSzmhn+iqE0geJpDDtYLTzKC4rnIpUpEqVwRVGDG5Jdz3+gohWdcAMPINDZ5fWTtEThRDPohY1mLMMTri0Nbb8U0TMsAQk+6NIZ2IAJToDsNcfwnSnm8AHvCWB7X2aOcJYjgN7suzgC+EcjzSfmCrBAC3uYTiE0qXA1L3zQlorCDIywhCa0AQR3M4CCaMBnLFwBDITYKSxg8QhCFPrQ82UPFVYFCDCcxwhFsAHMM2LpgwzTrBGowAeWgBq6kDoqOiI10Hft6RBpSEN3AYvR6aWTrSzO2P+oYVreek6gfGXWOoSsXauil8K5U+qkS7aLibIKNwBhAx5QArVDq2PQKsYu6kD+Izbi/gxpLEPIRPbSbM1QsTMkYQh2FIolNgFlOAX5DB/gTZVjZmVB0Zs5RNn3+ZbzUjEvoODvs+SaHyEJSSwcEX/4QhfmW4Q7XMIJIDBrR0igNhdMgeNgCGUiRtkLRPiBCzrA6p4XvYcwQMEILPhIAwy0oFxSsAhGEHBzJhACJezc01Y58YiH8pMglRowbnl+0IHOlqScOFsMxqGNZtRpa9mlLqOuyvRbVBWi8HwWt3CnO6foOVwIhQxDweK+3gCCvFEboHPopz9lAja4AwGuQ5Q0QzHQwWgowRh4hgOGm7mdyWc1z7v5ziUwgQaoDFFMnuTRjPfwm270WyOJmQP+iJkkXYEfsJfCbR4LqtkfcEF8kdcdfIIsrMGdLUBHaFUJ+IwVWAEf/IMmwcIvAEMkvJcErUCiUUEWQJzfgUBK3M2AhNAK5JIRGIELLAC+LV8dcEL2udqq9RzQNYVShMgXhgupUUUZ0oiCfd/0RZhYQFFWRJ+CdV/2LcVQPMVSpBhjHQ5jNQGyydM89UUnoMEHSIAGKMFi8NNoaQI5xMM6sIM6QGI6AEYzEEMmLMEHAAHeOWBE9d1tncYmEIMoFsMZhMAEnKIE7AAIYIBzEYeiLJJv7JsCqEyYKUAiRQAF2MAW+MHQaJ7CxUIv9AIsIIJ+gIEfxIEc3MEr4IIeFAH+C8xNC0hBC6gA633BFyDCUEmCL/yCMCxCIPgBFbjAQSiaFdhABgwBHDiBB4jAAigAxl3AAqjeCZhEDRzfgBHYEFzCJjCFT3TfF3aIT8RLjygdr91EiGwLUozFG/IQYmGTD8kFq21fHZKaUGjCJ4BC9KkYZYmI00XJGTCJByCG2gGG33gDAboDO6SDSqokZAzFMsyCGfCAD6BJREmUmCjBuaHJHHDCV4QUGvBAZvgdEgyBBwyHnojPAQiFcSlloiyKUNRiCUaAJPng0FQXC5JSKW2Kd22KKCTCK7yCIcjZLU2BFhTBD0SBFfyBHEDCL/iCWwJDMPhCIQTCFeASQlD+wRSQAAusgSasAQUsAAPgoLDgWUmsQBW2ABYqgAhUgBIgGD/iVYWJCA8txYm8Szpd5mVyRWZuiF5FH1HQYVZgZjqdDvjphBCQQbKlgYvREyaQQQdEwAfABI71k1DQwSaYJAGqgxmt5O4QRTGwAZdglAOGCcWUyRAMBbRITjFYAhrMBB0wwQ6EgFCshAeAAKEkkiIBgFAkil00x3C8lFROkh+013WwoCT0AjeWUshpUlENFacAwh6AgQGRihXcVH0Eoy+cJ1z6gjdyAQ6IIw70hwnYgBjcgR4YwUcwQN0IyAWYAAW53AxUAHPg40VmxaspxYpYRYbsmlqAJoRhpvP+fWhm5kRdNM5QdJ8xWEUUQVhletot0IUsyMJFqpMe7sXg1J8a2FMTYEAE9EATLEYlnChuusM6rINuquTuxJ0zIOAcpJMTKMFtKc8WFsMyGIMpZIsmjIEPgMDpeQAT1IYHaICVWRmgYJmYTZ6YlRRLzEAW8OJ1RILmbV4vBAMw/IKdBmMwDhUsnBJ8zsoDSdcfQEIvxEJ+omdbFgIffIEOiGMNVFUUeBXXaMHxrUCAGYsF7MrwFQFiDoAI4KMmgML5nWGoTiSplqr2TWQ0YVOuwZVBHk6qqmFP0AWxFVsNUQ4OBYEQIJtQUMJQKMEGTIAMIAEbzOZs1oI3qCRgICn+OajWP5gClBCFGdQkbZEblCaBUKyJUNQQJ3DGGvhACBDBGrSBD2SgccHMUx5Ap+LMLJaUBJxgJWkeJEDCVdopvdbroA4j7flBAzGCNa7KmfXCUMhpL8jlH1wBDmhVDnjVFQgQFzwQegyEDWyQ2wyfDUTozgwKEaSGqWbftsSLP0okP5qLiZyqVOyQXSDOXh0OM7yVEnVYYG3FkFBOZCVROd1EEjQBGSCbi83TGyjBBGAADzgBsdLB/wXpMBxrOhSpGemmbv4DZGADNIDCGSyGTVbMGAylaZiBCm1OTmwCHSzPkB1GxogpLOrGU4qZmAmFSijAA0hlA7CAFZzZInD+nnn+AnqiZ50GgzAIw53uKSLYh77GJy+KUi+Ypzb6Qi944xashw3kgBRszRYIRajg5RQMhEZskEm0gBHAwAJsz0oggSao2qrqhPc5DoeB317tldQdjueckxO1rBKtrIcp0QzNbsza7skqEWD4YbKBnRvswCnKwBPgWNGCViUUA5Ws5NKuQzqgAzp4A2RAwyyQQWaIW2cQZ8WYwRgkAZQuwRk0Z1gsAzHUgiZcAidwwmU4gRN8QPggXtkKnDte3FldANzYwBVY0tzGqZzaLf8O4d7urd3iqyxJjdIgbuEabltKAiHswRQIEw4QkAAd0AH1YOXWAMzVgKZqkPGlRHP+SEASgEJBmqxoCgUxEEUJP11jsW4KE1ZhtZA2ZSvlTE5r/EM3JYM0KAPmANZfjVPmDMkMJ9Ts/tXLnixg/KEakBQGyAAT0IslEAPDoINjoBEaQXHckUPULkFmCAUaoIH1ItnVEkHWVsImDANrVKkyHMMxaAm57YAHEMr7MhLlLcACVIAHrEDEQYEWaAEVXIEgFA2bseA22m0wcOMg/28A048sGUIohYIBz2l+sqDdyiU4ChPKRTDXWAQVoEflRoHxGYEwFUFKiIAEhMASgHCr8kQ5PVHlxMmcXI7oDFE5WU7odNMOHxEP17AydBNrNYMzLGkuJ4MztAZrJcMw13D+Mf9yDScDMhPRD4uTMhsDDhcRYORszv7DG5CBdf7DCdHL8UID1EJDNGSDFWNDNGDDM5wzNDjDJiQBD3jW3kEU9n6JJ2LUHFwCla5GC4FCHTxUGQwBCHzAy9jF9ywHDg6oEWgBIBiCHMhBHgCCHvBHQyzCIjzC3G5eINvp/wKDRkeyyDlEdfBPL2g0MBwwINttIfyBFfgXL/EZ5HLNARlQD2bBJhdBEWCwEZgVARSYGfyI68IyM4tmMwPxD3uTMgszLSdzNylDtkVJLz/DkkaDM0QDVC/pUttFM1Q1UNdwLVNP5UjzUJCB/SEbGQC0CQEPUYBWac2CM0DD3EmDNJT+czS4tVszgzMsAyaMxlAAD5pMa2d8BtaWQQpxAjGIb094rRmgARuYARHsAEAzR3Ls285UwApwRzKKAinBwnesnNj8QSFIdCSY5zb2gjBo9N7SKZ4O1SbdTyKEAjACgzAEw8Aa7sBGwh9sQS8lWp+59AE1rABZiqhIgaQZXxE4CIH5wBx4X064MjN7tVB3dQ9nqxH58DfNci0LsTEz95Bc9VLvslKj1gjfLhG1EA/TLuXgqhAIgVD86D8EgQc8wAZ4FmCwwRajAR0UAzNI9TNArTgwqzSIIkhdgj+fiVBkhpcQp7iVgXFaK495AjMQAy1sQh18bZqcgRLYGXGwFAH+EJwWyIHTxN5QIYLTAIKcTQEfXNL8gPY26q1rj/Zph5zRaMoihEIwcuNrx/ZVDqw3fkEDW3AO4ADkqtcXgEEcjAcY+DZecrLLHYsChMAQ2IHh4ATUxQkNB/XTJYP4So7LwhDlVGkQd/nsFpGbLDdqbbUQ68tf5XJ4ezk6MZ2rSl3p7KFpnvd5IwESqHcHCMUQZFSUqBAxSAM2oEM8xEM9HBQ4D7ZHZQKeKAGT/YMGdJaX9DXFOMEdNWAewckfVQIaJAFqnIEqEtL22NuEXsAKhIHTHIIohILnzUrDvlwU7EEfS7REA/KK/y9sByMshMKLBxr/COGK/4LhSsIvBMP+5iEqFfRX45IjAvHBHyhQA/GBpWxBJlduFSq5B5TBGO1EuywY4rBV7tbqZPGVYEV5C4vwyZamCm/TC6O75yBDC53sc3vYd7O5ToA1GZx3EKT3ENz5P+jNfPf7s6JBJnjCMFS1PMSDUEADVleCKuK5BgiKhDRgmOS1UCiBZ8xBJswVKGgCHSC4GSBBCIiAIh1AgfnAB2QgAURACEgBqRuCTx3CHzBCf6RHDthAFEhHeyUCrEu0L8z6aI/0veL6/cQ4I+OtMJC0NtopMORnIfiBbVtw7m3NTelrUjVQK4mNqdB0EXgAz/iAx8wI5HwF1LlqyrbuEBOkWzlWtqaTrbb++eYgQ+gMgxFxUze5SULR8DKX+ezisBJ5d7oDhhAEAZ1vltldpmh5gjQ0ojzIgzuk0T8UgyyAgid4AvZIyNhamQfswGZ0BlE4gbX+A2B7zDBAOIL73QdUgJUpAAbMwBNoAhwgQVHCVAZoQRx0eNPsgRV0QQ7kPszlwBdUEtHgfCJYNN7Cpd3iZygAvU8x8vG7pSObJ9ELI9JwQQPX1xQYkCvdB/b7gTViMtYXQQashBNsgtfrxNs/Trb2UMuaewpHzuGgcL7wFSwPBTPQ6t5Lj3MjdREpA5ofM/63BjLbMkAka/YvmbJk/xAmVJiM4UGFCIMoIROkwwMeSh5m/If+Zs6lTcTEoWMnThxCUpxQckIzBKGSHRJE/Avx4Z+ZMmbQ5LS5BEmSMmjobKL1qdKZMkmG7AgRIYKHIUjOaBkCggJCFivCGDKkKNSiPlesRMkBg0YLFzm+/BFEiBCiRIkWLQrlq1fdYL/q/oLV1S2kt4/khgpVN64kw71+desG7FGhP1+w1KBhA8cULFy+7Pnjh/OePWC2bKEyJUqRIkZYLAhhhpaxYcNcv5Y9e1gx18RmI5StkLZsY7Fhx/4d/Hfx18aSGVOIvPjv5MgdapROsBnDZgYbChw4PWP1hs2xZ89ORqEQJU3IANkwgQeSnO/hoykzxgzCOpY8FdNvStP+pUuVLLkkEzN4cGqIDyJICAQkxvgJDYTQMGOMJJSgD6FNLqnjnwbheOKDCijY4aknykACCSKIYIIILQAxRBS5EumDiy7GcsGFFlrIgQs+1mILEUTi8oWuXu5CrC5YYFkkEb9ggWsRRYL0RZLCJCGyG3+CgQWRQb6wIod/ashhCiq4ACOOhPjwDLQrSIvChdNeUCAEO2bTr7c78QyuN2IQ+o0Y1wBtjrjX+lQuoeOa+ydQ5AhSxhhluItU0kkpna4JIYRoYocN/tlBifjmeM+mh+gI8BKF5mCDDv/K6MADH3zwIEGEXvUJpwcRKmMJJZJokI1K2HBiDU00uYMIDXb+eGKNZc9AAogZQMjAAxnEMASRuUJBJJAupKjBhRRyoAHcLfbgYxBBBCkEyEUkGawXYPKqq5e9QnlrEYQUUWTduOYa8hduuvklkUL44AILHHDIQUwrynwIjC++2CILKqKowWLUJADiElqKydPjj/GUDjiEcIPNt990a25R4wr6rqHwxItZ5plbnrk4R1VOVCEy1MiIhw0oACGJW3NKA775FOKIjqWlG+MDDxAKISaEOABBCSduemhCJZa4iQ40zljjjid8CAGEOy6x4wwndqAgAgkqmCCDKuRABJa6QhEEDCtwuNGFMHPAwYrM/EC3rXUliUXexZHsKq5FtA0kEEX+nJzrF3h7UZyXXrTd4wodEla4si0YAeMfNR+OmGLSbDBtBQ/K2BjPWu4EDuTbQS45tj8RHW5l6BgCnmbswvOOoemyY67RhR415paMktuZjOkTUkIGCUJMYo34cppjDqQfwjWhpSvBpJIxZvJBKRGmRugpjdCYkMEz6PjeBxB28OEDIuAwloIKIqAACkhAAz7Igh4G8QpY+CIUigBEFqTQtxTgSGFi2gIXNDOIwwHpEb7AS17wEou9PA5ykpMclArTC8NA7kfaKphYAIewKDCsTJ75AhhAI5oqRAEHNTiND4hwB6HsplJFjBRtOpanJB4HUX1CSPKSE8WXyQxmNLP+4vGk8xxJkecfaiCDEMigBB5gYAM7YEIbxIeQpX3vJmVwY0LmUCpLVKISChlDBz4AK6mJoCmw8pQT0oiQMfSkQWswA09cAgKzgUADChiAAj4gAyIgyAN0OwSSRBGKQIChC27C0QRxRAPBlalwGwTSkIyEF3rF5S35MuEiCvG4QuyBM5z5AyH4cAWxiIsGNJAMDrpwhS9wgQtbQEhorDCaivkSCkhwgkems6fblWwWd5rFEpMInJL1hnaw0d2flvMolz0Hi0b8DaSQV86H5Ix5zPnNJNSQhklMIg1q8CIIMJA9+IQKKOOjAxvqeQaNWMISmchEHZTQAR7ASgMOQMj+gpYgIiRo5AxjyFVFy7CGMvjgfwpQgAEqUAENeOADT5uABpgQh0Mo0BeIeGC3WpACmcqUglO4gmfUcrhESAJJRjpSk0IBGEQUQhGS+0MgEjG5QPDhBypAQQpmuAeDieVbJJhpC2gQhS4M8wpbiNgWwEKaItjAYlBYwxwykZHXbLM2eHKNEZdDG9sxUTgo+8fJgrOQ4BUnepSyzhPFecXpOKevWezEYVuBik7Mkww8gMA/fABHOkjHoP+hwyQsgZDDcsITnP0HJZJgtiGUzQEHiMAOzDCHiA5hDDlRiE2SENuuLWsMO2AKB3wABCXsdghAGAITnMCEah0iFrHI1h7+tBAFcc30qlkVJi17pK5EPIKnvwghvYKKiH8goqiB6ANSCRGIPTACBjGIAQpqMIUpgA4GNxgBA+A7UxXkAAtdDY3qqLBDi/2tBku4QyZAgbvZsJWICKHFbOw6Kdl0zFByHU4TFaUyZpDTUFm0YvMAG7MqqvOJ5KRZK1gRYla0ohWreMPP/jGEJaAqjnNQCDGK0YrOpoSznNVPMUxxqhD4gEJLOYAEdsCGS8whIktYAxvY8B42HDIJ/1hCa9eAhBBQIAS/ZcISmLAGOLDhDG2AgxbEcEm6wOIQcaACDparAhOYgKaVGRwf/qDBQqjLLY/oYOYW2LhE/Ci8gfjDHxL+kaQ/MIIRP/gBFr7ABzBMIQc2SsF7R/DUb4FrClbYgqWvQIX8RqFiNbCBC2zwBI9wrE4LxtMSTb1Wj6H6NR2Tjm9SRgy2slMjBhHeODlMkJnBlXhXTIY5zFGOYJdjxG74wAZAEKk5aOgfzWDGMqDdimUQYxnMYEYzotEMYmQCCB7gmpRFQIAIgMAMn9DEGJ6S0TVoDQlDcONZyzCEIfDgAztYENaW9YSpEEGlipuXIeJQBRzEVKZrZvNZKq2ZnAZiqOqys+KKOy8kvSUR3QUEIujiC0IwIph8IEQhBOEHL90oBSYgAZtPwOYJCg4sVrDCmDidA0+3wAZmBcWB9ST+4Ntds5t5Ao4xqunWueZGUoKF60OacWuZVZhS+wB2OaRBiR4gWwk4kezS6leHYWADG9AQBzSg0XWwQ4Mc2Ch7MzABhA4goUQeYJ8DQICGT4CCDru1aPh0xbUxeG8OZgAuHJxAhCEo4QlMiBUIQPAEQzjCg7/whSG4ANMUpNwEKmizTcHghzin60fS7WAIRTjxPSeCEPm6mwgbyAgu9GEQiCCEH7bA6Si0gPImeKrls2rTK2BBmQLvYVlCfYlbzEJQePoTboKOxNfU4sDVnMXzaxH91yRfN9wEDqtng4ySuTrCOWOUosTD1ysq3dc2Iyylgk0JfF4EVFj/WiWawXX+s5OD/vQvR/3ZQY5mVMLeUAG3AyYABM6AE2ghEzZKCdQNDbZnyZxAkOhnadbADgwBDryACPCpAjwqBFggzIhEGH5BFABBl2qA4FBA5XIEB+qLD/hA89ZiqH7EzhLnEWBBhCRuz1yPEBLBpxjIBlsIEERDYoogpkjAqibIlyqj5UaDNGRuMjwNDkCh51zDNgSMwHCj52jh+WTBFnDhTjgGFJ5wFkDhmlptGAgMwUyGOBLM+5QOeETGw8LPDTPCnXSG6aRD2MqBEjxAA3igCbhjDjAhGbzhIehPJBKiHtghGeoACEBgCcwACT5ABH5sBwawFuiu3YQlyXJi3RQio1b+5RM+YWx2gAMiwLQIgABAQAzy4BUuBy9c6gq8heBM4ARKLgeiYExuCs4IoUeG6hGmy85m8G6ORDDcIhE8KF72ws4cARIQwQ+yIAsUjQokA0cQwmIQptJeTr14SOZsgKyK4A5qwa5852Owj4h67hauUBZeQRZmQRYOrBZuARdwwRPnzhMDTOeILlKSh7AaIg6bI4qQA2f68fsUBbBu4Rb60cMewhwUIv3+oQOAgA8zYrIQQhPoMCHS4SLXwR3YgR2aIRF5QFhCK9yAbABrY0DSbVlygsvkZ6L+AW0yZA18AIAmIAQmYNzWIA8cQXFU6RD4ABoJbvJmqjIqLdHgTC3+0qUQpmvPYFCEmBJJnLIYjURI7OwRfuQQRC4L/GAPsgCGJIMahVLTsBFhEqYrjUDrTObB8qTnUo0LawEXbEEW5HETPHEW3DEWPkEr8DIPNGEWSG0YpK+tVA3WNAINmcMf+So81klltCjC9kqciiMh1FBnIBPYFDIhysENNqADgqC1vMe1HkIToCFSMnIjm2EOeEAS16DJRNIH0MAUjIEZKpFrzIANtEa2zoAN7AAOluADRsoIAi8EiMDLcFJxgCFLACEMpKAsaG/NSq4FrHELwKBcBOFc1gIpeXEqgbG4fOH0Ig4xrKu4msQREOEQxnMQmhEQNmkrl5AaOW1MsID+NKSAhzzt04yACSjSIBHsxYRD59zRLT0RLw9BE+YuCz/hELQiDOQAEO7gDj6BHYeBFhy0NqTPnMTPOYAHZiIzeAArMh8TMjnUOQyiMoPt6dIAj5RADUKF7zyzfjbB7NKBO+IhHtaBGMxgB4DgNpFAAxBCA4ZgDmYB24ohE84g3dAAE3OiRJCACeZjDZxAfZjgDjThDFiABbRAuA7BEeJlGbWgCHopptbsqWpgcPbghhSuR3QKEmCwg2YwcxDCunhhF6zLF0ToERzhFQ7hTocqELggDACBEHyQ08aKBv4BBzhtNJSJ08ZyG4ugDEDhO3ynwsIRd5LoHf/TEOTAEBb+VC83gVgsNQy6IAu4YA1WRRMc9AoT4vmejxYqJWfQ6R82DHj+kSEMoopiVfzy0WWMoRmqQxmuo2aUgTL/oTLLQQ024AMQUI0kUo3+gQ44AR0oZR2YwQxAwAfOAA1yFCE+YAjqwBi8bhlAoQ6QghEzYpCQYAmW4Al8wg5YpWwy4ANmIMyAcV4GwVPdxAa8lDlxYAvgLE00o5R0cSoB1ikRwjt5oWBj4RXmlDx/hJUUoQ/6oC0CgRGsYIdMowgINQqqoAqmYIey0WLK6g6GYcKeQzGb40/maonYqj9lwUANQUa4QA7kYEEvYUHjQA62QAu0oAvCZkFB4RY6BueWL/r+UC1Dk2EZjsHWNMwZGEJpddU6dPVptaMZlPYZeNU7mlY8Nkw7aCbYEIIyy0EIOqAHELBI3Q/rEGIW0sEd6sEd3CEj3UEdMkIdkqFGd6AmkkADYsIDkKASjMEbxEHbNMEMeKUMOhM+nMBEYqsMGPQSNmoHroIFoCAMiAsY4OURDGErW2AFJo05aWAKNAMR/sAzyuWWBOEGEcHO0FQSHsHfYgGViusVHCF2YfdHHAcRHLYPjqoPGOEKuGA0TsM0Llb2eKiHPK0G6vMTeBU7YLUxjaM4CGyJnu8W7FQr4oARbjYLxABmF1QO4iALcFYKuqALxKB/OOHmemM/+UqvxIP+GRDiaZ1BaqXWGeR3fuUXfp+hGe4Xf3VVfvO3f5/hH95XaxtiVw9iimDG6SjTHsyBFcDWWFtLVSyhbP/hEmrBbdn2gt/2IdIhWuv2H+YgRx1Kb+sAEBGCGYrBEsqgCeiDn97jKAhJyATEDM4Ay3zACLIXFoBBGOAFFgwh9tLM9mQqB6hAMyRHdHnER+asEB4hdQ3jF7XzF0Qodh3hTg8BEuJCchSC0ArN0LBAB6ZgLIvAh4ZXBwJHYbbRBozgDGoBf+83GgTC11TGL20HQm8hC7WCe2dEC5pRDLSMe+PgC7y3C5ygC7QADtQVFGThOHSDT7ovOqbDfek3kiX5fp/+IZIr+X0rWVczOX6hVldhxhnw0ZETohWCoIzGdtlIBUCQISPYViPSYRjGoAcSgiUQoj00oRm8gR3+QRqIYRPQQAmggiMUoqJeuA4yoT8yYQ6C6wnkIA9iQRi6QYcf4YGU617X7ARywAo8owuwAAuiM84+jgd7kbp4Ckm0kxf+4U71QA/YAi42TosZwWHDFwsM7QdgAAYqyGJEKYxjKFzIqnXoIGp1tQ35Ko5/Axlgg/kg9BVA4Y7jQGJwVo/FQAzuKzS+N3zPAA7qQBOe0PvCKde2wzouGX4nOZPz92lRWqBTWlYd2YqUVmYQGNicrhV6QKHGNpUrYQ4swRjW4SH+4gGDLzge0KEYmqAHkmDJhkACaIUIKDIQyQEamqEYLmFC6MNII+Qo4OgSZMEYKDET4CAL5AAS/kUxdgEW5EAMZq/gbG/NWqAycsC8dCAzVjC62mK6mBghtjOK71QObCm8+iB86zmwDe2eVeCe/cZGaG6swmSxt7EGZgAK8kAglGFWsYMY8lFQHlU2bsEdC/IWQOET8uAOuDc0tqALJIYLvBdUtWAKpCA+q0AKwKx/PmEWwilniEOKYial39cZnuF+H+KNxcN4sDb8cGZk5dDXYtocnK4Taro9HER86KgSSkUa3DZGFQKDEQIbZiEJjHoNzsAHlPofPgAJNAEQ1SH+HZ6aGTiBDmKrWt+jfswgCSbKDOhAE2zj2ThhDbQgrIFBMbphFyBBDrTACGig9mwPBUgAweFrAVrgpmjplj6OztCUnCVhzGKBTg9hEOKgq/agD+h5sF/gngcbBl5ABUrgxE88FkHJ08LYjJnQsaWAIgUy5xQFZIqBszu7IG2hQPEyDoqJmEKDC3C2CzK2teOztacgtjkaaGWDdoyDMINHVmc1OxKiIPRqsrMDyy2UIOiwILwvOjS0yoNHV/chIRBY6nT0olKLfKLbEp4BHuABIWIUqFv5H8QBFJJgB5IAbHZgAtjnA8agvAMRvZ3BhAekV1b0rOTnJ7SaDIcBFF7+IQ8uCZoVQ2AEnEtXYPJiEQVKcAYyoAEWwAAsoAqiUzN0sYWmyzB84SHG8w/4JkxInMRfwLxC/AVs3bzMawQawLyGEAVk0WJKo5c8jQZuxAieoFGj3ELfqsaFbhgKEhdyHBfgUkAdGofCIAyIaSuNvAiEtzSkIKOh1BbUsjcYLJ3Ir/ywVniEp8PUsE8KWJTNfB+czh72oRwmoQeQZX6MQmnqaFkxARvgwR1idODpnG3FgROUoAeQoO92gH1E4APKQNC5DqqhYRmK4Xx8ImnARr6HhlmLgRiOwXlgN4cVQxh64RDkgAqCUBaZ6wRYAAUy4KMMYAFsgEzBmS0OZ8L+y/kXEyHDwSAKUqAEbB0GEAIGBHvEYUAFZh3XY8ACGMAE2hoHiuAhElsMDDI63Oksq+/naOPZbeGzx/MQ8qBA7zQO4gCH/lg0ADWMxRJhjBe2/wsUBhM3YgMfz32Kyq+4oWPvP7RCoygj5L3Mg9Uc3KADyoglpcOYsWEeBD4hBj5GLfjgE/6oy6DhIdEDyKC8seEfnhrbtA0TrNUnjHTdxoAnfgITQAHkjQEdeYHkFyMWDiEMqlnTZSrlUMADMuACIsAADOAEnosFcf4F4WI7f7FJfH73piB8u8BhG/Z2dReeCy3pTTwG4MsEaoBQTWPYz7gI7OAbk924mxctl2H+Njr7s+/UEFgW/Q2Ue8MAhy4ouajKY+X/TQqZQZPPY9IJ3XEbi2rGw8Tv6ADin8CByYwNHFhuUocNO5SUKWPmoZmDdTZ5i4cxo0aM6+K5w5ZpyI4ya8bwEPFvAg8zoJpBOyiw2axKY5AMRDOHDhszSwSaqcNpmDFjtTQ5+iWsmzBgsORkiUKjRYqpKUygMMFixgwPFRYYyFDlC5g9fv4QOoso0aNHiUI9ggUX1iNEhOTE+SMoUJ+9exX55cuXESMsWH7AcGEisYsaOaJEwZHDhg0aNowYyTM0WcHMQzsbGwbaGDHQQkkLvXUL1CdDrFnfMZSHdZ47ceKA+ZKFipT+HDlq+P5dg4aLIlDE2NE0i5bpYqZhOv+32VhBzdI1W6c+9F/nZMo4e84u8Lv0zNHFdzcI09y+febMuVn4T8nzf3QqVeJ00Z3G+f9AiixDRxkfiKBABDvMUYxA6qRDToPONEMMJmQokUQZaFyYkxlj+ESHQMd89koswAizVCx5gEFFEcJJNZUJJ6ywgw8+xBhCBSFEwcVYfgwiiCCFIIIIJGv9s1ZciRQiCCCCHAKkX3/sFYhffukVWBdd/PBDC1q2UAMOXjqGQ3CLFfGELNElE953poW2Jmm4qGaIXYzUFscddtpplxxfbLEFFVM85mUONAQ3qGRFaCHGHcgpB9r+LG2SNppp4k0KHXraTepZecoIhB2m/Dk3jHr72NNeOWp0QMEOSDxxRhk35VTHHJug445+G9mK0T/uOFMJECCUMYeAIhAgwQ5oFJNOPQeRIxAxnKCRBBKuDjTHHGNs+A8al3BCzGe47DLiUrAcIoYUNWhJVQontGCEjEucwYQPIWRgQxZgjIWXj0AGmUhaiSzC1lmHMLkvIoFEebAiCAMmWBeM/BCmCzQMmoOXf+JQaGVrCDVdeZgSg8xQaxZDiyyfrBYnF1uAEQcgd7Imhxwqc8GFn1N4icNkg9Zg6KF3XPIJo8M4+mgxzK2J6Xcei7f0dtQ1/elAw9zS2TDrscf+nitCcDBQGWd83SqGldDBCa21enT2Rh41U8cOOzgR7IAiTOADHcOgMx8znFibxEB0/E3HGRtWSMcmtQilDLjcdANMLIeEAUUNLqBLVQszKIHEGE6MwQQLIdSbIxg7/lHIWYWc/uO+hPToLyQ/nnXwwX0IdIUVA1mJg2ErtmBDl7w5xjNlld3h8XRJD3P4Z5EOQwsts8hyCMxh0BxGyy/fYRefW2ShxRR/RtHboJS1UIQRUqyhqCyzzPdoc9qBNhDT3m2nTEHOkadM/R6nGXWaxrS3HoGUgwwY4MAQbPIpWZyjVvph4EFytY5k0GEHPDgDG5wQAgJRYAhzGIZAanX+EGjIhA5KGEIZ2AA4wGloIJcwxTCSgQzFMW4XjkCRilpwgqmsi11LeMjP7OADel1hC2Lhwx/wcpYknkUQdOGRINACpB4N4g970AsjajeFKkCGN5BxAQy2tLMw1SAKvqFMDYwAhU0ozXiTGk3yqkYy58kCFDCrzb2qFwc53EEPdorDnranhdx8rwjB8U0RhuOzS2yCaO1rX2c+VR3qxM8gmoHJdS55pv49xxi3aI+o9lGOIGigaxE5Q0QigpM5zCIdDGylKz2SDmSgYQdDOAMaxtCBYVGACHa4W63UoQ68/QMazJgFHZBgQhSmkA63TEISfqIJWhhDGSPqBjeEwYv+Q8gBCipSl4vUVQMm3CEToOiOHXjgARZoYQs52oMRB6HEJ65OEEf8A4/gSZce+YEPjNjDF66AhZt56VwVm1hUtCQx4PBsMoZsA9Uyxan5VU08pKlFyejIGjrFAY8xqxNtwqC97XGvCo4h5KDIeMbz1SETm5BFI9uUNExeZzwF0Z9mbGrTSFonfzKNDn+yA0D2mEMaouwAECrEHwStw5UMXGorzzEMNtDSlknIoAI2aAdjmG0g3sDGM5pRjDogQQlnWMNzBCcQNmBCFreQITeA8YrHEXJyJ0jMi4oQhksUoxa30MQShjADFOCAT2PhgxF7JAiBCGIQUzSiYQfhhx3+TfEPAtmDP69ABfBVTHK86U3UeCeZM/YSU01LWtVq8bw8xMYQgACEbWqjxzvRhgtZ4MIXVMY9x0RBRTYoXw3KBwU73IETstDk/Sx1EEyS5zo27alzL3ke+zkHTQIR6j/YwwoeaMADB3TCQ5xjoVUy1R1ObSU5ijHLHfRkCCEQCFbvBkx0eGO+2PAqMSoRLYGsQZkqHMMSnkmHaO5CGNwoMFzzEAZCaukEJEDBi4wAh09wIhOaYAMTmHCEDNRgiLYdyx7ytVjGHrEshjXsHiBr2Mpe4Qv/sIL3ujCFij2GN8DZ2cQmxzszplGiTptm/Uz7QpHVQhZxZc0gXMsy2Mb+FntxEEMY/ijIkobWMkUoAhPWUAlNuFQoyP1HpDLltJ1ypxkyrV9zn4vmM1uny9DZ1ECuto9W9IACBkzCE/hDB1BgQ1fp6DM7+uyOdLBjINiYhRk+4IOyKmGU/3ivNxakjvvhVwlO8K4Z2JCTv7HhDEtYwhjokAla3AIYi3srLAAhhkPi0AQlMMEKWgAFONyhIqAIVhuckIEUDJFPX7AsHxgL2R1F9oiWpSJZSmzZZKvMClhgtvf8pAOciVEgUcFxCyhjhDXcYmk91elmfiyd8wzDFkSOnj3/oNE6xTZmYmjyynDzlN0SsjJGqHIR2FCRLYsMPKKhLqfWfMlmNEP+GWSWacHVzB00Dxy6PdXffNgzih5AoAM76FtSN/GMdCyozxzf+J/TAY1ilMEDQPjaECbwDwdoYAi9FEiDYAKN+5ZwrERIggVTyJNOo88WA+6GNeHqlCigy0UneJEW1qDlWlzib3UAQgVMsE6VsdOdR5zsH/gQWaxrPdnJ9vBtuXCQLTj7YpAR40Gvfe3FXOaFyTjGP/TnbTTXFDtDex7KAOEH24ilekvGHhimd68s5EYKVd6ZvYuAPuR0yzMHWQaabtrTZjzDGc5IhjNg0owHCdw6xv1UMshM8Oby9Dpwbk8nerCBDvigh999DsaxgQ50cBwd2DiH7BlEDmyYwgn+H6jlGYYggQNEQANKqMQwoNGg+iofG9BoRR2GAIR/hCAEPkiCWQ9ShiQswQx54Dmpfw4JP1DhXDpUQdFboAU7fOIWm6jDJS5hhh1IACzao1lhjfgHEuc//2Xh+hd6zXX34k+3xU5WYDOaNW3XJhwTMwM2wASgkHBihgzPpWbeNhRypAl5YBe3oTJhIAZ85FG0AVv3sj2AUkjCMRyJQk7jAWbL5VwEJ3nOMHkPch2Z93kFZx3N0HnQ4W9f5W+dZw6T0AMYYFSs9xDXojnXQjb8oXwNQg7RsAlI0HutwgMRIBAeoASXQAzikHzLBw3ZUAzH5F4VAAJIcAYpNAdoUAb+79J91eRzwAAJcqAFwcEidXUC9ZIHslALLUULl1AGwHcBWiB1fMIFyWZiZTFsiWhiXedr+8QHAwh2teNimtUbCDUxWkIZMyAG0iR3YjZ6a2ZmBJdwtUBur5AHelAbT8YFHrhRS2YXcZB3t/EUZgdGRZAFdHAJs4AemTJ3P4h5N0h5lqd5Apd5lEd5XzVwMyiDmmSMMih5z7CD1+UeGjABvTcGD4GN11IG10gHpiAQ0vAMTsgsAlFfDdIMmqAEIeAQSyB/A4EElrCFApEN2EAO5SAO4hANs8AGIvEBERABHmCG4OUET5AHr+CG3EBDkCMZUdEiLJBtdyBNyvBVpvD+fBVQAXj1f7d1BbbFdWQBCPy3T5GVdXwAgPg3EGAgdVegklTgJ5BRSFtiORNzBJkQdzgoU8NoU8Q4ZqCnDLeAC9CjgbYhEFsQBnzHR3sEW3bUJ7vFkCvglIhXB5pQC8cAcNfxIMaggwcRDdEwecRIeZkXg8g4g89AlpmnjDJIlpr0Es4xDW0ZNfvwD+fgBtQIAkrQBF2zjWMgOGMwB5wQQk4IE/W1DJcghbXEjg7gAP+IBJdgDNBAjwOBDsmHXm7zARJwVT5gIctkBgNZkN+nFNkUBlXAM8GRAlqyAhAmlZLHlcNwCWMAAiEgBTkiFlygkvcCgIboTiKZiLZBdfb+BFkDuCca6Wy/IRmSITEMuIkBp5PCmAzSYIyqOYzFOIzIOHA+aYpMJhZ7AgYxc5QdRSe3kVlFYANS8SKnmX6b4EEHAZZeKZ3NWIxkKYPYMA1k+QzToHz1OZ/T4A1k2ZZtqXz9SWjTQI722Z8EOl/eUKAJiqBwtg/nQAbU2BA9dI2tYgalZAZ0gAx7RmgDQQ7QEJ//wJpD0Htr2I8H8AAfwASY0Jj0KI4NEg2mkF79qAAa4APPsWlnkAci4nPWtAtxKAZaRIctIDFFcBzD0AxcOQ3NIAv45QNQQES2qZIddi8eZoglJpJycESH9Qdy4Ad7cBsZuQVYBD7BMRkLyTv+MwAFmvB5Xyl5AneWxRgNqhkND/IM2NCMkzef9blmtyALmqAHG/h/eAQIesBHrygH91Iz4MOQKPCUYpAHoICVX7WVz+gMHgqfzzl5k+dV81lfB4oNCHqgodpVokqqpRqNz2EOCEEGGzABO9A/dWAMl/cPy7AM5AgNIuSY0BANEQIEH0BpSBACDiAQH9AENFmOHEoO5yAOnhB/O9CPEUCGZshfdDAHbBAHh2CQ3fAN38A4r2AIYjCLZ0cDEPYJtZAM0DBfAlcMl+AETioWXqqSAGVbGfmlltVrhhWS7uRYfKB3f8QnVuBiVKADglJGl5gCWiEGt1CMujqnzuiM9VX+p8s3jxErn8f4IDxlDPNZELhgC6cYM3bxf+2GR/4KBmGKBYpaFVfBAkXABZdgC+camF3lmM7hDY7ZqaT6qQfaceqwDqPKcX02X+kwX/9woPEVtBoHaUIbqukAE0w7EJ+0DUKwARRQl59SBrBKeQMhDdKQlQIBDc8QDchQCc5qhkwQAhHgACfaBJdwfBrqhOmADtDgCWUABOgUATOqKiTBdNQ6B3ZwCL+wOP7gD9aEC+SiBY9xibwTa5xQC83waOoADfNZDHYAUuwEpVbATuykMhk5r8nWpV7qT7b5fyJVBc9GUo9BKL1zUFphBJogeboKDeJgs8/whctnu8rXVdn+sJ9dOU2flz/PsJ/JcAu2EFeAEDNh8KVi0CdUULpVoAWY5T28QQMqkAJXsQKIB5HNIA4HMbQHKhClSqpCuw7jO77ApHFORb48y7PrsL7my77q0A7P0Q7zS77tAEz3i7/3ywpw5gpBsAEbIAM2V6FqCBFmcCFmUAnGsJXRwAzLQAzEcKQLvJXPUAxz4AMfIC1I0AESIBA80ASYwAyx27TlgA1zy4/Q+inCdRQ+J7jdAA67oE3lQqZaUgOxJpVtCUwIqgyrsQYG+A/z+gUAu7mDyGFh+n+iG5zbg1lZ4D3eAyZjOp4t4Byn+Qr6CXviIF/0RY+xB7fkIHvJKnuPRg7+B/oMnNRWU6MMbRl7SaoMuJAIsCEHf0qCzIsDgBIFThw+3pQYp7kGl0ALzWDF4+ANguwNDRKqnVcr8NBKGqHI8ODI7qDIHjEPAzEPkzwQ7iAQ8NAOjvzImjy/n2y/oBxpb9a/GwABPDAGBswflZAMCywND0wMzBDBcbqVxkAHF5zBwfoPJ5oENOkcgha3nuAEB0GGEHEtaJBCd5AHR8EN39DCwJBNYqAFhFecXEKkm3ALwAtM07DDnxAGXeAYU7BrTxavIRWm8bprKamSuZFZZNcYJhg8MGk5M+CUM/AK8xV7kCm0Gkde49vP7sAO67tUSlvGuMALvuCTafxo8+v+DT2JC3EFbIeKG1oUKBXjJQabGNZrBGZgCLTADAc6DuggyC1KDj/bZwsyaDDhEY5cyc5RyS9tyac6EI4MyjUNyjDRCkEwcUBgIRfi03NwEJmgDBLswFtrlhIcVs7KBGWgBB8grP/wAWXguvfYIBzHDuwADZvgBJQZAXRzQhPxD5lGB8vMCyTSDc9sImGgBVXWO5PTW3BgOM+ADurQ0LfwCXyw1lIgBVOAuUR5W4SRuZJIBQEbrwGFBTbzJ4SkUL8xKC7gAq+mJVpBzycwA3BgDEH7cfZrvuzwz+TFQI0caPPFzbWQCKIgC7iACwrN0NzMp59wCJB1qCWbWWGSM77+ARmTkbKuxseaYKQHKtLjMA7/0CBYfBDCJBDroCwwAdMtLdPGBQ+Z7MmfTNPzG0AC0Qn+u3I98SmbMMsCJw3zEQ2tIFW++g8+wGj/UEGbABMl3We5p9Wu+g8KMAFDcKGbdkJ/k2W88H3byq1MAQhgkAWE5xtaUm92ENfBBA3D8Al3EOC65T1YQER7cgVVMNgq6WKmOwUB5T2nm9iM7eFBCtmmSc8skBhGYAdpfI/jUI5WrQ5XjTafTdN07Q3NgBrRcwifgAvTNA1zjQ7zyUmy4AisBbJ9QtG+0TubJRxVkRgrOwc0CcjzBdxRLsj3SLRQfhBOi8n/kNzPEdPN3dz+nwyX1YUKAlGEqOTTZ44Gm+CL0QCOzWiMtIAGPVBxf0gBAqESbWAKIcyFBwHQ0aAJSMADOxAC8u0DaGAJlaAhOOF+rzBggdvCwgALhsAHTEycLmADNpzNQusMspAHcWA+UvAYd4y52QlQpQuw3qMDWaQDzStt4PMcuwOTId4CTnkVDcZddhDLtFoMzFCpshvSgsYO9VAP47XNZHYL0cMaOJ7a+knXrI0LjnAIH2kbfRJjvaEzNoDkLlB0jFoEc8DbTz4NUU6z+OwNMKEOWQ4T8LDclazu88DS9LDu8f7SzhHdz90/V3N6G+ABDZEE/vUcZmAmEuzmDku7tGAGcu7+aUMwEBQABGggC8j3toBWD9DACUrAA0Aw6HTTx0v3EHOw6Ljg6GidCHIQBn/CMzhmBLJSC/hZC58AB1JQb6AezivmdVeQRXc8BQfoGCTlksQpGS1wA0EP2bIOk1FxAihAAiWAAhmAooq0CZzACcVADLcap8wgy9AgaJ7tSuqgsceO7IZwMsvuDULLzQ8d5Ma7UVmgRZMxOZRBA5FhA6W5x93+7SAN3OKADeMQu586DhrH4pzdSuyQK7rS7uvO0vL+0vD+0vae7sZ1Ne1BCRIXAjwQBNGCOdrnXQ+BBqZwpLL6Kc8wDIemXmNwciLgABPQ8LMA8Q0ie5z9D83ACU3+4DZnqwHGkgmccAnBcgZ2UJA9p62PzgsjzwWHu1CGhHTDkMZKWgdrbQS6VcdT8KQlBgYA9RhZVAU6EG06MGM6MzFBfwMpcAMnEP6z7pSvJhASIxWsRgIkMAIkYAEYvAZ1UB+WkAmzkCDFIAtQH/X3iNzC3kDuABDqvD0zdgvWIUMJDR16dUvZNG8Rp93ChXCQnzhcqEzBUaNFihY3aNioYYPGihUmUJwwwobTMGjQ/v0bN04cNpw50Xmb2dPnv3rt4MWL584oPKTzlM5UCu/nU6g+50WdqY7qvn/lJvGA0GEHj387fAwZgsTsmDFmQDFr5ixaNGjO3EJrRtfZM2j+xcx88LEk7AQRDiYMgQOTHLl068j5lGYJyY4dIURQGFKJk6dMc8qUQWPn1S5g3Lr5I90NmC1Dd7JoKTKSZI0iWTTdmjbN2KY4RYwYKRIlCg4cWK582cPnD589YLZQ+Q28iA4cOXLYoE6jRcgUJ7SfuHFjRQuU3//NGNniBAn0JEZYYGBhxZIzbMxwtrxp1qZLdNBYuiwuXb162HEnHnrcUceqfwz6BCE5ADHkk1scisibaZTBxRFD/PBDuY1qoCGFFFRIwQUbZnABvBVOMGEFI+iYDZqaxBGnJmx+QgcbddBJJx112PlpnnqImgcepZoq8kgkk1SySCKd+qkdKKP+VCdKn/Yxx40OuoKMBxC+moksJJJAg5NkfMImJmzkigabbGKq5YwPdhijjB0m+EcwwoapMapmLkliBxA0cIACJeyYiZNK0BjjjDsc4WUX0Ubzx7RXDpEjiy6KqGHTkYoQQ5NhlEnGljy0MKIGF2rw7bcorgCDDz405AOML7jAormeOK3uo+246+6E764TFsQUTFCPBAvWu8ACFph4wgszzijjDDTosGQONOZTIw1LPGGGnCAHHDKeeQSi8JZPEDEEkD8AkeMTXB6qrcKKBpEjji2uYM4jEFUc0brrUlpRijVAjammcXyakKenAHTnn6GILJIqiiv2CSl42vHpwAP+2+E4nSj3sXKfcrCE4AMetvwqZciGUMKMYpaZSS5nziQHmpxwhgaVMT4YoowldpBgpsHsGAadAA/c0Sh2mukkCR540OAfDZK4hJhmisnMjH/uOCSWX4DpZuxvuAGGF0vDyNTDTV0wIotDcIkQlDWMsIFE2HzLodU9BhlEkIuQ+2KLLLCoYtPXaFD8RBC7c/yGFG4Qllft/lFvhBEY0PwCFoxwwos22jhjPs7MMH0zNNLojx0AhcS4HQpnegVDduOIY5C45Z3mGVteyUMOMLLIwjd+VTThhMlRYmGFzucANRqoxokJnRlr8mbHdNjxEah4ADwSHnqUokfiIZUkP8n+n16PKh0d2YeKZDI62AAEn4AAIuqxZqKjGGmaaSunM2FDRjM5jCrK4IEhOGEMOxCBCCIwAR/QgRhIq4dPHjYTSyghZROIAAecoAlmRIMYnsCEGZZgB0fAohdhG1s3uIGLg8iBC6zxEA08YgQtGOIVrwDFHc5QhBO1gCRRqMHesACGPRSiEIKAFR++8MQr3EoH1DmRdVzQOOyA5CMp+JCKSFCCy6Enc+3JAAug8CzQtQENa2TjHOZgCUtcwhPFaAa4ABSkosTDYwNpRjLQlZA/2E4OD4rXMyp0i0O4i3BT+I2HiqWSE2ixBcszwYqK4Lxh1EUc0JBRJ20io4T9hB3+2dte61o3k3ogxR1NEgqU6jGgcKUSHqtEik+iJCV1YC8iO6kYyYSwATv1hCxBCMIOzGIWCT6jZgBsE04OcxhsFCMJH1DCGcYAAhEQLYLGQIc7KviPXGKvGRn0CQfKAEJxZC0zZYDDIRzFwrFxYxexSISlslAFTbXNBUUAwyE+8TsgXoc6NbBbEaTwBSQKQhCFiIQgjrOHJ34BC1iYwnQAtkViEYtyxhIj5jDHnmWtgAhQOGMTvAC6SlwipZbIBCcu44llLIOTrGOdO2jKDoHsLhl+PISlZhUG2+nhFfFKRkE+AbzVMJKILhBRJUkArO9Q0gSdg8MnatGMmZxpkzH+4WT0xqGjHvHoQDjlWC5d2ZMdhTOcOOURW3mEvY+lY2EQkcg0nlIbb4hMZNIQQlfAMpMxJEGwSlgCWsZgCWZwFYA4eQo5ZrGEDyDhDEvoQWAOIAEg0EEab8We9tJBDmJMQgk7+EAFIuCBMmyiLjMxRSXKIAY9OAJswBCGMFwIjF7EQl1gqEIUSFKdGnRBDnbAVxGuQ4NUIc5TgwADGP6mUIX+YQ/TfeJEdZCD6MwERBRLj0cxp7kGZGAGRyCpE5yAxjZgwhOmmOMwlkGMZSSWk+RAB2I+i45R6ohCz9gpLl5hCOARbgtgiIMcHCELudniE4Dgwj2pIAUioio7KFD+SXjAoyIWzKAMd5jFMdrijLa8pRlveQtXt8pJrn7VG5+ckTjoW5OeSM8bMBLHjKUHIwpNCCJ4zXFd5/Xj2rxPr67oq1eSYFi0PCUTIYRLT54RwD3NBBqmSIIHlFCGaYqAAJflgdF84mLEkEMcxZgDZDwQAQV4wAmX+Ac0pDEMUFxiDl6IbSx4QdvackOev/ivHLRAROqQpAVF0EKhWWPDvUG4CDjQQmwd0Qi/KfRvg5Audb/QEytYYSbXyY7x0lMCFHjXo5vLABCIQN7zOuEMabwaW5jBZLhwNSablJGsofEM/hYVFxUBRBgGPOB75cGfn1iQu7KwkX05MgUUPh7+SgKmkhlAgQ6ywFoy/DfinSZDxNeOxofr8paZdJLW4u7kTKIhF7y0xda1MeSPo4Hrhzzj2s3Atf/Y0m3//SPfPdkHK4IAAQwAIS1liAoZLsGMu7zbGdJwy7vfHUBobEIJVn4CEjQQgQMcYAI7oMMsenJinDljFmZQAghAIIEHqFkTWGNGMUChiTqUAQwpjEUwahvPsznCUlxYm4dOBBsmSEE3JFpVFITeaF2A4xq8aAQf/PZcQUwXooPLtBUM948cXPGRxyOBCUrg0ctpjllEmAkUmnDeZ4WuDXUwBolJPOJuP6PbcmELiOed7VrI4h+/AwMXmktgOcgBIZ+4A4D+M5IFffW2JCBi9orCE54ZGAENoFpGMpZhjGS8eqczOUYyjvFqi1nMGMzINlsyb+/T7/QYwzBG611/i2GwHvOsH0YtXH/71vO7FUDYQAcEXgbSSWt0ZlDUkhcuDeT3r3/JQH5PmqGJIYRACU4YAgYyfgAMFOqqMXn7M/6RDE7Q6QMYUMAB1HyJWcReFp7QRCXOAAdHPKIXtG2h2WJRKQD/2UOB3lRJtuiCVVE0LcADXQgHfAgHcNA5OfiD56q0PfCJTGOkrNuunkgP9Ai1zLmADJiJIzg7KEC7k1I7OsgkfNM8ZlAG0juGzmu9nTKGZlCG2xsGWpAFWciDPLAdWGH+wAILvDgAKi4IgyzYguVgpBqaMBSgMOZ5PBYggjPIhE0ohtijBWIohlqYBVmghWEoBi3cwlnQwi4shlkIQzEcQzFEBVMABVOQBVDYhDTchE2QBTfcBDR8QznkBE3QBFCww034hE2wwzv8Q034BE3wQ0AEBb3ah1boAb9Kgn8YA/OaE7QoA7TIBJaThpi6RJn5h/jqH2bIBCDogCFggiGYmp5AAjrYhJlghtYjBmIwBmL4h0woAx+YCQVIMyawAzeEw0xQqTJYgzuAhbCxrRY6m0oBhDjIgiLQlIF6DcZpAVUpOk8pBV34BnzAB3/4hgRcQL85Dj74CeH4hyjIARj+8IkUqECOQpYMkIEzOoIncIKfSKPQYYNNMIZhmMJimMEZnIVboEFT4IQ37EcrBAVZmAVQAAVBtMF10ZBJM8Y4oJUnWg4quAIu0Jcp0JTrcCpmY4HlUZ4hGAM0SKlL2MVLCMlKqIQ6CMmRTElLqAOQjKNLYMk6gEmZhMk5oIM5sIObxMmbXAM3wkk74Mk5WIM1ID7TYSM0kA80WAOjPAOmXIPROUozOMRV4IEH2AAeIAswMYsk0MoxqIT0iz2wDMssjD1mGIZK4IEQAILHqIABmIkQQALn0UM35ART6MOZILieOIAOQII1YMmS7IkleIJGCcZIMY15wpBj7LmSKAn+k2hMHAjAZIQDXriGe6jGe7hMbngFPdCDQYCV6RIcIdQXIuqJjOoX9FiWDCCvdwSdnwgdOLCDkdQEkbwE2FzJOqCDmKQD3KSDStBN3bSD34QDMRADOfAD3OmpQ8CILzi2KWCkKsACK6BIHLCB6/C0I2y2JFwBH0CCOWHKzXhE8wIaBXJERwzPR1wCJ1gC9QyTJRAswWpPwUKCsiALJVACIjgmJRiC+5RPlyELIhgCsYCMlhFQ+5kBGQCCABXQQ+yELEGZOBHQqIEMH9jOObgE2cwEDPXHQfRDTBjEWaiDHdCAq+QBB+gJKzuDmqxJOmAD3azJSmCDadIACRCBA+D+gCFAT2lxgiRITyRgAvi7M2EoTGCYpxgKAy2Qgv4zCbbJgSKSjlUpAiiQA13Qhsus0stEQEjrxs9Mjn/IFyzwiWEhFhXJgAwwgiM4KTQNQbVbU9ccSu90RCZgAidggvYMEyRQgjutz/rkT6wkgkLbgttBTkLAiOBhjmSMguaMon2hThW5zkoqgY1cHhb4gDhJGRDwAErNVEr1AE69VEoFgQ/A1FD1gBAIAUotVVSlgFL9AFRFVQ0oVQy4AAzQAA4oVQ141RDQAFWlgAeqAA761QiQAAqggAmQAAkwrQlI1gk4REoAAQgAAbQMAQ/ggGHVAAzg1DhxAqV0o2xZI+L+Gx2m3A85C5QPoB8COFcHCIHtNIv81FOXSQLTUYIPuJMDUIAJAAEfABTI6BL9JAIxcBT6iyf7OwhDiIMjVUaSsKEi6oghigLdKAI9uAUqtVIr5YZY0INK60afgI6OwJuLOg/xehY4YFOSLdk1eAyTu1RO5VQO8AAMaNmVhVVdxQAMoICa5YAPmAEqCAPjRISeGoSGzAJGKgIbKIJEvQIrYKQTMZ5KqqSNVB4U4NUFiIAHSlaqdQCqlQCqrdoIMC2q5SAJwFoFyMsIcIADiICKKVsFGBpahIpafFu4jdu4fQpzmIQPOJl5nYmt5SCb1QAQsB8EvZ8dwEoeAAIZMLn+n6EDM/CACSBWn1AADthX+aHZDdiAlwUBJZgJDpCAA+iJYS3WYrVZTAUBLcgD0AhSgd0FXsC/Y6QhxBmi64qOZ3RYKNADcPgGiq1SfbiHb9iFRpADqZuJKLoV2e2JgMmwJxhZOHgDksWDN2Dekg2dI+Cgst1aBdha7M1e7aXaCmCBIthZP0BOQfCDiSTC15gCKrCCjYiCmUCJpm3ap2WBDLgAuKUYAqCKsf2Jt0WzAyCA/cVarEUzNAs9Ao4KvTKHN8gSEOAAi/GADTBW0K3KBzDWB8CA3lMCOHCCi3ugijHbjAtbDdiBsKCAf8i4O5GACXAAFXaA/MWAD4CCQ3j+lJtzIbPhBYLtgwYTuk3hjd4ouqLbDTi43cvUh3yw0t29h3C4Bt8Jg0vr0kzDAh1gJNKcgRlIXjzAAz244jfQYj3YYi822TZ4gjNT4euFWwOoRQMQYKolgDVm4bfVQBqIAkB1l+Lcgyu4gor8rRrAgedc354QmKYNlvAwAQuogLelmOtFW0SmWlqUgAW4Xp/IWq2l2vwtYEvmNytRgyzpAQ8g4BX+ZBU+gBWmjDZwgg54igHQuGDyiesTDPoBAQ6KZFFW4aeA4V04XT3Ts3mKhZ4yBCDEJ94gqB72DSmogioQuipoNHCY2Nyt0gPERkf4O1+7Y4qaiem0gSewg1H+GAVMwIQr/uYrboRvbgPoJVk4OIPH+ABq5SC5rUU0a+e4vYAVqIEqANSG5JBwpM7rcIHHrAIq2BfrYB4KY4GpejwTmN8K0N9adOP8xTis5aBsigp4jts03t9K/omMK7/r2+j+vT6K0atyUIOu+MQHytoS7QlFjgoT7omAwzIPMFsCGIABEID7nYmMA2WbloByDYGEfooV7ly9rYAj0AMZDlI9G9JYOAiEwJcHK4J/OFTfaM4pSOZC6wIpkNJw2N0jzt1qDIck1oXNVI4o0jRwjAIjgINRSIVTWIV/0IRuxgNKAGctxoM1LeeR9YIncBYkOALSYueMTuSJhtsKyID+FTBa4fHScPSQyaEBPkbfKrCbIHJfx4tUhNbovy6/uC1bscXewO7sevWJk8Zojh7tLQPqjf4JkCYDCNgAIDizrw1tlRZlj/6JHXACJACMn6jpEvZpoMaASw1boK4YCZiBGAbSPDubpFbAjGAOViFm3/hn4YluLRCDAtSHarxufLDSd8AHbXiHJAaHUtCDO6Zmw3kCPUgFVciFf0CFVSAFTNhm+MYESvBm593iNuji0FkDOICDJyCpEDwDMjgCGeCAB+jfzpZbDZyBmUC8pOUIThGWVPFnw/EtgIFfJUSBDDAtBSjtjW7ns0WziL7knjBbjJPt4C5gy844Dh9tkP7+pZnQgND9Cdge7dFW4dOSTxKGCo7+6ZXGgBDAAEVO5Vb+5AeqRRmQg1g43doSBqSOBZ0r2C9gjsck5mLWgsMWwtXoAjF4hW+wbuu+bu0+B20Y823QhmsA68LBAiqAAi/Ig2qoBl3IBVVIBVQgBVIohVIghW3uZvq+4jSCXjzY7ydogrMLwf2GAy84AsZ95wN/Y/HCNKVqG2EZomSmgiqgDvCoJCSUVBWxgEdW8RWv18AWcdB2W5umcVS/Pg4/Y8zOaL3ahiLjAQYm9X/g8BWOrCFI4ZiWaZl+ilk2W9j+B4zzdQUw256oRRAQKiVn8l3ILVh4cuCxguamAi3oAiv+L7QgFB4tcAIt0ARtyO4vt0wr7W5tCIcxN3Ow7m8oEING0AU414VUQO9TOAVUqHc9H4VOeOvnfd65vmJEb4IjOAJnWdMsxoNEBwIMSGFRP3B5NoKe+GdGio4gcsbGnmqTuDDjkWxjuYAKMIBUF3VRZ/VG7+xj9+zrS/EOn1taLD9M5qsO4ACpoQoAzrheHwDdtmkV1mkk8AHAiGkBqJiNVuSaVfG8/Ow7OfbBhgM724XaumVeSGpY+C8AAwPmwK4ooHZDs3Jtvydrr4RryO7KBHMr5e4D9GpzXzo9qN1XAAdVmHNdaHs5R+9UuPc9p+83aIQtlus2gIKAPzu120z+OMCDmcBiL0ACWJaAt60ADdfwWqwAzlFwLQjNjWDYSc+BKnBsu/kQEDmeE2ABZruAC2CAE3+KkS99069FjtZo1X/b0Uf9zxYZc2iFIKAaEZZ5tt11Xs99n5CAHniMVRaAXtfx0/6HCcAAn5BpFc/sCbjeDIgDsOmFpr/lX0huhGCwjciB3qgCbbdyKtB2andY2wX769YH8rfuKzV7M7+GBPQCKLjvRmh3XYhzZECGmZhzuofvcN5icQ5nPRj0gH8CgHjSBs7AgXgO/vuXB4+bJ0A8TFCgIALFCBMtRqiQYYYRLVe2bNEypUgNGy5aoMwRhcqUKlFymGyRIsUKFib+bmawcGHBgZ4+CfjsKXHogaFGjyI9anHoP4lFkwZ96vRAwqpWrybcZ25fqx4bOoDQQCHChAgOyFqlinXtvwkehnxwgHVAVLU+HeCt2nPAP6BCKV7EmEFOrF69gO1KnJgXrEOHDBkKk+VlERxRqmjJkhlklipTukzBIUYXPn338KHWp1ofvnvhwn0Ldw1cqkZebtxAgfuGmEa6UhXLJVx4KlKjjo+iROlgI+aNMI1q1OYIdSZeBhLUc3A7Jkx4uuMhSMTD2IoSDUiMcCGDDShZtmRhGQVHDZQtaNSIMkU+fRr2T5BwkwkZXFCBAlENQFdQBzow1VFrGSWVU1YZhdX+VHVhSABbCSmwj1areAVCWBJURKJZeElwQIIrspighv+c5cEOHIjQ01pBEeBAVA84MIFPCS44VEUUZRBGL7wctgs4iv0TyyuP3QFGZziQFMVlWWDJGRVVSCEFDlA0cs0332hTJmytkflPNb81d0QGDSTQwA0ZzCnDEXqUkkoqqqiSSi6nIHdcd4Hi0cgopZSChxfUCdQGdnBsF6km0FGaSR5zNBEWYEtJtMBGRlShpUs10ODfffpV4VJ/KKWAwgk3kXABAwsgEJSLCgo1UU85SrRhUxD2epVQvhJbbFbmdNLBBCIamxABL7J1QAQUfMDBWrhi2FNeG0pIUVkRZBD+R2GH/SKMYrE09hggcWwRRREk5YcZfFjGp4UUReSgg2/g8NuvLrzo0pwXTxwhQwYQINAAnbrd0EADtMqARyqlrELKnhOTkrFxFB+HKKKrjDLdEU1c5+gbkEb63XeYkKKJJqNM+jIeZYCAgXlDrWeDFO/FN8U//flHg0pWRlHSSTPdhMKAFjBggAEqVsWXrz2JsKECzWJtFZDP7qUgizb29ayH5lDSwwQfdEBWRRPg1baw2fr0gFsTVH0VrtiqlZBcUbuYq1EVaRRGLL8AA4y5ivUCiyPqgrGFS0W4UAMOmF1Br2ZaEF1FGK8E7EgjekxHREIYUGDgAU43gILqcCb+0HoCKmLghcenpLIKKqisgigpt9t+O5+n4EFGE0c4QXIbeFj1XHfLY5KJVaToPgoeZwBhs1ELWGCEFFuAIVkWV9kQvmUv5UCqTK+iQEJOOxmQYEJ563UAAQMANb9PWdut4LPQOtui/1Xxz1jmmMQGHgCCDrAFL2i5VrYmoBe2cC1be3sfkHzyN8AoIFyw6AXhzGUVxT0mMiFxlw3wox8taIEK8EGhlaTQES94AQpEmEEGKvCABaToAAjg2gIawACH0eqGDlPAA1I0gSbkoRS0y9MplGgK3/1uT31qQxOe8AQnNOoNznnOKKrSRY2h4om3GyPI2jCesUikAiuoAhj+5BAHLLFkCuUrodByYEdS0QBpA1KfrJzWPqnZbVcKwtqu/IIj/q2IW/5jEf7M4YYOQCAsVsPfASQggX/8KEECqCD8MHkAHVlFRyuKilEmUBYFYEAMseDF4HixC16wMhaxWNxj/rEFKryEVPm5TBWooJnOEM0IMwhBDtGTAAPQCgELIAAyFdDDOCWghxBwmMMwYE0JYEAGbWhEI/L0CifSTk98GucovDC8kTXBINEJFDs1RgqQZSycueBTcRSlBBlQgAJE0IIc/vCHL3DBClOYT6nqQwMb1ACPMoGV+gikAANkTUV0mR8jscYiio4Sfxr9hyM3EEkNsAUjb4ObtC7+6UlNAsAqz7rKBImlo7NcLSEpyoAeWAkLWMJSlrKEhGMMAYgv2Kt8NDCCEay0H81M4V4kWUEGFtBDpxrAdXByWusM4EMGZIAFGcBANTEAAWtiwAMewAAIjuCFburpFKdYxcVScYpxwuGc1EnnQTBxFUFpjGKk+AcmOpEQPemCT7lABjJmsQrvDEwMcjDEH/jAhZ4VrSQHrYELSoU0EpDAAjqxgIEoutHPgja0V3GFGjawAa9g5SwiVSneokIRjbaUWH+piNw+4AVH5HSVOYUFLB6BiJ7acjI5wI8NxjeF/eDSXQltwZvW8yYJ9JB1DYhqVRlwAYXdQAYzkIEMOGD+J+ocgQjcBQIQ0tmIi9FzT3nSRSkIBl4keAFS0DlOxkYBvYwVR2OCGkU4VfFW4RiDsMKxRSPycAhCCMIPYbjlcelTEhvYpwWvKgFmLRCrC1iEfvJbJIcvGpS3PWtFGN2w+0SLv3KQwbQ82IC3KCKBb+kqa2jZi0s/2TYHmJRbD0iIWbDZhFJkY0m8+AVOdeoISPy2lvDJ5UFzML7LDPRdB7UBDSugkTctIKoxsCoyo2sBa3J3BuA1a8m88A9zUocIZG7EKsapXj01IrzUgQIM62rfjo3iidDLk8dIAR1SmGKe4xzOPP30rycdQhDr2oJAcYCD4eIHJSp4lQkwa+n+WC2zxMTiMFBGCsD9rfTTIZYo2E5KFxMnpBxCMC0ITDkkCag2poTsEQVEiVKtfVJbN46AbM9iSQgAoRHaCMc9uDFkIh8JFujiLZITIocvTCah4XOyo4n2roSWhAUNWIpGHJaAH8YgugoTs5q5S52SnewNb4AhDM+5XbOyWYp6KoUX1HzuNmgHD3lGRXFQ0V895cKtpaivKWjXp9sNRxXC0YUuXvEKnvpUDly4QmgeXb76pEBAl7Y0AxSA0QBeJcR9K5bHeY3qtHSt01nbxqrJupYco/wuUdHRARzIFkCuxW0xDwpeHgBsOFTjHqz5xuFemVt0xeK3/3AjF7QAE/z+EJfaVrp2DWag1QggwCngikE0qeuwDGSACFV8QhNIVjKTOQrtjjLnP8hrVjyUguGlsA14SXaQUbDVTwkXJ8BTgYqMoWLg/X0rLQjbp4W/YpaOEcQfwGCFODp6uOc7QfosvZ4CRWB/I5dxRiIgArWVxUQvrgqsVYtjS8K69BS5ca7vByMdHcj1xGJFECSggVabnPRtSxG2GPSAB9gYL5VciwAAgCsFkighFQj9BEgkcyJCQAblfcMqtMEafLxDG9xIDDCqIkvewiIR6pK403U5ZWq/ywjYNgILKiAUaTmzqRNBwAO4mgEOlNeKToDh8fDwhj9HR//ZwRucGQyN2Vn+6QkejJlAFAreJVzCKdxv0JPtJMTtiFOfKJygIZ4j0NIggIGUUEEIVhzGVZ7lWQCBNEBCdNgmtUgneYsGwGAHfMUGhAANhgAMasAGiIUG1GAIdMAN3uAPagAGaMAEUIApTYAGjNURGmEIiBV5LB/WsAIPuAXutU3uwQis5U0lUQAEIOEX7piwDAALrsUQcgBYccApOUARdUB54Uk1bMM1bIM24AOZaEP2CYPhmMuRJA5bZIEUCNV94NEdYRtC2UAGNEinDMUCSETCNAAGZIAHiJkVOYod6Nuh4F04lYIWbUcbrNuijNkR4BsoHgEUPEF8dVOeENoqMlx6kRG/YSD+nyDDKubCK3CgY8gBGEBbFuxHFTyaf1CepWlWA1zACVaAXmBUh92KXxxjVQzBDgxBNErjEChBEEzjEPhANELjNEJjN0KjD4BjNm6jEiABEiSBEyDBDmBARBhLV3xFq+lNEaHeJeUQVcgFBnxAD3wAD4AAEPDABwAkW2zSVZCXD5DXDhykOnpUBxzBG6QCOHyD0F0fPpxDmWjDNrzDbAgDN3CDMGDFIzjGuryRFETWfYTPSUpbQuGA1TWABEiEBNSKTyCABHwVJMrADYiiJ27HKPAOKvTJxLxB/yHPP6xbKBrlXHlBA+bdPNFiBhbaKYwReo3TLAqHKjicLS7OIPj+QRx8wRZcwZaERh61CoVVmGad4FZpYdfgXNaUgRmUQRmggVu25VvSJV2ewVuOAV3mZRkkQRK85V3+pV2uwRzUgR3UAR3MQRkQAQXI2kh5CCp4RQ9ABKxVxVngGI59GAbwgBIUTxMsQWcqgRI8hI/ciAN0AGeagRoAphO85fA0gR6owjXgQz7Q5mlk37CFQ/Ztw25aAzhsZDd45D9wUFUcQlU0DiCWUAtUxZSVkC5BgdVhQE/QyutUUgVgk/15gJ1cB8roG6Lgju2wVchw4kEEJbsd5QHGl77lnRTRIgT6V3+Nk8JRZcA53C0eAiD4gS7CBy6RhAu0yqXpxHWBHQv+YEBsAcmGAMVEiQAIJMEcWIIlVAIdSOhh0kEaWAIdRKiESmiEVoIl/IOEzgEbaCgbzAEdkOgdzAFh1kEdXEImuExCXAIcHAEHeFyLqFxVdIJXdEAHVICLmVQEoF7mKYhpAsGHzgEaHCkavIEaqEGmsE2OkZoEgEATlOhhWqIlYsIp6MKw0SZtmkaZXEOYaoNtZl82XAM3JASaJoRh/EIsJIJVMJqDBU2prEURCNNWJYCC1B93cVcHZKcMgIB22pl9uVMp4M7EIMQ/DGVQtkG7lZ1rMopAaFEjkMJbSREGEhpVuhk9OeVgzWct1mdIxsGCxYdy+SeAYNYIjECAapb+mB2B3tgK1ogADyDBP2hCJuAqJrRoJuzqrk5K82SCrl7CsF5CHVRCQlRCsrIoi15CQmjCJqyFHTjBBzTmhpTNaSFQApGIA/jFA3zAEmDo8lgCJlQCuapBkVbFB0TNAWyAE3xHPAlHNVjDHJ7G9SUEbFykNlyDNWQDHeJDbuorN3TDwHakMBAZK/nWIfjBHnwBFaxKZSWnC5gEQnGEEaBABkjA/EiAB5RXFYEXEIAXESBBvmWMEuUV7yAqpZYCchwE6HiiJ7JbzB4PNxlqVQiWKggYoSlcenUqMlTDLApWfWYlICxYCM4HqVAaCZTAqqpqZikMCDwB6IAAzWVSsVT+0rce6z/IwiZA6z9sAie4qCZcgsvcKq7eKrGiLbFWQtoSyx04AQjkXidVhTmgQluwVFVEwCeRSD0+ABCcQUJsAia4TCcQ7iWgAbr+gwxEDQFIQBNs6T9kwxyqQ5mgRpm8wzf8QzhYpDb8Q5lYw+cO22lowzd05MB2Q0IYLCwlBCL4FLvgkvmgxEGhREKED0fQ0AIMwANwgChyorqt3dg1ARlEiqHk1cDlziqsgr6FE1Y0h7qtW9o5CqRQat1iBWF9qqDpid5lKlWyl9Cybn4y2HzgADBWmqWNAAmo6gWsBxHIji68AQiU2o04S1R4QBLUQddWBSdsAtnyb//eqsv+mC3Zhm3ZZgIngMImgMIsKLBVzMHb5i0nRcU+lMMkVEURqg2Q7i2OsU3cAIEXYMLtcO0mmMKzZsIbKEFVcNf7KMARVEPlbgM1gCkd3mGZmOk1bC6ZZMPnzis+VEVHcqTpJsQvtKn4DcIf7AFIyFENWAV+WEXt0lDrIAAHNIGhIMpxNMd2wAGjXmKgkEJ8YmDyrmef5M7KXvF2vIEenAxzHArAtadw5GyhsfEs6sJgVUMu/EZx1CciaCW0Ndj41sTGna/lZQAKHAEclAIypEIbFGhdcItQaAAS1AEnyMIsbO0sSDIn6K8pyALZhnAnc0KxdDL+WoXb7sADDxJWlEP+ad3ehuTFEb7PBACBGVyCGJmCCOtvJrABEByhB+jFEQWd0GVkNdjwboYDavyrbs7h5obpMuMrR/6m6ebhLiSEYwyCYzFa0YSP+YAPlWUX62RAE+ABW9EOv1FMxYwCJryBG7TBfHkMogBWKyYgW/1k9h4vy5axGucJG2fgz1ovPwPtoFHlLObsxDjCK8ACJCSCIDybFVSBUGWcCVTe6jjM6lgACLBvKdjxKXiBB+AIIMnt+3gAEtCBCCtwSdOCAoOCKVDyVchCLbu0/nayKdRyKG/CJCvwLcgCLYDCJZjBDviIIdWFBJPBBHQAD3TAi7XYpkjAEfoELKOB86yFJrj+QRBQQFWAgARsgBdUgz7kQ2nggzZQw7zmazioBmpobr4qs5iOLukKQ1tzpJr+AytlpREz2kCVxD9EmExEjg3cwHZJFxFITJ+cwhPJW+0clhYZx6HM3Z79RivOUzjzyT9wqptVsRXPHfGWQlXMsUAT1j8gAzVUw89WZS5UBTVQw2cL9BxPTCNwoCN8L7QVDauojvmmzghQ0wkSARSscyoQVim0gQwAH4m1VlRogBLMgSYs8FWUNCXb9HIv90lXxUlv7QETy06bUWcdCFug2AZwgCQVi1zUHBCsQSaIEQhzAilwgh0EQUL0I0ScQTasxml8NWhbw1gXszHn5jvod/b+LbOYvLUwdMNbGw5iIEksHIJWgkFADRR9VJZ//IOptEDtygDrJAAGNMEpiPZavVV60Q7IYMLKrsIdL1H27sljl4JgjXYG3nHtJHY7/wZThrYq1HFoh7ZpW+8wuPFgnbaNUyVBc+BvDQJXOizGJQ1tqyoKNIBtZ4ARPMEZSMxnp8IoxNXUyg+GYMVbzMEsh9ZJKzAt0IIstHQIzzQofAIomDmYywIo5EEb6HKxSEOKeQAPWAvWTEAQEKBVDFxCcIIJU4BJyUATbINEljX2XYNpY+Q5nEMx37cxY99FzoYu4BYw/LDpBnhwshJPAYIcwMeCS1sJJcRJRDiVvUkD0F/+AkDAE6RCaM+iBf4kceTCykaHx8xbPgOWKiTvKHiqHQ/WcEigYJN49magz9L4sFcDj+86ZwvYfOYOKdhiIiACIWxlw76ETKTACZwAWaoOCii5ZmWAKUYtRiOy9EjPRqPccBf3HEB1aNFyLZt5CMM015Z5vINCQlAPBhSLKwTBBnAsB5jIa0XLAVAAEKDBs14FKnAtHgCBKVm045pGfLeGbIR1mST6a9gDox9z9n0DL3iBGEACMFC66Xak0bnpfUrJQF0c1OX1Qd1uwkwTBEDAETSCMP9sE1lMq896ZbtzbZC4LtBGoaC4cCTEHNNiYAEcphIWsQ+7jXsqZys9cTT+0aHYom8RQjVDW0MTueqc76pagG2j7wWwQJM/ARyMQioEFikchBLFWT1GhVXgXxtkAkrLNNc6t3ObAlZswu5wrZmX+QFz7bPCO5nPu0LUWwhYSFDswxSG1VXLTYkEaVpEgAYcgR1YxRgZvCa8QfUsSxNAZEKUhmoI3VfL6xyewzssOn5r7m02AhTU1McTbFt33+oeQi5ugV2bDw0khKn4B25cgDK9ScNwVxvoghwS1ilAT/bO8RhPjMfEuqwzHG1oh4wzJTKshSqc9prY8XyaNtITe9N76mlbL3FUzFUmrCDsMRbkkoSZwKukqmaNwAVYGgpcR9iP/Z8k73doaSn+HAEE1I8hXcUQoMElAMQmWaZM/TN48OCmggg3Gdy0idPDh5o0ZdIESuJDhAfzwCHCYePGAftaBTGoAcKEkA4kTJigweABBxyU0NGECqepjJnYAEkJpNQ9ofjw6dNnT989fdquXcum7d27cPimUsVnL1w4bd/0lfIiCJiwbmPHhvznCJGcOFyoTMGRowaNGnHnIjxBokHeGzd06NDjxUujbdK2IUtVitQoUqdypTpV6tQqxatK4WmUCrOuVLo4p2qDJxWyXNWQlc51mvRoatSqtW5NrfTq1dWuuab9WrboXMlgly6t6hXiV8MRITokaNCeLVRw1HBx44QJEySoj7j+YOFCBgsjLKB4IuZJm1GNSZHCc77UZq8ezB7UAAQNpowPUbUPaZGixoQPQWnKSFGTTzYB5ZM82iACBPsOYqWHDQyaIIIII5hAAglYigCDDiZwQKYOmrDjJlNQMYUTgipCw6cO8NBGKKNaNCoprbSZUZus7CEKR6KyCkcfcOxwRJggu/GHLGE2csSgOLKoIorm6LKBLhpccGEFvBpAYS++/NKjjUau2WabalJBJbFRSknvsDPNLKWRUTDbrJrOMPtsFd1Oy0U011iTTc/ZqLGGmqZcq60p2XJDZrZqTlPlsPJKeQUSSBARxA85wNgCiyhqaOGGFaSbjjoLRLWgAe7+ZnjCi/DcPCUxTN7AY5RTdEFGlUaAkOCAXHXNdQIgzLgkIwXto8gs/f7RRCf+LjKoIyLYE7aVHkTgQEMJIZwwQgko6OAfXT20qb6DUHkoEzR4AAKPbYrSZ92k2GU3q21olCpHoqJ6Byl9vuGlEV6CDJIbboABhhdeYoEFlkPyOGiKJm2wQS6I59rrnxv00rIvHfYKDBxBVSETsTPf1KWRRs7EoxTNUgYnPc5KeXWVO0/z7R/YZGtK0Ntss80anKuxxppqYCMNUdYUbewxUoZ7Ba1DBvEDjC+2qKKKh1dg4VMLqLuABO5IEJUGVFXFbBRM8IDjjVFUyeWUVFbBA4j+CXbVdYIdzqgkWGERAhDATSzKhBRkK2rIoAD1VrCTBoWVIIJtNzzggQ+UEJeTERvaRJM3lKBEm3fbhRHGrOaVCqt6p8qHn37y+caRV3gJS5iBCe4lllgMcmSQg6oooggj5KrhYRpgyDJLLIlv4IYMbjiikY7jRGUUxc5E87JSzIw+vTN1aRkzmNe+07fYVrNmG5y/3MboQWvrueNrgOZT6D1FYxSxxZg27hBALP3iCiab89QEKPhaA0I1gq6NIAOn8sIRvAAaMp3HMmpLBSZWsYpG2OEIEMgVQup2hjoIyxQYmY9OMMG3iphQE5wgFkJKhDmDwIEJz1IQJXrwAA/+cOBaEHIAtiLkOA454ANNqEMncJKR8mgCVtogSj7epQ9+6CMfTDQKVsJxDqhkhSg3ypE++tHFKF5DF454HcF4sYsjHeIQCOEdDqA0FyjRgHh7GQEKrmQx5GUpXa3RBfQwgYkzXeYwJYveKCzDJpFtZnswS4Uqvica8bUGTJEsnzbK15r1Aa1n59sGJvdkKGSoDDEVZNpxBqGWS2XBLc5ZgadQgIIMZICAofqaBVhAhCOEBw+rSAwp/HgmUqyCkaswGx6O0AEHbGQHZahDJh5iilkkq5kTwdxEUFhNaxIOIXeAAxJkICxzUKIDDtpIBBgnoZBEzgl1uEl9HlKeTcT+rEZSAR2MmChFquzoHefICr2qopQu/jMf2hBjwQh6EFg4whGGsNRBevcwiEmMU33ZS6kMMoK8XHRjt9GFKsqGiZK96Y+DHEXJSnbIRIKGkd+bWdFo86UZgakplPRZJs13vvcZajWGSdMqMDPKQ1QqDpfCQhVyYINVfgoFCKROqPLyygzIgIG5LM/HKNPHOp2iEW8wCB7aAIIHHNMgIHACiA5XVr2FayNrOEI3zaKrckyiAxj4BwQqVFdyMu4BBpGrQSTAgzIcJFmcUGGddrQNHtEzilCUoj52ZBWD4EOf4TAIFP/5T31cg2mwqF0seIGwgx5CoWHIghSicJCHAW/+LjTIgcaKd9EGMIABd1yeLsCkC1adJ1aBVNMoKPPH7L3pMJbhKSNlhozX0CaSNKLkS8vnvppeY0ZNAZShWtOY6S0yF69AY6X2dwUqELUF0QlgAA1IghJYVFTWucAFFJABKOghPbn4WGJQoYpVaOY8r8IDyY4gt39EwANLoINZ7XMJ/FAEP3moCEJQMYtZbGSbbN3IAQgwgAGUww0akuFKDnAQB3z4ATw4Ax5yIpFOrKIVSgwHmEC3rigmFkamayxRKJuPytoYH7nIwyEcoVmEOMJpQaVCEU6LWihJTKITnWMDYJmXEWTpCLSN02GGWYpVvOIwIrUeSQ+JmZe5Cbv+M0tGbDIZSegql7nOlWRMcYZJQKUmTelZm3afFoegfmFJmqJBCpAqwAws1QIMGIEBsbOABchAPKdABquGmwrepgKC59GFmJrQgQgcwANJmMMlUFhCEx4YwRW5hIERMmpNKNjU2HwwRwwyhLYewMLlUEMHKOABDNS1nBaKwAMksOEIAGHElDOFZNSFD0oadl00NsqLjVKve2KRxjauLEDDYYsdt06zsUDoIeQgB7M4FHhZYu0N6NhKgzgZypOurqMh6Fs2DVKQPB2Zfd9wGUbqYmasQVTPANUzec1IRtFtiiTBxFz0/SkbQ8sFQc6kio1qVw9x2N8WtNAwiPF5vAL+FOBSB00CrjFgAQbAwBHGY1/GqIJVmuBtIyA4Cl3wGw9IqDUS4GAJa36ab5nQuc4pMmqfj9ogmRDWJdjgBBBQwCAEOEiuYk2Gf2AAh4yr0A4tdABybrhXZ6AEKcKVCU5UUF2MjWQ4EosVxT6x2VYJR+m2mI+NAFR139ge02LxCtsdRAwGaZJB4lLkGkABCntppR2dbNEUZMkLqXCNdVv+R0GO1GS9TRkiIW1vh4NvfJgU1L/RTCOCn9nzQfsZ0AyDCsScYm1h5LadwcCFJe0uLidAgXRm38qNdw07ogJ5AhZAhDyMaVH2LVv0slpIXZz5GrnQXBLQ0B4AeVoTheP+m7AyAXS9lWEHKjnIAJR+EFcIYQMQ4JZ9JrRhCgzhV6XACSoiQgpV5OgdYDrsUaCi2BZrUdkGiSJCpu3FfFAFHHRhOByhEQ5BD8JADKggCopAz4AneKCkCG4g8JTHjpqM3Ign8VxDMyANgtrEA0eqkHrrTU7jFNwAD0whFWSGM0ZP88iH82ok4AzuKV6QKVgQNsbkl1IQGcDhFQZBDyxlC7KAChTQd2aA9j6FBGhvVNZLVC5gARJAARCtFFLqFExvFDphmHArNH6mNQwDD5qP0ypC5yoBEw7n587w54ROWCrBDsYg+5bOwixMAAbg+zRgAzwAQq4lAiqAh2oNITD+IAjiQ0RIQSJMIRfo4SiugpLeYdkY6x1czP6g6CiiCO3cTv/6rx9S58XwAYxsARIawSDyrneKgC76jgZmQC76IvCQB0uaKi+MZy+gYBU0cHuysOVYDlYcpcvu5FVQATOKizXcDGcKbkciC83+jQad630Mg1V8UReogQfzJ2rwTAGJ7Go+hfbuwgS0w+OwowF0LwEQQAaaoBEYCTPIpKMizU2Ob/HYRhPooBIQTOcuoY8OYoUKR+fKCpvsww7KYAiQrlsIYA7jkA6F4B80AA9bQg+tZQI2TAOUQBAtByI6ARkk8RFXrEZgJJ/OQRJfLLE80iMPIoow0bKogil2AciUlMQKqsAIwC0uTnEGZmAvNOYI9kIGCM9iYHF5GkGPVIaQ1BHyFKM8EgNNUrAxFAl8kEH0gMa5kItGdmRHlOspOq+5MOloTMHKRqNnbAG0/EBqvssIiqAFVgmAZo/2Wkk7YEn3dq8BxhEO3CSYWiW/0ANPbGN+NKESCMweran6NOES2uMTMGJv7uAMhiAEYoIg5TAgAAAh+QQEBQAAACwAAAAATwHDAIcSGA4RGA0VGhMYHBYaHhkOFw4jHRc4HhMcIRsdIRMiIh0qJRk2KBwwLRodHiEeJCEeKicfLy8jJiQlKSYmKykqLSwoKSY4LCMqMS06MykrLjIkLTItMjMpMzgyNDU0NTo1Ojw5OjwxLzQhHiVCKh5DLSNMJyRJNSpINSpSOS5UNC1MOzNFOTRUPTNbOjRWKitjOThGHB06QTtLQzlWQTZaRDlWRDpQRS1jST1iRjxuVD87PUQ2O0QuOEVBP0ZsPUI9Qkk7R1U+TmJERExFRklaSUNXSURLU0pKSlVNTVpFSFNRTlxVTlNMU1hTUlxWWFhXU0tlTENnTEhrVEpoUkdyVktzWE1qWFR1W1N4XVZuTE5YYlx7Y1p4YVhrY1xRTmFKVmdWVWVbWmxYWGZdXXFUXXJMVmliXWthX3JbZmhVZHZZaHlXaXJmZml5ZmN5aWdjYnVlZHlqaX1oaHd1bHdodnl4dnlxcmyDZluFaF6GamOKbWWGamqSa2mMcmmJcWiSdWyXfG6FbXKJd3WVenSZe3eUanKhfXuGWV9wgX2Kgn2bgXuWgXiagW+ihHxabINecYdsa4JoaIRxboVqeIVzcoZ1dol2eYx6eYx7fJN6eZZofJN+f6KEfY2DfpGAfpucf4GUfo9ugYR0hIp2iIl7hJR7i5R9kpZ/k5hyh5Z1i6V5k6x9mbJwh6N/oLKIhoibhoSaioeckY2EgZWGhZqIh52KiJ6IiJaSi5uTipWDlZuGmJqalZWIk42kjoyjh4OmmZalkY+roZyMi6SOjauGhqOQjqaQj6uJmaSTkqqXlKiOjbCQjrGVlbKXmLWam7abnbuYmLWIl7Ohnriin6CNo6iMo6eTqKuboruWqrObtrmYtbeQr7GipL2mpLqiurutqKeSop2kwb6dnsCdpMGVrcmYutaWtcajpsKnqsapq8errsmmq8mwrsmsssyivsGws82ts9GxtdG8udKsrtChocOdwt2ewMGoxsirysymxMWy09SuztCexeGix+S74N0I/gB5RABSRo3BRweFqBHySAgYIh4ogGhCpqLFi5eGaSymsaNGY8SWiWTWLJqzkyidQRuHDVu3bunSqXO3zh08ePJy5pw3L57Onznd5YznU57QmziR3swJz51TpU2FOp0a7ym8eFGnOn3nrh28mjSpTr3pVN3MmTTTrYvJVt26mu3StSvbbu5UdTHZtVunbi7fuW7VoTMrMybedOxqrnVntjHbx3jxvo3Zderbd1zNgrWplPNSoPKUhlZaF+pNr/C81l3tWCbhen0fx/T2EubLdN68sevmDcTAgmAWKlRo0CCYIR4wfKAI5yJGjh41itQYcmTJlChXtsRGDp1MsERB/ssLL17oUJ+cpwZN73Td6KVanRLVijU+zayT2Wpll/Xp1HdqyYYYX+u0Y5aBe+3FlzvsqMPOO/m5JZc7AbqmVmtrxcRXY3EZdlhhhUlmYHs08dUgPVpB5dlnoJnmImmlsWZgY4Q95o1s6tRzozfe4QUTOrt500EEQQSnhhnFMUScGmkAwQEGITgRRxzNOUeGJdBtRF1H1S1DDDMmYXcSS9iMAw1b7FAlnnjojefTfEiZF1pQ/dlnU1UpzreVfautBo+E7ATaYDvxQPjWOuwgFmiG6XTjFoMHbkhYhg7mpyGIbA32YWQD6hchjRJeaGE6gzG21luJbkiWf1a9iBRT/ke5ilSMp632jYeQ0eiaYN6h451sa6kzZBBsFIekGg0hZJAZQ2BQwQ5SUmklGZJwMgwx0Q0DnTEiLXNMMs2Em9Iz0EDT0jg/ugXemqC9+RNRScWH01g2uVNVne5AaOe+Xc0okzakogNTZEAGiCpbfDWqTjfeIfodh4etM9h3FR74GIEfxjRjqBdLqthbhKGT4aEVJgaWg6tmpdQ7r87JVFJJ4fPee/B8U1qtdTkWGacWElZjTDAF2FgHHQjBxtEGKdTQQWyAsUMFGgAxxpRVXiTGGppkqy2214bEDDPJhB1NMymZey45PPY4E4vsvpuiVHGOZ+c5RN1Lr53rXIUi/j1VJVYjj+mQ09IzKpkLTXe++griYc9gI7CmctHYzo1qJWxWV6By7GBrrqWKaYW7Egiiw65lqFdZM72DZ3pkubimrLP2KXuf6niTsze6Cghiw4pLHEHRaxRXhrILPdJQEyBo0AERYsAxpZVjiDEJLdd6RAwywxhzbTLLMKNMM8mMXbYzLZFTW1vptf2TvP1FpadWbtZ901tZ8XdOmjbRQw87KDqVaF4MI4cABUi4ZhyDJM0gF3cG+Kt0YCMZ2ECTYTa0F/1Ixi05A52ANBOZ/8VEZIdSW2z6wrOKmawdiWHMWRyUpqZERVYze1mcVpSa1KhmdrPri4Fw1ZYeLkxk/qSSye/AsIbgMS1pamCDEIQAgg18AAlkoFIcrBSGMcAha1rLXva4ByaSiOkk2NDObQyTPvXp5G0uPKO93icUNq4Kf/hjUKDMoT++0SNA9JAMogL1wbGFqxkkIZxKnsGwCDYqbKTiDbAQpsLK7YotcQFZw9Tyqxq1R2KOPAvISLhHRN1RLQhK4aPiM5f2QYVmNBPNi1SDMxwiKIOL09VhavMWgWFABltYA/GKg6ziIA8DHoAi1az0hS+QYXrVi44xjMG9L3WPbF90xjjIFDT/4IRdRVHjUZwSmjZWpW7fXOPqAnWX/XyIf/ozWaA6tCh2oKMlf2SGSr5GtmYQg2zu/qxNM4bBjG60BGGM0liIdtWwiNGIMR5ElGTgEUTFNIYm3SiL6fZHj2BdqCbveJRibsIV1rEIZi1zGexQ0y/aye5AG9tUY3zlI0cNZh3diIAMiMhLhhSnWGAQwgc2EEwyOI9KVRPDF5YQhkhkwnpZutZI7hmuaIQJJedqyRjVws1srqmN9umMfMLpDr7FA0XxYAee5qKvjKYDUpr5KukyZaZuQGOftqAF9YrxCU8UI0sH1EgzGNaNaQCyGMx4azdEB9ALSYiDwMoQEBvEuZ6JzDGMgWSwtHK5AqGQQeVUXVZQc82ZLeWjczINDfujw34d6LQ74+GHBDbYXsW0B0jj/mWxkKUsJXxAA8uZkm6nWBExhGEJX4DDJWjBNa59ZBgiIUbYknGM65TNXLWhHFXXKCczGoUzeKqbevT0zXCew07quK6DHpc4twosGs/Y5ywsIYcpwgENPo3DJDBRifpawhO0yIQmmgGNvkbjGMOghTwdh8nHJGZXoBrZIkPUmsOk9mcfeqWCzmKZzTBmKt9olU108hmQcvgnnXEVKUmoQ9ZgKGO8wk2jYLqOCMC2iL1E1myTZlsNgOALu6USGuAr1CUsQQyR0MQxiEHkjhQDwN1arthOIq6TmM2fv9qMVa86lOvWi5uwmo9XvhufsDIIVQ7rhjOGYYr8YsISZ46E/hzqWwlM0FcObRhDE5AwhB2EIAQ82AESvvDbMbAhDZOYBCUyQYyxHUN7maBFuHx1qsdA7oPBCqhsRObBgeosY4dyUOkeuhmQKYZf9WpZZzk8ahm2zoWt7EpT5pKzkzbYMJBhNExgGlNiGU+XvCwOQoDQAQ30IAy7hUNzeDxU4KIBExwp8rWK0aWRLBeaZIMGVLcz2Auph11kMYq2rxsnF8oLnOtYXcN2s09LzEEMTVACEpBABCDsAAQg8IAHNJDnHdg7BHZODgdEIAEJTKACIsC3Ep4whjTEIRKRwIQtlqm9UlSiGMYIGo401CBSqatCAZWY5RJVo42ppeJnnYyD/mkEMoNdWCtgUdkpmfITfHT4miMlC2pceekQ9WhxAmMHbQTmDSIdDSEwVoMRjScEJ0VtapH4qbTIIFQkAHcMkmA2MZLdkSF76YDP/iK1XRI0t7CsuthmH2ftQuGsxANR93FnNEoxhzAoAQjw7gAHKkCBCVjg7hPIu94pgAELSKDueu+34CEgAQtAKQRAcMIcpnjUYiSjGLSwxFGjcTHIdGpDCLvUxHPFYBRfjkIIbnVj1vGOBoUlRagWTWhf9mFSz2rVUOGsC02as51xyiz/41Rr0UGbnh9hDTMW+q1pK4QhaODoOXZec9w+BKcH9xJSB3B0sHXAZYAPmthpSTZe/uKSwnwa7GpsSvyMohQUfQUsilmnZdLxjFLEoQlDCEFE/A0BBDzgAQhwgAL6jfe9Y0Dw/TYB/YYAClCABSgBCmB3yjEETuAEYyB5clUMmVAJtaAM3mApm5IXQKQ7hcWBlsczh3UqwZIz7SEZp0dZV/ZCn8VypaZKp1YXozEWfWJDrpY7o/IzFkdrvBcBRAR8xaFLxmM8SgQEULMDVhRsyhcGPqBnxXRMnEAM0qcRx7AM2kNkzCASTZZ91PYSvWJh4wEUVhEa7/NCeNIUHeUfe/EMujAKc/AFQHBbEoAAckgABDAAAyCHgocBeriHgTeA93d/cyiHCECHguhvE/AB/s0nBnFgCZXwCZ8wCVnTfR4Ia5UnIJQiEyCXF5ooIGlyGBRCYhBCYSRyhmg0WmxDfq0TGvMAM5xlTXCxGheoQ6/WFg3EMLiBF7mRi0LSg0Z0EEH4CErURBrgA1GkW0pHBmFgZ0MAXGEgCZqQVMjlJUSmZMngRVooVbdxOfiDE1ZVFPABTk5BD15hGeyjDtDgfk7QBDwQEYBohwMgAAIwAP7Gd3ynh3V3gIKnAHR4h4M4iIRIAP0oiHjYATtABF8gBsc2DJkwCZlASBvUQ5OoQZWGGIsjQbcHeoFRex2ySSWiIehnH+rSFZsRI2hRO3ORGydpFizFFj+SOOrwDaxV/hsvMQ3YMA3T0F/T0FfPYJPTsJM2uZPRgA3P8AwzFYRCZxBAqCxJ0AN8BwTFmGNxgAbJKAI+sGfGZAnWUlzJ9SVgEzbgkwxi8gzZsB20IXGU4RlzghXxcmXz8Rb7cjLDEAlngAZI8DSAWIcIMAAAWXh7qIcV0HcISIeC6Y6EWZiG+Y90WAEfsAPLOAe0gAkINwwME2UB4x0eVDBAIhn/ww7k4E4s9TiV+UGJgw6dGTi94h3lACSJgzjvNJrdQA6N8pou4Tj+tB2z2RLvBGWtKTBmY5tCiQ3kMzjAOZzk0zjPgF7G6VQpIS7NoAxhw0zg4pxK5pywRVtIaUTBEzy2/uVESgCVQAUHYTAEH8ADQ1BMYuCMw8A9zOYlyDWNYXMMB4R9TtY4YSST/7MZp8iN2kVdKEgiNpENluBbTrADHEABefmOCSCHE0ABFOABT+IBFWB4fjeH+2iYFgqPGBqPhUkADzABGuABIYAE8yUHcjALQRlA3OcSrJWbtvEjvmmbPSmcvzmU5kIugwRGgwQNY7kdwSmU9Dmc8NQMtkk42vebvjkOghNG5FAuZiM4jSNt5WKkYVSjPfqkQ+mjQ5mlJwEuf9Scf/Q939OcHVAstwZ0P7gGZYAEH6AcTYAGwUY1cCAGSBACVGmVaDAJXYMtUNieX/KeX2ONJ0GkW9gx/uvAN+J3TXZjL/5THygXkusQDXSgBEOAHBPgAHL4AABpeB4Ab335fwYoiBbqjgBwoQCgoaG6f4YHAmIAmXAgB80lSNiQDeg1OD8aq0V6pdtxpVl6nFoKDcYplDU6pSoBRr5Zm90wTfUgOEm6Hd2xHY0SRIsCrR7UINQqKIKSF4niTtkaMEE0GCJzmrFJGzkJDd5AruNwk9MQDTfpk8cJBGxglI8AY8FDBgahphgAAkqgdEgoBkngAx+AiOYpCcSlbNSBLe95QCQBluPSEk/WQImRJlgxM6vjP/4pSgmzFsUwBnYWAhWgjw9AAX8HcJuaHBiQdxYwAQpAgCk7mHZY/ocXWgCiOgAAAAAFgKGHSQD+VgFDIAeWEEXpGZRhtB1mQ5PaVxtcd5vYUJZc6CtGa7Q5aT6PM5mwmSmkwiMDcxhAMrWP9R2BUiPUahclUlJd1T97NBOTwUeaUiMyKZOsxZPrapPQoK7q6lfSNg3KwJNBkJTEk53FcQRrOhHK96ZoMFRzSpVJwGdXUgzJNWTYsgzUCJ+vymRgtKPYKBMXxj+ntCqroz+X9BeC8QyYkAQ7sARDUAEIcHd6KAIf+iQnK4AIuH8pO4cbOpiDSJimaoczm7sCMLOHqQAWIAJPEKBfQFxC6gyEtIXcB10z+RL9tba1gS6FVBvNW5NEa5Mv/lEP9TBN04QO6DKUPOkN2tu8buW8LyE408Qbrum8vMcjgvMS6MIS/vST3vuTTlW/Q9lUzTmd1Aid3/Kczpm3vxivfFscSlCgPRAtxqhbUvkFSOADIsCYwHWenMCey8QlypWezyafyilVXPcSC1KGKtIfZ3gqtyIwyRAHQ6AEW9AEfWcB8hYCH+ABqquHAmh4Ayi7FkoA+geQFWq7GlqzuRvEo0qYBLB/HPAET6AEkxBXyhANYFIS1+FUCRQmY4NeTFYS91tPJVHFf+RHX5kM38Ol0BQ+4TKdzMRMXfrFaeynzBCf4KNc1KhkUbhMy1XB0WELWSRXcjUMtSBXtfDH/rdAC38syH1cC59AyHIVBAFsPEKXncETBL3GA07wU5T8PGGQBElQZw/MjHGQCcyWPUSmp4cWx+CCEk61dWtrGB2VRk2RNxJFE5rxrd2QDHCgBETAbiJgeHoobyKQHH8ZgHookKI6swUwxILZw6EqxMpcqkOsl6cbAkpghPQ1C8NgC3isPd/CDFuUPRWcDFuiPUZmXNpTDHhsZBphzXj8ydqiLZAHHX2czuscYBGox9RDPbVgC9BRztVMC/rcEdTjz9Y8yBwhV3FFzwZ90LPQx3rsCQxNC57wx7MwCwut0LUABosswIysnRpQAYmnr3BKBsW0BA08nkhwuGRQCU9I/mRDphHJcMbQCS6lfBJOhatcV5aMhHqoxmWHpTjpkAzn9gTspgHAFAJ7KAIx3HeAWbKEGI/wKLMzy9TueLuh6tTLnLsBUKruWMQWkAHBJAdoEAmlMAuZENazENZy5QmJVtYRrQn45dC0ENESfdZvHdH0HNd6nAmfwAmOuNe0wAnFUAr0/AkKzQkETc94XNjwnEWKvdjZUs4FbdCBfNBvTcgPXQsNLdlEBAkX/YtlAATHNwRHCJXNEdKZvAOGy2dx8Ixeoj3YPAxDBp9KtpwpgcpjZB/3gnaTIWnp0Ax1MAmW4AQhMHd/ucvyFsMVMHcgu489PLNXXaq729SmytTQ/o27usvcANDcxfzUTK2yEwACTDcG83UJmqBfmYAJ451f5a0JpZBoiUYLh+wJdE3PZk3Of4zH98zP/xxXf1wM94zHtvDHf6wR1NPPc5Ut2MNwCK49y6VcFezSiw2NAo7fcmXXemzZf4xfDM3QoQDfcF0LEc0GeqvZiwwGPfChQ9A8bzolYxAGxdbAdUpUJ/3JxhXKI9G/gSTTTxWo2mfTDnM5Z9gXoMfTMvEMk1AJngAHPgBwztKXFSBvGEABI9BvddjDAlAAAXDly7y7Tx3VQazlVU3MQgyPAskBTQCenYwJiVYKgG3QFE4LkDfPjx2BcYXPWqIldB4dAU7OfKzH/ne+Ef7N2B5Bx4Buzv3cEX28z5J90Jb91vjVCZad4bPQCZ3A0JL+rpttlGDg2Rxw4qL9PCEt0vH3RBEsB1gUhaF8hV+jZF1sEjkulh08VQXCQjaIedUwCSVKBv6Kd51qj7ErmJZKAPDI3AUw7MRe7Ffd3Mz85cuM7ELsjgrqlGNwJZkw7Wue6JId54ZN0Apd2Hq854Nc4YJs0P5NznT+3+7cEX1uzoNeC3dV2LXAxxyx7dZO17eQ4fWe4Rk+6ZE+6ZLeCWuwCQAv4ousBuqoAZuO4nDqPPDF4sAl0g5clV8wBseGz8vkJd5CZCKxXFgnxs6Q48Qqkx/IFwMDNK/Z/g3PUAmR8ApoEAJCnXd/+a8g0Hcrm5dFLAH7qOVXTuwBUOzFbOXMXtXZnbtBX9WmKocesAQrHgeXgObT3t7ybe0TDvVSP/VSL88Djs/pfseMLe9UX9e0cAtwbQueMOn5Pvb4zuER3ceesAapAPBuP/BgwAO4pQSKOEVn4FPK51uf7uIhMASHOwaR4ObVEcrEABJwzFxg05VNJduEA7Q8IhhT1SjlNU1DSQtxQAtzgBx9xwEeEMNragG1K5AFKIfvKPQ7z/PFruzXHQC7O+zEPPTKrqGnSwTp9oBMP9ZRn/uSvd7yreZqDvW4f9BlBvVqTQtr7uHfTtBxHtAArt+E/lzI/x3Xhx3u71zQ1izukh3RYC9XZP/QE57QgrwJbd/2AD/wScAD3CkGF/FeFbF8Q8UEPjbSVUlUcIAJXcOeKq3Sceyc+etc6aUSAIEN2zNs3Qwe7OYtYTdoBsc9bDYL06QhIDBcxMDh4gQJCBQ8QIDgwQSOBAgMGCAAwMoCAVq6LBBT5kqaNVcGCADApU2ePVcKGIBAAoghRJJUsoQpk9JMTUs1dQq11NRZT2l5epqpFC1aW7mWmtWVqy1atWjZqoW2LFeztdzaIsu1WFm3aesOG4YL715bw4wZw2vsmDFieI/5FQx4r+LCex0XczysL9++ZdGmjXsZLVrHqVq1/kq1aRMkSKNJP1qTpEcEEEfEkIFdBvbsMV+W3F7CZMmQDzuGLPlSZhKtYseWLSOW/Bixv8aSPU/WrFn06c2iRXN23dl2aNuxNUSosNu0aQahjRtoq5ISDhYmWMCIoaMCkhJGkpzgAMHJATUL0JQpwP8EIBClAQw4EACVCCTQP5py8mkllBTAAAkWhpAjE09o0YQrWiSrpRiyzCrmLcnggqsYESGDDC8V8SpMMcf+Gqaxv5Jpbi/mhkkmsOaeky5I6airRrrrrlPGOuu0E1KZZJRx8rlqoIsyOmWce645wBQzBhdcusQlxcnGtEWVVVT57DPRRDstiQ4oAKGJ12aD/u01McKwDbfbkNhBhCGQWCKMODLxa7kakRvsx+eOeU4ZZpZJcjsht+MOvYGegeaZhMgrr5txoDkmEvYkmIACjNybAAP8RrpoPpMMVAmA/wSkiUACDMD1gAV2NeAAXBFEMKX+/pM1wpoI9IgIIkIYA5NZitlqmBYda2wvFqf1K7IZuWzusB5x5FHLw5y7ETpzoQsy0uyGpM46Z4SMpt0kgzT3GEZzxLFHHvfNFi9b5qplFrM8DMsttsxaJWFVFk5zzU3WCOJNHr6Yk87ZwtAzzyV8ECGE38JAY7hhBkvuuOSIWcZeRp9jpmVmnJTOmCAp5Q4am5t56CGbP33mGWYm/tmhAgo4IkkBCY5WlYKjj7bAgqMVQMDAlABk6SeUDFiAgQsyKOGCrksA+4ILGGAg6wUQbNBYm4A6MIRliaCDq0wErqusEvtqsRZtXURmb8cm+xtbv7WNMdFyo5vS3ChhThJILLGs5q/BcLxX2hy3DCwyXHKp5ZZaNmfrFoFnycVDrlZhJeHU0VRTtEeE6ECDHSi2GDY0yPgi99x0XwKJED4YIoklxIgDE8iMM2YZZlA+7rhkGD3G5Sqfw45m7JqR9LxPc+Z5mEiA0OBojkIKCaMJjCY1fQkUgPrAqX0SAFeyS0ihBRVauCGF+/G3PwUUUCgBA3T1q/epDQAGkkAI/mQQAjFopRJNMV3d1MIWugxjLKbjyl4s46G2DA4ybhmG3jToNy0hRjDnSsbL9FWoLdFoRoOTFl/4UqK00MJzFKRLLTzxik54woc+XEbqULeKViQMNJtIBSSUgIENzK5isqlTGPCUMdsgwQe9+RgZJgEZk6GsZC5jBnSU17IUAolmZ5TUdsZBDkt1hxZkAEIFlsa+oJRKVezjiATkIx+oRa0/ERrArRZwARSsgAY1qEEOFKlIHEQhBzVogf1OcAKwkc1XvzKAAQ8YyAl4wANKeGAkLpEJ04WlFAPDYCpVqUoLmg5v0uqbKmuIwcuEMIQihCEM4XKWMdXFYBE8yyqF/skVT4jOEz3sRDI9IQ1WNFOICksTJYCwAdl9oXZkQIMY7qQx4NiGCVYEHqAEpYlimKx5zXOZGKWTHWXEC3uUqt4ZbcYMZ3QHGsm4BBI+EL6nQY0+E6jA+fAoPqGwLyQogd+ttFa/GkQBBw+VAg4WmQOJPtIGkZwkJUtAgrEx4Fex8onUhIKBIcRBE5FIilds6JawYDBgw4SpS3mJSlSqMi4lsmUMZTQuF/Jrb8hQ0Yf85a8I1jSmHuLcKn1IC2c2M2FPXZgqIAE+DwAhDNesk+5yt9UlJCEJQxDBDpLwBZBhghbMU945oxfGFDKjGW51RnSONFeaPeOMR0rGenbA/gGlPW19R3sASELy1454xKB/5IkAFHqB++FAB1SgQhV0oAPJ6sCxlsUBFRxJA866IAX1S8EkSUA2jwYLpMc6CQEo9IExWGISk1DKUW2ayl/aTW8D+6WIQpQ3HM7lQ32D4WH6tZhchnCXrbygbJUrU6Y69amoe6YkqDqEMWD1Tt3kHe+GEAKPAUcMkSAUWtXKVpa5TDpw1Y520PguaESjGce4hBOA4AENOG1pfw1JYNeHPo+ERAEFPFauSnACFzi2CgeughWwkAUsYMEKDH4wg6dAhcle1rKQDC3YSECCs50NoWsLJAIwoAEk1MESkcDEJZaLSrLEhSt0++VtDyZD/r1dBoeuJA5cToRTEQEOhnORjC19C9POlfLFA7vFWGxRumEudZnMFGJTh/gIHmigB9S17heUoIStdhk3HPOBOOOgYvGWzHnnOgb23jmzeJ7xndE4Bi3EAIQOVEA+DziaYcmH5/Otj3weOUlisZa1E7SgBjhIsILxkAU8NLrRXHA0F7JgBSsguLKYrYFn86fRrpVWABCqlUn06IExRCISlaiEV4yaZNzKNmACuzGRywJrDKqUgqhMco/74su0IDfJdDHdr13aUmCaBcYcpAWxU7nUWkA5dU19Zhx6oIEPKKG61xTDF3wQZuzmTje7+d1vKAbecp6TeemETsuiQc93/kXjGe5953rtRYs4hGADEqCA09jXx/0gbWgGZd/TTiuhXjGAfoc+8IPxkIc9MLwPeXC0oyEMYQRXWKKJRGQkQ4uCDIwNVwQ4FlCEQgElyEEOpiZlVZSd7JbOYuXDfGkqRRdslrt8dKbzClhcnuypKPflOCaOh4QdcyNjkNhhwQXBPJT0WWyoFs10BbSdq4oy7IDa1sYq7noAvCU4octO2BPHdoAEspq03ClbDnKUh0LssZtm8baeM46BiUiIwQdyTJ9gUUI+UpEEJATwyNMQsLZcMeAENGhkFbIAaT3sARB+AAQg+jD5hkOc0Y/uwqS7YIXJVjgHj9WBRWkQSQCO/o0Ap0UJ4BM4BznAAQ5KAQsHX/3SldP6qMJ+uct9KGyWv5jlA9v5h0znIn/1OoOm+JDBpCVUae0ybwIjy8+Xy5UwNRfaUXemKszQgw30QAkVsxjG+hTmLudJN0PgAdevOhwvLk85xGBG9IAUJSOt966HwYTdRVCfPPsR8Hrur6BAn44AKQKRn4OLggdjvD8AhEAIBEIghEKIPD/4Az3IA4hbOAzEAy7YPEo7MMqyNEdSpItaAY5jgASgCQMBPAUIgTZoPTIYJQ2Zm2QDNqNSuqKjuaP6odoTJhv0ELy4LeNrpVsyCxc7mLFoNRxUQmLakFV6OqmDNqrjPhBIgjPI/jotw6Ly+4Jv25gPIL8xkATjQZkw0hIyeh56aqcjcQa3e5c0ehdiwAQ0UAIRwDuSOKj9+LOQSADAw4/1OT2c0AlcyRr6wYEpWDw8+APIg0BCYIRFcMRCeEBA+IMKzAM9sMBHo7QuwAMFazAHe7BK06yLg6QVuIAFQMEDYhsDkAAPOIM2qAMxqApSgiC2mAXeM7qwsEWYOjYP+aEmpC2ZmqUMKq4YyiXhiwsXMUIbWiVcKLKWSkbqkzrsy77t674kIAM4wKrbGYIe8AEmwJPsyp3t8gFxI4NKKAYvMhzBAKOWsZd1e6uWQSN7aoZiiAQ4QILwSZU72o+gALy9q6OL/nAPCQA5nfiJAyywKWA8QIhARmDIRoyFWICFRSgECaTACvyDPYg4K3A0BeRAK+gCSQNFh0Kk0UsBBgApFbQADmiCNmiDL8CEl/SKZ3RCH4ypFKmtC3q5XeMgF8GlXJqWFeqLf+GMf0GumJI+YkJKmzOL0mkqV3BKVxgiVkgFMNinHWiCa0KD25mEShCDHhi73dGq20iCK/KBsSKeTDjHlJEcRlnHMHIrdXMru6KU81jDYuAET4gEJNi/VBGogwoKqaEQgHQakMMJQJSfw8uBKuACPWjAiSwER3zEWPgFR3CExywEQni8PdiDPmg0DdTAR7u8B6uCKYgCR8IBG6AB/v9ZAMRKPQmwACJoAzhwyaeQPpp6MbqZvlibvlxkixeJjBABvgxaC5k6St+jwaPSIWTqIdO5PqdsqlZYIgqYndpBAziIAzQwq0gIAm7Eja0Cuyr6gBBAgicYAzhQseOwF8KAv7WKP/RylOtps/Mqhr+YhDAIARHwAPcwqD9DCQFAgFQZmgnwCAQhSJxIAAMwvIPkgjxgwEZcBFCAhV/whQiNSEdwREaARMz0A8qrPIbDyIjbwEbrgi4YTYd6JByoARpYgQwwAJUATAWATTgIA0z4hEuYhUz4hK04uhusC+njQa7gTWGSydwzCwuyzSBFtiTNTVVqQh5Kpk6oRWJy/iZpdCZpkIZUCAIO4AAguDZsxCbXi4PiIQY54wEe+A3swq6xFAEf6DoxkAROUI7nQRQyaplleKvqYAb3arO6JIZooIVJ0CcRqK99488Q40sBPb1AS8EDMbwWwAGF+4NAKARYiNBfkAVfgEhK/YVCcIRDWAQHDITHk7yH28zNhLgPBVE8cLASfaiHgiQUYICUYBvVWsU2gA1MwEtMqIRL8ASbIzKbmzmXqwXapK2XWypiCota7FWbo5vacwvkwyGaTNLiXKWfU7ZkbTpM6IRXCL5ZmFIolIZNAAIM8IAguCo0iAMwzUrr1IS3Wg8e8IEv8DrvJCtw2wElcALiEcPm/mBHeznDMGIU63g39dqOR7FTYjgpsNI3fjss1bPDlOAPm2DUEnBUxcQDPfADQoBQX+BYWaBUWMBUiSyEQ4DEyAsEx/MDx5u8h0vViOtIK5gwiXLVFliBEsgkkVIADRiDJ4CDSsCEOJiEpEg5ZZw1DGK1VNrRUrpJXiw6XHw1ZfMlf/ExbamxIIOMqSWqodKxMbEgL8kFZvSSpPMSWvASs9jBsCCLYWAF54zGcA2CDRABrAtT65xb68wE6fiEMuCBe3WCec0dKfqCIdgBL3SCMUADSfiE+WQU+Dsct3RLNYO7t7oeWuDKD+AjfvMjAcwjBCgQhCKWAzIABciAFEA0/kjbzAiM0GDwBdX9BYjMVMo8hEPAzMhb2Q1d2Ub70MpbuEabNFDUAYd6qNREgQXgj72jDyUYnteCAznoIVJCWqMNxh6sKZZiqWFKMgsKMrkwGBGq2hRZCxJxDFwapmSUSWYsC88JmIDxoVDwoR7yoZpa26hzNralMg34JOIJ03RN1zkI07t1BmKIhO36Db/tzq8Kga8UFEw4lJZhjr8ghvJ6GTbMju24DrsqhjhIAyLgpzzM3IAjwE2KFWKJHwRFgcTURD+APEkFWY7l2GCAyMmkTMpchNml3cdbWQ0s1QvUwMyrNNIsTROlWRaVmgFgnw9wAi1KV0tYCl9MtrbI/s2jpN7nvT2Yk70JWlKYs0Wiu4X27dVU+tYvZoVH4L5qI4P81V/9lQNNsKtm8AS7GzuvkyIpYgKwU4Id6C6QmYRPaJ7k4Nd0axl3gad4mgZjiIMx2IHLzcPU8y+oWRCg4ImJpYEpwILFTGEVZuHVDYbW9QUY/oVHbEDJi7zNlDwMXFlS1d3erQLIaqSL85/h5Q//VAAC4IAlQINICFNNsIQOueIbtN7gk2Jd/MFfBKZdJuZZcF8m9pAvhi5nWgPu4wEkKGMznlv+LQVKAWA++RgpGoMxCIO+TYIdgFckCAPi+QT42+N8QaFkaLPqgYZpUAY6GAMl0M9EVsGg2EcF/unPtFEQrLkAR70C0w3VyFuEWGhhTA4G1WXdTWaE2JXdgLbdzizlPDBliAPJVA7F4P2sjguWEEMADRiCM6ADOJiETBil4wRSYTq6qoBWo/RRoBvm4SQRg0ERuHALGrqMYjCFXTquYBLOGkrGWigdmgY2Xjymq7ihmYbCZ5OGVWjmCAgBa5JmM44ETciUd8kEMdiBsRtnPOFqOuYBj6GYkOEEc4pTczEvN3OGaTiGSWDJEPCzRS5eRY6azpWaVCRhGqCCLGA4yDPZQljdv2Zh1WXhh/yFwgaFkn08P7hAPOgDQJBoDu2DU8aC0bzoHBg9SsoAU2SbkKAAIDgDOMDO/pc0K9xU0g9pMZnc3iQ8suEz2mrVG9MBmBCRoeI6i+ZDkR67oH8pwgia6RZLOrfgYk9AC87RsWJwqudUHaqLHSD4ArqN6jiIhFJ4hmyQDmKohG/msq2+E64eSy8U51ou57QiDGY4HHjJDnebhmhQhkhAgzsggvOh57r2x5CIa6nBGkLEAjzYAxQGhEZowEaQ0IIGWQll3YckaF847AfEzIbTzFBu7IhWbC7ggsmeAh+e2RUowQto0b1LgAqAzTFoA0xICl7NoSSNi7YY0iSU1sxATprkPRThtZp2sV3iipVuspO+wab7IWTyBKMii+caoqdihVYwgw7YUpB5blOL/oRhEIiBWAZa0Fut3u5x3qrtAuvytIRyW57kYY7yWqe5cq9kmAQxmAN55mCI9SOR8wiQgBUFwWcCWIAGQAG81u9EjLxGaAROdQRMjYVFgAUIhYWH7NhYuNRNlUAIxEgUbuxR/eQbzgNJm2zKllnUxHAU0PAW/b8KeIItQAI0kINKgC1iVqVS8JyXG1ZRz0HTsfFkXdphMuZkZYsuZq5jOib37YThhG0gNyLoInIP2NIxWIM44F+pNjUmF4hneK9ISIK99catDgNuDgNw+pha1gT4I28v8mM7Pe8laYZPkIM4cAILOPMh3rvC8iM3X1QEEJsVeFT9RuFAaAQH9FSR/h2EeleEQVAERXgFWNh3AweF2U3ZvW7wyePrx2M4C5xwLLiCK2BVFNW4E4BVA+A7D2ACJSgpOcAESagET0C+HxUm3hRWWnxiX63xl3bCrWj1VLI1Y4ZSHe/Fl4f54P4h9Q2LUIAqMwHyqTTy7wvTOZCEb4fuSNB4YiAHcsgGbHiXNwICsXp2bt5mwLVycQ4DONCEsV6eRFkZMOL26xiGSgB3DPizk6DvIRaKfXTkWjEQBBgkFqgBhGRMk5VUB8RMS7wDOxCEQbCDO7gDOnCDLniDvxcEPnADN+ADS0xEFKbAxubryMbAhF/4K6hwzYoCI0jNFFiBE9DwoDgaDfCB/h1gAjmgA5Nzlhuzze0N5tKWpbIoSlcaMpiCDOHrSb8BnBazpZrmJeGkpdsvhjDxxVn4hKvo8Vr4/bLIha/1kqjCeSCHTg3wkzEIU0mQBCUXeuhHhqInB6R3BmS4bt9Igm1+ejGoDSsy0yWorjxmHnt5YLZ0mW1fN65UAg0Qe3uOmsxFCVJh88QyEKOxgAtg98WM1P8GiEICCenpgsWNmzdt3LQ5c0VKESNGoEy8cgULFzd6Bg3yE8gPSEAi++TB08UglodUohSREuXlyxorZpa4YGAAAgkSKngIMSZOHDSWZtGyVaxWLVq1cNUqNuzpU1tQhxUrRgtqUarIniJz/upUqS2ktYYphWrrLK20acmqjUrW7NS4UJ1OpRvXVtpiaPEapTrMmDFcxpDeQpqLlqdaic8axuUYVypVklepWmXZMqQhGzooERMnEmg5kSSBliSpGbnU2LA5Y1YKzY4dSJyMGRMmjO0vX5D48DHbs6ZixJYtM3aMWbJkx5k1Y94sWbNZYXaImDDgOk4C17ULGEBAgU7tAMYXACCgu3cF6i2goFEFzx4/IgMtalTIj54rUKhM8eKl4RZPQFFEETbMMIMRBDKhhRVYbDQIIH78IR8g8ZWEhRVWXFGggSzMNEMLM9hghA00tJDCCSgw8J0EFlQgwg5jwAGHHJ2UcpRS/kjlaMtWTyFFV1FnsaUWkUUqZSSSSaolZFnDSAWVMcMQIxeVd1X5FGBZGmOLMbnk8hhTYX1pi2BgCrZJK61YNhllqkAShAYeKEHGZ6SRVlocl0DDTmrksNbMMpUsscMQX+BWG25h7NbbDkuEgcYknxDDDKWVWkppM8oM48kZRITggQTabScqdgMoMEGo46mK3nmmKoCABQ2sgEMWefQhEiCBNGIfHlTYQOAVZ6DhBRTFSiRRiTbY0EILUfDnBkgdTfiHHnuUxEUVLNXQAgsZsHDBBRmU4G0GIaCQwgooqmgAeOGKgMRPkViCSSlPORXWWHU5NZZecY0lVZF8pdVU/lIBp4UXUUUOMxaRTso1ZVxRXikVwVlJpddZZ0l8VjFM4fJlLkl5kmMtYpppC5qtSLZyZaqs0cMGH3QG1Gg1m5bnM3yqNo4zy3ACRxCy4SbGbbd9sQQSsf0WhybELEfcMpY2t0wxmJCxxBA7aIAAAQIkUKp33ukkAQIDqAoA2AR8hwACC1xwwxR4TIhrIIUEkgdEUVzhxRsK+ScF4DDhYIMLhLdQg7NcRAuSHtTmcWEUNWzbLbiVW54B5hmswAIKNhEgwQUihMDEGZFUMokmDJOc48FXLVxwV3SJpWRatxCpI15XESlV7gPPUnIxPS58JfFTAew6xWANbFXrA9fy/rsnI6tl5mO5bIImy5OhokYPHXyQBBxASTJHJKKVhokzOqcGTc/ETPIFoUvYFgbRuoWRRNZDLCEGHJYUQ2nULpWcYxyjGJaIgxOGoAGyCeA7CiAVARDwAAxggGzXMQ/YXBXBtqEAB1zQA4VyFYhAAAILUrgCHwQhiEEIom9uMMgVqjAFmOQAcTnIgbOyAMII6UEPjytJFqZQgxugqCYMsBwSK1cCD9kEPBTwwBDGcAbRYMIuUaGYXPBVlHz5qClxsaK9wpiUp1yld8Mjo5N+VLw13qWMB8NKUdoipCH9bhbRi17BSvaYYTzmeipTRZomo4o08GADIVgCGmh2J9NM/kISmcBGOvpEDp4xYxmaKEPWkmAb24jBfkxQwg58kIQvkEESTQsgM45hDOQMsBnH+EQclBACC7zqOyHYWqk+p5MHlM1s3YmgdhDwwPRYIAVRwMOtcNUIQhDECm4YBDM5osI3cIELXeAChqbAH21KYYZUqEIXQCghH5okC1mwgg621QIU1OQC7RxXBizHgCOiYAUoUIABJKCBHTABDTOKRClcZ0UdhXEu+RqLWJCSO7gADI1h6ddC2XglLUVJlX8BDJYu+pe/JIN4gRHMli4Kplp8Ii0ge9KXopQlSmxCE4EM5CpaUYYPaAAESaBTaWo2mjg8UpLYqAcliyEJ+OmP/n70083RkDAEH+jPM/5DZXKiGtViVAINYgDCBLgGq+r0Eic5oYAFzYYdtrFNPdcxgNtq8J4QEkIgFQJhWxkxiBT27Q9/4IMPsZkhK1Shr1Vo0Ad72EOTYAELfc2BiVB0ghKcYAUneCwKUJC5eM7zApxbQD4r4IMlkMGflwjoFzfKRolNdC5yUWlGUTuVLF20oqoEzDGSYQypJme2sr2tbbMkW91qdLet1VL1klKLkH0JF1waU2AAAwk/BnIyqTBDBwyJyJzeaaelIIf6sqEaZgxDE2QIAhHghSikHg2UPmDCGMgQCUkBMIBSZUYmRCMHJVDgAWp7INfURtYH0FJU/ufZIFnNOgC0oiAKXNgD3QRSCEIA4g+AGIgg+CBhjriVWngw5zkzZM4u4KFae7AWHrjA15Usi1nMSkELaGAiZh1oJpyjLApYwIB8YmB0TjhDHDDhOonKBYympVJVfPzj05L2KbvVEm1nWw2K3ra2TcYoRWcbZcBUDxdp+RiYPiqYXGTpEY+43iaytwkwdEADPEhCHCShyEZOIg6TqEU62JEOdPjJT6yhWiSI+gVOGspoWPOBEr7Av0sMg4CVTGUylKEMSlnlEnBAwgJDhZ0GBhgCEkjbq8oqgawOWAEMWAEVDpyrXB2CEQtmpt0I4Qc++GEQsPiFL3yxCEL8AYgY/sKCOa2QhcD6oQ8kuXAVqIADHLjAxDRwgeRqgIOX4CDZJZoJO2PcRAyIIIqTyMRaChrauvDYSqYV8ml/K7EmRxUwu5VtbKVs247K9i/H0OhGUaslqVAZZAUrE5myTFE1eHm5afqjKIQQ3R184TOfiUSd1ByJYqSj4amJ5GqeIY1jeBcIQEiCUYkmBjGM4Wg+CO8Y0BCJTBAjGcQ5xjKiSiliVC0OQ0CVpK9DVmEqgJcD6A6lZ54TspWVAS2oAhf6QKG6mbpuCo4QIBgBi1j8AhaKIIQd+OCGc/Y1Q1i4Zoc9Ip8+hNgKkVOnimkwbP4UFgszlBwNamAiF8/AAuyy/gAIlHAGHY8RKlz84lWsEkZ8dYUW+/JLXIRHC+H1mHhWNM6UkYxR0bZ2tVNxzJaqx6W/5Nt2eQEZ5OP9F8GoYQ2PWC6aUrYJIYigAzsIQ/jCBxTzfWYYDW84OrpRjtVg4xnNMOB0ilq029RmCb1Bwp7zVOhjTIoZJU8GpYifCTSEIFTaUZtXy8q2C3qnOzpH1avUcwEaWAE+t9JVI0ytYEaYehGLgMUioDkIOnjhIdqkgg608FcrcAEPtvrDCANBEhE3O+w1wGEVYAEe2F+IBVHklMjkHM4MTNshkYEceAKQ+IgVfQUt3MIwIENY1IWSzFFVYIXeYUXJzNHF8A5C/oVbaVXJk7xOySRUYdyCY+AFQgnXJxTMkmCZY9SFYAxDGXTelzHXJryJBmxAjMSB6tUJaKSZ6zXcOjicatgeM3BCHADBDmgSx3FSbixVUUGKpAwQpSQHchjDLMTBDkyAqABY2eTE9JVKA+XcfpWVAlzADNRKSNDHIggEI5gfHs7aqrlBShiBp1iAO61ADuDAD/QVRuRBILRVITACIewBtvRfiuHQFHBBHthVHhhEsEUBDqyYC6zArxhBE1nAByDBHFQCtsVR8ziMkeTRklQgLfyOWpjCWrTFj2wR6xQJKtzIkLQFGNmFMYDbGnmFWRhXcb2gKx7J9DgG5nFJlnzM/lOAQRmsgeddTyqkySPACQf4QMEBBTeKj5slgxK+HjnQ2Wq0hlB9AQ8E2u7VBtH43nnRjxxgwjBEjXslx6acwQc8QC5J3851VRmeh3mYoRtmgA1kQXyA364swh0q5EISQh5wwRSMCBIowRMcgQFcJAOgQAsAoBV0wR4w0yLEwqyVBBXkQLGlHQ5MgQ75wSVmixG0gA2oXbExiycWwQKqjQRAER1gwiwkzMEwz+3ky1HcnV/Yxb3ghY8YzwSSxe+8hRjxy1p0BZEVWeEBnlVGRTLaggtaGVvYETJOz5hQD5ZECRiAAb9BAuhdzxoAwWYEQRgoEjfSiJs1gzvImThi/oOdOUMz3B4aAMGZGdX8JIoSMJX8wMEkcEIAEYcyJMMtVEIYfIADXIfXrE2mgYc+jpVkCkBAkhVOZJ8CZEARfJB8JKQjLIIjlKZpMoIf4AEW5EAK2IAXVEIaAIEHKIDbZMBipQAO9FUW/IFALAKsqSYeVEENpABK4oCuuYF+zEAGVBZjpQB0mlgLSMQFmIo+DQEdDAXtIImOJAlfCJdwBWWRzI5a0GAcJdQbbVsKTgV6+ki2UYUtJEzCFMb0oOLI4IIn+OTHFONjUJQtNEET8JuXUWMrPAJbakAUEWE34skkOIM7uMMSLmE6lEOf6GUzDEMlJAEPFArR3MbG2Qb+/vhGGKhXJixHFw7DfHGA8yHABFiABNhmL6lH2aAHdnTNeejcq/CSAhQYfIhEI5hmaTrCL8QCLBQCIOCB10nOFVTCLNABC1jAAsyTJz4WDUwBOBHCHcKCLwADLHAdcbYAsi2bhhjBgQCBBFwkAVgAPZ2AdJJIdX6OZsWjT/rkMQ4M7fSOFikUBQrXBa5FvyzMkXBMVTqFVBrPjl3lUI4RXtiOXnRF79CClVmeWkiqJ3RCJ3hC7nxClSmjcVEZLjQBGJjBGqjBWaKJGnQABXTAEHhGXHJj+VgCNjyoXaaDOrADOkQSObAPM3iCGISAKPHeGHRoGCzBYA4BbcBBcEAN/qPBAU1pgAZUQAjMwC2phwE4kD9mUGdmmjDxkgQ0QAZQgdyM5mmOa6zFAkFYUzVlRCfkwiBcQTx5SxHkwAuoQA7gWh4QqWkCgzD8gv61JooN4hRIwQmwAG2EAD7pxBHNEwqw6QpMpxFYgHeMgAXsgCTQQkDdaVmwDp+aRbalIMCAUV8Y5QiiIFZ8UcZckVDC0XkyD1E4yaMaSe9UqiVYAqbyxWMoRXF9VHKBqhmQqoCiCRuAwARwABHI5YLKgZpdAjawA9OuQ62ig63iKs/wZWw4CqJ46G3gTxZOwlVUSjIQg8spwRJgjRIQAaioxwhs2qtkR9kAQDBtUPYJEwQ8/oBOYEAGQEHQ5UojnKZpxlqs3UerGSkhrNArJMIbUEGBRIFL5MAP6EBG+EGs/YIjCIMwBMMh9EEW5ACz5MAUWEELlAATYMIceMACRKnbXEBlNVaIvOQF3JcE7EAklCfu9FhDWeVRUAVd3IvDnNG2VYnuzsW9ZAXgrScwOonurAUN7iLMFsksYIIldAJRnMWm4gKUCEZHCYEQCKjn9SAYeMDQDkERFuFnzMEjPag7xJldssPsTVIzOMMwxIEPsEATZJywdhxvIIH8yMFTpZxyYEIcWEImREICicCLSoAIfIDWmBVZoU0wuSFZ6UROKEADFJjiAMKu7O1p+kIwAAMw/khuacLC0oFw+vGBSeyVleraHvwBI8TaaQZD5V4uHuiAieSADG3OFdCBHRQBuDAAuaAuAzDW6oKiAQiTBAAB197OeIag7KJnkGTMyzoPF8WgQn0neS4xEtuLQh1q76bRUL7nwRjFkwiJcPVkpXqCCxoDpFbP4lGZSmGvqHqZl61BHXTvBMhMInUjHiut06pDXT6oOjhcOTpDMcQSEDhBGJRBh4pBGRwK1jSVYV7F8XUUVHjCGDDVLFUAE7RBJRMwZ44V2zyAjNJczUkABHhraCIY+J0mrPlC5fqtK8eCSN6HhWWYAO7BrWipL7RwMPiC/sWw2qmVFbREFpwEFqjT/kzY0wWQQAmci4gYAQNcB3jswBErjJHIYnnC4nYmibYlT3kaSTFI6iomheV1W7eBm8eAiZMkV+L9BRiAKhtsbxyDAQZMQNzdMVCIL9NA0us13Kyqhl4WwxwAgbEaFf1wXBV+wRAMARLQjykVg3F04bttChnwjxLs0xmcgRKIgLbe3HbMXCirx6lMwAR4Kw7Ah67Uh2n+wi7vcqwFg0uXq0KqmuOE2DVVIn3kMrnmciFwnQ7UUA1Qwa2VnWFpotoxS4qkSMPWgBATwAhMgA/EblAe1JEE745lYFToBfIcz8IUb5UIz3rurmhFyZOolMRAGWuZ9VmXdeMRGeSt8ZSN/qUxCAGAmuUj8Js0KsE8e8BNKSgeA8Un6DOt7jPspcY4QEMxkIFAG/LGJUqiEE0SKEFT/a9wIAelPEUAd5YY+MDoHEEIYMBlkkpH61yAncqm2W1J54r5YbAjaHBLx5q+uvQuE6ksk5P9/QEhLAJOj6uQWi5P5wAM/F8AZsGtZcgUBOwB0uTmNKwRZABOUsAQWAJRknNYR4zjSRRp/eJYZlTEqJSTmZt3xxYyeHduDcORrZuRJR56izdFtZZcl6UZvLc0mkEQYADcIUHqdSMczAFQXNc+My06/Dc60N5q2MIYhMBApxfvJUqw7ob+pFckaAJHGR/LfUImaAItzBdt/uyABVAA19BoqbAN3D4weLToBBcBHqA2Hupya2sw5QoDMPgCvkYIXkmYHxQCbrOwbrPw3RCn5OBQgxRWho3Y1yXbgcRkETB3TliAD1xCdBfPdW+3lAiPlmgUWrMWVBxZudWWlDkZdGQKdNAWc0jVYtLWmCdabmm5Ko35YurWuYm3KtUWeUeVXCtB9pZl57EBEFAABsiAE7RBX6ceHJSCM+AlOWQDoddZOa7GMIQBCAxBxgFmgoeBUomtZ1SCQy8H8UXVMFxC7/nAB3AAp3GNZHb0zYVyToi0SIeLgVnwjwKpim/wa3Pwi/sCLJhahPTBChWClsJ2MHjwKvtCIeRB/hXUEAzcUOcKtzlhiBVo00sUAUskSA24wFIb8BBkwuGtcbyJ97mxG2yZ3Jar92ux+bolGm2Vu7lDh15Gw16qu+01g+2p+17uZZcnx3PUe1SV+bnnu5ibm5gjgxAoQRAIQVmGqhqUQZ5TwA44QVyq3oz4kya4+zOwDzREvDNUvMWzDy0weiHXxhjQRtEEJtJk4cgNw6UQAzHYgifIQbB2Sgh8gAUAU1fJnFYJEwEMsU7AHHscE/iZX46vdIvDdrkWqZGKBDPtur76wi8cgiqr9GkCghU02//hgA6oJK4VlobxlQytBIGQyJFXqwSEwBPMgpHB9WuVd3nD1rhXQ77z/juWR1U1xJa+5/tiuruF2t4zOIO6R4PeW3y6e7nbfzm+01amrNuW49YAaUm4zxYSNAH2gkESJMF7N4HQVkDCx4GwoIE/zQgc+BMntC/f8700EAcz6GUpJEEIEAFtfEESAN/QYO39DEGg0Ukl1ELxpRJZYIIckAEZwIEYIAERaHjYgI0DRylaMcACoAqqVMAJHBMhtLqrH4IGu7CLu/hLy4IIn1pbnR+Lt7IH67YjHGk6HacO/DiQY8Qwd8Gyr8Sz1wAKXOTXh4HYd5RZc3mWpJu63b93cxS/83vZtzniJQdAKEtmzFgygwMRFjRIMBmzZskePjSorGCzZsokWjyo/nAhQ4IcCxobFlLksJEmCQ4rhguXMZYlRSYRIgSMEps0g3yAsGFHGDRkxPyEQ4YoGTSamElzBo0cO3LQoDmTJm1Z1WOYkHwYsuSLkh08hnwJM2aMGLNjlijZOubMJE/DmMU1ZutSnDhowsCBo4RJCAUDBhAgADiwAsMKFjAgwaBEYxEXLjC4cKIIF0CNChVytHnzL1/BhAkDFjpYMF+/Yi1aVIgQIEKFQMECTdoXZ0e/gm3ug4dKDRo1cOCYYgULF+N48uTBYzyLlSlUohQpYiSDAQMYhoihZZJ7SoLHRqbsjpL7yZIoP3oXmf7jMfbvyY8veewYxfQD37/Hnz7+/kmUycoL0KRiymOpFlyGQZA7M2YCQ4gmlEiiiSA8mIAnJ84wqqiizLKkGGKcYSceeeJZp56nqKpqGUuU+GCHJYbgoQILdkhirLHECCPHJIZAQkc4MCmGGYOG+cSSSNBwYg472ghBBAkGI0CBBwhAAIEBDEDMgBJMIIGEElJoIYMxL8gAhcr8KOQQzNQ8xJFDfBktNNJMgwUWUFgj5LXbYpktmF9suy03RwLpwwocaqghhxyoqAKLLJDTQ1I8KOWCuCmim26FBQwQYYk4totPvO5gErC8805FdTz/TG1V1QDXI0gg9/KrlT1k1hsovI/Qk49X/gI0owwwiBVCiSaa/hiiQgx2wPCMn4AiKscwJJmkmGbqiccff+hJB5pojiGmmHEnUcIDH5AY4kkCRPBhiTB0nHaMrrYKg4xIPjnmoWM48SSSMZxwAgkPFLBSSgyIaGIHESY4rAEGTnjBBBVUyCEKI1ZYIQMWUKgBjzQPOSSQkEPGbc7QgDHttF8y05MQNx3xxRfSAOXsM2FyO6SPLHSowQbgGsWiizwk3eOP5JbDwjkppitihgVG2CEOTGwxaT9jwAtQXFLDGybrccsDb9RSsTaGGGJKZdW/XwtCjyGDjjkIIbnfnig9iuRGaBj8Dtp7oY3y01VuMMwwo9gklDC2Awg4GMLeaDkUQyw0/qpVpRl64omHnnqcIabISzjRJBIfzk23AigrcJcss8QgawwekfhCjDg0OTsZfv9dIt0dNLByAgtCcKINOpzgQYLDFFPhBRhy0KEKLrCYQooWWDghCi748EPPQzIj+ebRUpb5F1BAOUTPzAphpDPQ/rTNz19ExqMKG37DoVErICVajz2UM64L56ggnSK0gAESSALV9uaq8iCjVaZCW9fMY7VYpcQ9u+IP1vZzu6vVTW4ZyVsyBCK3uH3wgyGUWwjx1pGQkNAgNCncTJQQBDAkgWGNs5cYNlSUMMhODHCIBCeW4QxnNENcn9DEJCoxibosbAdKkJGUJBACH+kIXq77/gISkLCEHk7iE8TQ1STQ8IUlEIEIIJjABDxAxidAaAcewAAGZsQABrhgec3DAyD8wIcptOAE1sPDHvoACEG+JmQx+0xpwucLO+GJkN3LDCg+U7OSgQYcONMZHrBQgxa0AAdRmMKjkLOH/fWvC0qTXtNaYAELhMETr2rgK02StWEw8FRZ+9UwPAcsC37kdumhlUfyxgyMNKMaFsFIBwViQhbODSIgXObVWMgRmgxLCDKhyRA0IAEPKMEs0MrhDuFlFElYAhOayIQmMFGJSERCEpGwBBoWNgQnTgABBJBAu5IwBjKMIZz8xKKN0DC1YgCIFnIIgxPG0IYzhMACGgiB/hKQ8ASADWEHMwgBBzCgGBfAAAY/yAIgMgMIK9RgBSmoARbyYDRBAoJkITukymRmJ1gcghGrOV8hWHqIX8DvTXCiJDiCcQhDQA9RLqhBFKpgBS64ITlIYw4WqgCdGhhhOg1FQ6hgmVVYqupV7EkV23i1K7518CAXMYhE8obWaKKQrHQrW0jck8EQEkQNxZpJg4CwAQl8AAk5/KZYcoTDOEhisJOYhF3QAIc4WIIMF/WBDz4wAgQoQAIODUvrzAIUySFOdnGYBCeIUQo5tE4OnZgDEto1BjicoQ1jQAILPvCBjfmABZBpQUd1gIdA4HQ3UUiBSa2AnDz0wQ+A2K1m/kDhGdPANBbJDZmaWmOIPvShTW/a6SGFUUlfFGIPeDhUDnAA3k8axw2UwkMWjGNKKiCqBUWwwQU+AKqsEmhAAaKvVpFxXwGtpz9eO88G1cNBZz6TwHlT5jM/IpAJ2opYDmrQDIGAAQmAAAk49KtRdiiWKhLFLpIg7F3iIAdLiOEDItjBwkYgGAlUQCtatLC0wpAEJNiIDJLQhEossdozhEEJ7WpDJ+hABicQ4XQrXoEX3uCFK0yhCjj4QRXyEDJAKCeTJq0CpVL6hz8ct2QyU5nKxvdc8wFiutNt6cy+XJpfAOK8UQjvouxHnC6Y1zhcKKUVoIMDG1B1Bh9wQiRC/qVf7ghaqw0ktH1PZSr+di1XA14mWg/M1mVy5IPvwdVHXlKrBm+6JkCgwAR4UGGieJPDGR7Lu8RQBqJ4WA528awlzPABDpxYBCNwgAQs4IETJ4GHG5IcEpTQWUtshxZxUEIIQkBbH7ShDUvIpgXaRYQWXGEQ1R4EIfrABR0gog9uwoMOgkuFFtBgCubVwx+KS8hFeOYz7VZZ+bjHmjKb2Xsrc8QiGuEI7soPUcCBs6OygF5KYeFR0XuOz2pQBCIMAUhYLfTDy1OMWmiNlhFvYAV3uTcBG/ggB2ah31gokL0pk5fGsA9BXmLB/RQLDGxwcBN48MYdIKEspI7DUCR3/haxiEWc7VznJCwxiTB84FwollLjkLADHyQhsxzaYezyIolZFEMTcZjowkTAgQpcyQJE8IIg3nAFLxjC2oQ4GqRGBogs/IAKeeCCb6jABfNqORAuWwQkl+vl5pKPe4cAhHT7wO2XkawPotzDHsi8GytEgQbjThQNOkkcLqC3C1kgePSkaoP2GqEJc5hF1bLquVbRV/SDNjR3PKdfWTL6PLUioTKGBEK1MrPACAbcfUBC6bo9gvePgMQa1FDXmDPLR6omQxw4jHzBRgL50YrDIzxcLRtfIhJf+EAIhuCDdT3Az2NwYuxyiIbN8rqHlvgEJibR6iV8wAIScH8FROAB/ibMgQ6CsH8hBsEaQyiHUtwDBCJ+QAf2wA+moHnkLlIAyTUIYREYIRa8TGYUaREOYTVCat70JJB2xgV+CweeB3qajAZooI/CZJNwwArwx/Ioz+CiIFH2rAjGIMRAb6tUYgZfqeK4o+JW7wYjbj7Co/TQA20+Alc6ovaIsAgZQsFOiNI8rhVUoRWYsBU24fd6YAOIT0dc7fiGAigArRQ0oQs97Ig0IXS6sAst4Qt0LV08QAIQ4AFCYAtGK/u+wNd+4gtkzEbEIBLQ6RImAQ6G4HREYAiIAAkC5gzsoNrQhxAMwRAQARGurNsKxVB0wLi0LQrMi2jyoLjqLjMWARYO/skXYoN8bKoQAO/wMqMPlCMHTOAAGCAF7KcKdAAHQtBLIKYFVCAFOgp/TtAEpScKVpAGbMAGigAOJiETUMIH90ttaFBAjPHQymMZX8mXmOE9FIzSXi/k6IaFZq8IAYTjXKEcutEVWGEVWgESgmADOMAHxEKf0GANFOvmkA8TiEEaWGFc6BGIgGgZxsUWWATpsgJKomgM0O8L0OVxNmResEh20GDYaAETyGAHiI4FiIAJnmAJxkAOXgEWXoF8BuEN3AARskALLMYPuGe6FrEPGkF+qKAS9cAPWNI1MoMRYMEBHTA27qRlEHHe7u3/APAWl8MKdGDcUoAEDuAATuC3/sLEBXBACyyPOACIF3PgN4ARCuigExzO9BbIVFbh9GawKu+LQJixgcIqwHjpb7RxIszymTyuLOXGHMrBHNzSHFzBFTYBCCLgA3wAXnTEKOxCsY7vE5YCGsZBKpyBGQaTGQLTIpphE8wlLJCAB2xNm8QgEzxhLy7Lr77giuwQX4qEDi7TB5wE+8LgDCrhFRTh2oTK8qpAC/qNC0hGuhChuPYgCxylqVIK8VbqJTnRFxwwJhdhe24S8RhhpxwBEUwQD/ogEKYMC3DABVzgBlJABJ/TKJvHBJPqOfIsBzapvc4AEzyBvg6N9L6yvgQEbMIzPLWKPX5phdCSwDwuLQus/iDcMxne0h7e0hVaYQr56iyIoh0RKw6KARsAFEDJYUDJARsItECdQROUoAOUIMYc0wEewAMAshgsIQx6RJ/+KkKYDg40YVwyIXfioA2eAAnchQ4Gwf5ewxAsTwpyAAZcoAWmoBAkUMxaw7vmLDmMZgCNyyVhUpFiQaZg4RAFyRAKAQJBQRGxwDhBqg+wADqe8jn7CDo5CamqoEqjigp04Ckbbwag4A6wClUIxAYjzhZsAauKIQYHzRYUhDuIzSTIVDxpkBb0i9C8iDw84j1GSISokRo3gixJaOP6VFZOaC3dkj7dshw2oQc6gAeUAEOLQi/cURKKYRoElByy4UAH/hQd2AEdnGES1IXmlsADHMCePCAMhm0WTqtHMkRagAIzxQIOKkFOM8Gw6EAO5uAMmIAIfGAL6u/aFPEjo6BFXzQKCoFl/k4zakMP7IxSDs8P/kCQAuG4FsER7ORHY+FHJ9BlqKvdZIZ8WAMQqs0PsmAKrmDxaABKizJMFIVKq5QK8sxnbqAFZuAJ7GDitEarznRAaIEWYnA7cKEWQuETaMFeTWJf/xUXQK8qA0Rh92vB7uP1Tu5tQgLkEoKDLuhO3WZi1fMgCtVQ3TJRI6AHlCD84KCdIJUYuqEbBrRS04Ed2EEd2MEd4iEbIiEIpOgMloAHRpX7vmDYiqESxmAg/kmNDMLgn2QHDzmBE0aiFjABDpAgBCpgB9zA/nx1Z0ASzizmD9okkAjBM3bjALOsuIzrJVWjEGRKFn7BThiQNcxWudTMWwmhNAeBC65gqaZAz1LgRVsgUYDDk6p0CjAlvH7DZ4zgCmbhJMozB5ORXxeWFjyhEzrBE2bhFgZtX2khFzyBX8+UYOE0GU0PVdhDcCI297xqIabRVkgC9zD2Tv1UPgv1Lc0hUTegB5IghyDVZCehGtIBHQY0G8qBHDTVZd3BHWIWGigBCEJgCXBWBBzg1nhgDG6MGGhBEkiUIDmkK6CODLjIizyBDs5AXYCHCQSh2giJOH+Ao8DLZ7Bg/sve5Dijlc0O8I9a0iUzIxDujlp/VKZUIxZ6FBi4NW1hgREUQU/4gAu0wA30oAuC9fESBbyCg8kAlxffjAZcgAaM4AlAz5U895WqJgYxF3JPtBMwoRNmgV9twRM8ARZCAXIl1xYIll8JthjENFVmkFf+RvdIFz47DkDGEnX1A8ACxyDYEnbZUhIUVYaO7+b2Mw7YCVajIR12F4qlOB3UYXjjwR3WwRlGJ3jIYP2adwJCIDIt4mfH4EKHNsYiRHbkoDs/wRPQ4AOiFkPmYHxhA08QAQtUU5OMKgUoMQ9YCqQApRH8oBIHUGxBimynlROv1U48wwERCQIxkgEJwdq6/msK3IAP8mDxgsNngsOTqIDJoEOCc8A3xq0I2sAqtbKB1LQlXGKFO4EP7I8O7CBycSEXckGFDUEQ6GAqUXg7CGRfrdIrXwk/3Ib28gY+RcLR5oZi/eY+UkghQGJu+FQ+25KIH6EDGBQMkvjmEsuH7MISQqRl0UGKXzZmZVZzmkEOfGAHvmB5v3gIrioaOqcUjG0ImC5yni6LfAITOOETKuELtiISMmGXrY01BoEPsCBLXzQFGi8FoEyQAikQHKERTlLuksOQFVBGGRB/gdSRP0MWfAFtQ8FOFKE09USQsuAKpjbbtIAXf6YIeDEKPtk6JTi8fKMGnqATxCNWFOiV/liilj2BEQbBDdwgC95AliuBhHMBTxKRI3c5qSfOcl144vLLaxSIp6FZmm2vGqe5Tx0tPqtxiIlYDTrgA5AYC+8isdYpDi6BHOCBijVVHaR4eOEBHuKBHZohDpJNn5iAeRFgAoAgDoYBGrChGYbhEsTAJvJSWiTnimJHDCahC+EADSYBEzBBDggRcvXkRD+yRVvAKJ+zBT6KzIwLZgaZWTGaR1VDAhfBWu1EFmBbFnghFl7hIgP42ghJqPSAaAzBD+4YOgQIpnkRU6BjvfrtZ2ygDWxB5NADPIohVoi5V/Trp0GYD9xAC7TgDJBsKjshFOzPIy3PC3YZE0qBvmoh/l83OGPVEz5j76zcOxmiASKiIb4Rs741ohmiwZgg4iLsGyKGCb7ve7/PCq00wnWJ2BXMoKyDoHaPz2Qj1cbQYR2Gd3jVQcIn/BxkFq/hgAd8QJ9oqEosYAgEuxsAlBmKrSvumUPIwLGZzsbQrzubVgx+LIVnyhDcAI/PNwVq8bdOoARcQLcEqe8cARDid36R8zVqChb0TaZ+VGZg+xdIUxE6gREYoXuaSxQVsQ9csznwLFMSLqZjOjhGeXCLoBIgQpgKfIKGcCR+iUjCAxduoRNO1LqZALtV+qjrjw/44CO14ArO4AzooLLJFE1p+GE57qyGiL/xe76FqNGdYb4h/j3SGd0ZMGK+LeIZIr0ZnEG+y6rAJa2s4ttjC7UcwKCsg43DJoH5XI2wWiEd6BrD6XrCz9kdmmHDgWAM0AAJeucBNGAI5CAZuoF3nWEYGDJCysCbcGiHZCwvIns7ZiHH2oA7cwEX7MQQ8OAKogAGeLwoTwAFGqMGugATn6u7luNjxJYQ/EBaV5taZSqkZYF/S1MRXMMQQiYRF/He7z0AAzA4BPdnaprfn5JwmWAWlCG/8/sZCkwZKKJrrgYXZgETBOFXsbvPVdoN3uANugARtEAKjIAJ/BwN3CkTqoZsALWrm+EZTl7SI93RhUjlIR2/LcLSLR3l8/vkOb2ZCj4b/klI1O3BHqRBCEw9DpPYw1YdVFzdnC9c1u2aHYZBDIBgCMjAaXuHACpgCCJBGbrBKaABHyWhaGXHr17nsfFQ4mZhFjJhFmgZF2QhSPlg8TQptGnR20uAAVBAAAPBD2IzCpTKos+dfhlwWh2BJmNSkUjTDu7ADwaB3oXq3rUg33/g8TmKeRbFN37GCH6G3wXXZ2bgDG7B0t+TPuKqVmr54b9b48/Azq8g9a8AC64Au6VDCvycDiyBGMNGl6xmmYpJvhcd0h8d5uVZiBa9rNw7hCIimgfChPYUUJ2pH2CX+VehHEX2cexiEtoJ+jysFlzdHTBnwi2cruNBHZoeLNDg/gyQgAKqpAKQwMy7YXcLmxiKPcVfbLMocg6sZeQxjRd4QZEK4Q2wYAU/+wQAQkWLFihKXGhggESNKVFylGBQIwsXPHn8AAJECCOhQocWMXLkCNYvWLFIMhrEx42bPRj7IPoB84eWmTFhwHDh4ibOgS1s1PiZA0eOHD9rzLDRplaypcmUGTvm1JixYVOlWn06LOswXLhycZ3VSZBYN1lmzryC9oqWK1KkRIlipAjaOZUw2dKqVSrerFKbLu1rLFnfZsqaGT68tFmyZtUWG2a6GDLkY4GZBgZ8+TJVq8r8el7az5xoc/bMtQqygQeSL2PGiCETJ5LsSHEkIVPnLne8/ty8dZ9zl85WGBBI0JxRIgHBAw1ILCVDl44cNmfNikn6ouTL6zFk0KAhEwYJEu5yOFFVvJQXr1y+YIXiw7ZGCxUqUgwsYfDCggUNMmRYYIABJVDBxUQsXXTRRoUUsghIIcEi0iuK+MEFFlZMlAVMMPwAwwsbctjhCy+YQOIJKpyQQoo0FMXiijTQYMMdVvE11WZ7ZVXMXlNx1ZUnYdFBhyAqaVEWE1oYqUVbbw0VVxRXtEFHJaXUcqNWd1Vpo1WSMdXZll5aBuaWlSVTjZaWXaVXX0wp5k9ppJXWCg+pNfFFGK7BVpsktEVCzDru7KZbb715U8wXOyhxhhhETODA/gMiJEFJMt2QQ44z1C2jSRxLJMEdGZ56J0YSSCQhRiSYDBPZUsjgwgswvoDyRnwtpHDCQCoYlEF/GGQgAwYABmiERHlUdFEghByroIMQxrLIIIT8kYVQGor4QgzVUitiDNpqS4K2+J1QKw1FGPHiTy/CCIUdWmp2FVVYbmZMV7nk0skgggCZkhtdYIHFWmtJwUQNObgQxU9FOHlGG5N4UguVVeZYo1440miml5U51dSYW3ZpTJeQqXkVmJmtK1k//vRjjz2htdKDBqo1YacZnsY22yTJ/PlnPDrvBihv3nyyRA9DJDrECA444EESlhiDDTnQWGpYMZaMkQSpY3gH/gcZYnyxBBJhwDHJLMso1rEy6q0Hih6ypihQQRmwMEPcM3AggQLJGbCCFXhQtIdFGh3L4EcPwrIIIYPkUYUNKohoU0wwvaRhhyFuGwMDF5SQQlBCFaWiDU90kllnVx0Dr7t5WdXVL78UIhaQdKikUhZWoKVkETbcfvuKUUjxJB2YeGL6xDpKnCaaXx6PvMZ//YVm884HRhXGyaiM8mib9JDaEHa2xl2eezaTc84778wbOrQk0YMSaIjhg9EScPCFJctgg80440AzDnWarPHFalejkTU0jGFTXyCDqYoBGbOpxxeDcAMWCmafFLUAP/7JgAcsUAEPhOCCDzBABqjQ/gUD+cFvhAhEIBh0iMER7iR5wEIVpmAWRMhQhoaYoQ0hd5MXkIABlmtBUApWlBXdzgvAe54RTxcvXIRiEPZywxue+AYnRtGB/XILDOQzq54YTC5emMPCHKaVHO0lR5ShGI24hEbkIe8Yx2AeZsw0JufBC02kqZ5orpcaJYRhe3eaQ2zkQIlnyEMevYGHbnTGG3JoQgk8WAIcxLADCThAAiEIQyacQalM5s8ZxajEGJCwBNd8x1Nk4Jp24mCJWRBDME05WywaWIWCzco+LWDBCpDgBDI4IQREOEMTQsABCxigAVHAQoHy0LdiAeKEjEjhIUZCEkIIQg9u0MMfAOGS/hkaYpvbvKEVrKCFH0QBBrRCkeaiUAQcmGtFRmgDLVZZlTThZSrJqFK8XhGWsXDhDGeAohPpkAW1SKEI5uoJTmzwoiLIxYtSepdD3WU8qggGVawU05miEjrnCWZdIDNiVaiSstKkzByP+MAGiOOEmHUKDnmaxDPc4SdD8mx8O8NGKoYAAic8MpIE2MAHxJAJaLCDHuwoB6XG0QxiaIIMSVBCp9AQhzgkqmtLQIOpJKoMWahHFq/4gxtiWQMX8EQuZ4ADJj4xCTh0Ag7iQUIILnABI1yhQHjYwzURZCxCLIJBi1jECglhTWdxZJt9yAMiuNlNG4JTJjZpwYqGgoO3/sjSJzZgAh0o1rx5zuhGtfDEWNRytTO44XWxu8IUpiAUGgxEtTzpiVyhVIlMXGkYtKBFGIX3Lo9yNDNn0q1vK4MmrhSPdMagHsrsUQ41dGACO/DaE8awxzu1FBqC4g1NCYkNSwyhB1+Awxgi6YAR7EAMtCBHPOiB3ujkjxmfkETXwtCdqMYBDmj4QhKWEIY4VMITgVEgL2ShCFjKMotS6GImfBSJSWgqDGIITwhE0IIrhLCuB0IQ4DbCiAwTwg8b9kMhLozNPvQBsdm0YRXCmQMYtMAFkJVswXBXAyZgIp4b/a3EaOsJT9grilrg5xm80AYoym4KVGgIQls7yxbI/vUMd/AdLXJki9o6tBgOE2PEIFo86GWpt5WhTI19y8ojtssYdTxuOcrQgQ0AQY/ca81ryCAJMmiiGz2DaaDE5w5nTIIIIRgDHMLwAaMxlwy0QAd62bEOo5LjGcygRSSSMIQCwoal8xVD176ABkl8AhetdGUDUYtF+0ihC2+wgx3gwE/8iqHBZxgCClZwBSx0YW8VGeFFLIKsBQVihExU0LECcRER92EPMzQLTKIAkxq8KAUwEkpko6DOGtggLl6gBRyZ58bALKNd7sqxWIS0lit4YdxZcOKQi0wUZfPkRPapgRSe4EVL0MJhtbXtQ7VSxhrNsWLA/ZjyNBYy4+12/rNX1ks5zNGP45rDDBjAABBgBl077fE1cSDDJLCBs9y8wx3voId146EOPQMBCF8LQwgkOehhkGMdh44OOZBajEcPIZfxle/WlhDKOEyiFsroOTiooR5YvOGBNkiyXL1whiswYTxooIN+PTEJJGQgwlkwJt/6NkK/YWSZfvgDr3+NIAQVFg+ISFIOdICDtA9FrMx2LO409xOfuKAIbTDe8rIM3DHborP2ElJA0+IFcXshoER+izptINZZoci1+aWDJUoBZSkPwxZifOhmN1rRyyxFdJPx2OYl07zPt3FGTwl4cEWTcJWdQwgd4MChWMNg6Eb8O5xIh8ar+/F0NCMO/kCoZCk/0CjmxqEY6OANO45KjupMYglECMMZAChfOHgX57mUQyd6To2fA/0Xg+gCFYpOqxQYQQtSfW4cakEMqTyjGZEYwgdYIAV+TXhYe8A6IO46bD9Yc4R/yEiwRzgseGAh0DYUQBF3tOR25qKAP2EERqAudodR+2ZEuAAWfacv/IIWWBBrGkhkVFBk0KZuKbACIzgDRuAEYkAXmfBkw4AMlXdv+7Y8n1dRauR5FmODd/dlpkdmCBca/bB6HOB62REGsNdg0PUamNANMOUnubGE7sAOTHgOyRAHPLADBfQFIuAABMBccFAM3cAO6MAOLpcN0AANyVAJXzAE3FFW/pQ2X2SAc6FkfbnQKuAADsLAC6/EBVdgBOAnfkzAYHRQC8YQDc/QDc0wDFOjBCyQAUbwTVkgEXtjV133B39gTXqATHqAiZSYdRbRdX6QBwJoBVXgFukGWefyIgjlE6YYVjVQBFtQCiODJvAyUYBhOlKRC2BhB4IQRVywLxmYgRpIBadVZIeXRba0AkUABVcwB062gi+IZSETg5JRg17iMYWhRjRYem1UMgmHMv3gCkKwARoABLg0Bk7QGgyGjmKACdhge+mQDuyAaMWXM4hGDsMABzvAA/CFBFhIABQABHEwDN2gDi5HKfRThmeoBEwgBvwkfVFFXwO0BE5wBp1w/gu5AAzZB3SyMAhDJwW2omRLNwe4MA3T8AzrRwuZMAdOsARQYEsbaCEGYleUiIkBmIkz6XV60Dd94ImWyAWyI4pV8GxqJzAtsk4uwopnYAt590ZqUmNfRhW4YAuzMAs69kRkMTtqgZUY+E1EJgWHZx8j2AKs+ARQ8jvzhhcuGDEDpzzXyJafcTxdUhjTOI3JcDKp1w+sEAQawAFAwARj8AXmiI57xGCWQD/pMJDumA5gGIbuyA7dUAxiwAP5SAZIoAHKQQFDQGjQgA6ZJB3ZMIZmuARDQFVLIAb0ZZpnQFVnYAevwAvZV4fAoJF80AVSgEUtUAReMAagowwkSVvD/lAMcTAGc7AFGYACU9AFWdAFVjBrV7cH1rQHw4KJ0ZkHmNicflB/lviJvPhNVVAFoXhaaQeeueNYNCBBNGAEMpZtTBmNM6h5TIELtTALTLSLf7cWTPCLFmJaVHB4RccT01Zgy9gJZhk8WYF5Z/SWjlGD0YCgjaEYCrp5h6EYnYEeDrom6NGWoMGNKbMKqKEBO5BSdVInE+dmlsAM2ACPJ4oO0IGY7ogNxVAGILADDDYEImCZOwCQ0JBJ0DCG2YANB5kEa8YCO0AEEgl9qMY1S8BknaAewvCassAIb+B9ODAQNkB3duAJuNAMJKkMz2CGcUAHcjAEFYACVMAv8jcR/tCJk8OSB33ANzOJnZiof38wLHSVnLLjnVWAdmp3A/zpWDwhLm1wC9gmg9f4b5M3CwEWRfvCO2axFhiIFqcFbUc2ELZEbXdQCakERk2pFxPFltGAGJ5hKc4QDZ5qGKLqqYvxDM6wfs0wqp5KoYSxFBS6nh/jFwl3MqLBMhTQAR7aYEP4BSFqJ3LWDCXZNJlkVF9IKeXgDLQAaGkYBkNgAQggARUwBHMwDOPAmZQyhtBADJGABDvgAxyAAcQhBvMVVcZxX2PQBoPQC60iDEDnC4rwB7OZAz1hm21gpZ5gGCM5DbYgB3XBPhhQAvEna/zyiBQRgAjbnNSZphQBp3/Q/pyfuDcYYiGhCJ6plXirhYpFIAdrmQzI4LFbYqFNoQyTRwuvgBJkkRZGwgT2WbD8YgUMEW38uQIrRlZyYAmagH7QQ3rQM6jI0wwdAxmsSrTKQKqsaqrDWqqmSqqpKqrrxxQKCqE1aBgOajL+0CamgT17CTNhUAa++qu/SgatIA3UgaPZWqyU8gyZMBzawz4ToBzUKgfDcLZpCw09OgztxwMfoAEWwAFpyIb0NYTOZwe3wAvCIAzA8F9P6gVRwKdFcAa+YwvJ4AzT4A39SiWYQAZKYAEXUASy1pONKCx7Q7qXuLAzOZ3XiZPOmbCh+03DKBSS2qcwMgNQwF8/q0aN/rEUUKu7f2EL+JQSiipQbBFr+9IFacEQOYB4rbUCRgAFkfs7gVhPFBVmfzGXayKhU4sYrcqqrWopoyqqSzuqzzCIoZql02C0JFmSJUkNrRoN1KCq2IC+znC11XM9GOABM9erYcsav3oGpWAp0iANZ8uZ9EMpzZAJS/ABQ9BgOzABD7AcQyAHxYA/PZqtz0AMccBIH2ABCqABPoBp8hVVZ+C/dPAKcoi46vEK8OG4K2YDUnAGpkILyRAN0DCSWfoMtGAJS4ABFmADIVQgjWgFWUARpUt/qducfUOJfSMIfuAsgPCc2SkR2xmMQ2GKAzEDL2IE1loZr4oeEYqgTbu0/iObDLjgCSgbRQF1FklCpvuigRYyjNKWRQNRA1BAlrdAvR7joBBatc7QFK7qviU5rO5LyOQ7iE5LvqoKDetXktGgvpbyDDccySM5yfwKDvxaySNpqyZjDpDQAxQAAjPXGrD3q70KB8PwDAIswBXcNPTDo9ggDZeQBCEQaUuwAxTQKBhABJd1t+SQDZQCDeVAP8MQB0OwAyLQwRWwA0tABg15rmEQSnfQCbHQmonLC71gB1wwBco7EDA8CZZgC7uJDd1guWSoDLNABjvgAUYAusl5IcY0ERNRus9Jz8g0iZPoxMgyCPqXBwXCi8nJnVSQbuvUE3EDBaUAGeEbDZBs/hirun6hCjVIGw2dwTG18AqvoIu9mBamFWtVh4EM8RbgxxNGsAVtkEqowr1Eq7Smun6jyqpOy7T08wzYEMkyPdOvLNPdgNP0w9PP4A3Z4NOWy9PT0A3Y4A3e0A3d4A3jfLmWe9RKrdRH7Q2lcbXmsAYdAMpBYCd14maC2V3FMB3SsAxj4ww9ej+WcrfNUAlgsMDQDF7LcQRyYAu9TIZGhQ3CTAxrMAR728EW8AHjwVKU5l1fMJaCwJqIa4co6wZX0BADYQReILnDStTecD/TAA3FwLZIIFfI2QXu7IgXQlelC4k46XVZ5yyN0GGT+Aa8WCAuxJ0gGER+agR3gNJV/ru0EK2qDA3T66cMuABcj2EMFZioGsgWUnBaU+CSV4BuoVZLzXsFvnMLx+C+2LDQg7jIT3O3PT3T68vTRS3VSY3U4A3VSU3eUR3e5Y3e5I3UKdoN6KDU6OAN8E3ZT43eB1fVaEYBbd1msrdHXx3AY70MA+wMT1PWTsMMl7CP2rMEJ4cAEKDLct3LTpOtxYAGe+0BdVMBIZAdeDJf0jcGT+AFg6AIWoW4wBALijB0ja1kT+B41uap5A0dZagMmBAHTADEBWKnQ+zREiHP8uywXgexTjwIgDAIclognX2c3olaObAiP8ETM3ADV5ALw9rI4Gsp9FPWWM7TNj0NzSAv/sLlGIKRC2h8gbQjWcGYFnE8KyfCAi3gJG+QCUqx0Dy901u+5eTNo0U9zuXtDeuwooipDoEu6IHu54bpjtAR6IDu5+vA6IM+6H9u6IeZDqxQDlUNBhsAATzgVPs9BmWwal9TDKHKDGPNDLjNo86ADJXgfnqkwMkhARigBHUw12lLKdEBDbRABsb8ARIgASLgA0nAGmzYhmHgBYKgCNRc4k4qCN6nbDX73HQAPMlA1JbLDupAzuRsC3QQ2kHcnbJTpmXa2XhAV5G4f/dsiSrhztwZS0sibeo2KysQN3Yw09Ng5wZcwCZKKUk9zjfcFbDQCUl5DILc27eA0VCah2yB/k4HIwXBqCSRNSsoAPErUGB2gAm10Ax3XtTgvecZz97jnA7kjZjrAI/q8ISIJvLrgBu45w6GZEiMzhuGtPLtIPPtAA8yDw+7IfOBnvM6rw7t0PPqsArmgLX9UA5m0AEVwAOcojVk4OnrIwZfC5DmC+DLANE07QzDMAlKIALj0erS6gFKMLf4k63Hd9nss7e8/vW/Cl8iHAfG4QV2MAjIjriy8EqLLcdGIAUK4wnEcPHtbZiB7g3u+Ay4kM10VSGNiAWOWLEV6wVAXMRcoAdPlAdI3tkxGwUdCJ5F2VpwYwdJnaIpSg4p+o6IOfIl3+jW3g3KkAuwYDhcEfDjoKVj/o4SKVF1A0VQ4IlODTEUA3ECr9YCLF4Js2AMM90N9dAN49A07h3eSB3fi5mih0nygY5e9AAPHrfy7iAP8AAP2S8P8TBIg7T94R/+30/+2//95q/92j/z67/+6uAK1OMP5ZAEaZb0pERKaFAGniIGHQvRAF620wEQzgQ6OxZpxwckY76IgIBAAkJKy8aNI1cRGzl26MgVE7PjoAQJO76ICfMlDJo4ceTMgYPmzZtBingBEyaMV6xBb65EsdHCiJQ2kz4Vg0auWzp17OjBg+eunTxvnbhwwYNnKpYqVqxk0ao1q1YsVrp0mVrWTRcsV65MsTKFShQqb4vgqFGDRou7/nhnrFhhQ5G3dIHVtVOnbh27dYnVuXMX7x1Td/TaTfamDBcoQYY65TKWDFq9adOU5Qo1SNAbtFOi0K0xw0bdHHbvpkCxAsUMKXMszTL2DBu0iePQoRvXDV035N0ABxbMrrk6eEuXwpPHVN517Nm1b+e+3TpTppPFj29nrt95f+WCbMAgUgwZ+PHhixETidlAZ9L0N8M/cJgkIBAaIwkPHHiAgg+aqISZiSrCCCl2xvlkjB148ECCEXYIo6Uw3ktJjjjgOKMNmBSRhZeagOHFNCyoKMKFFoq4QhJMimkGHaQKo6c6d6hrJxQ38Mgjj6q60GGKKb7yagodqmjSirCw/vACCyrVcguH1bCMAgocbPCyBRhZaKGFGco8YYU2jOlmncLaSYcddehJjDE6e/wOnnYqi6UQQfrsBJdjnglNNFxiIaRPN7K4wsW6vOzJ0RRSOLO2GZygA5NPmhkHGmiwGaeeiboZx5tRlTMORxyZe5MeO+nZsTrqupN1Vu/AwxNP8sbzxhx7/DnPlfU6EEk++dCgb5L7BHrGmWak4a8/Z4gxSEAkODCQAhCcwETTTitC57CMOBnDh49CEiMOScgYCaU4IonjjDve+MNEFG3iBRZB3NipBhuK8IIOT4phZpp0Jovuuqeu4+UOPfbYoyo8rKgCya0knlgHKqCIK0mJ/pF0S67YamDtNRpKpuGGFcbEiy8UWCBiDly6eWai49ixeTFWm2IMvOraQWc0zPoUpJNhkokmNGpwuYUQ09zgwgoXi8hL5TEjXYEFvowIIw5MOGGwOE+Dg4bUUpGbKJ1U1QlMqVsPvi5WWuOWNTzwcs3VHnvQUyVYIBIyo8MO5RPDkmShNZyYOA5KIgwlKlDgQBDCyKSZohwsJ53DyNEkjB18uNCCHeqLBI4wwiAD3ZTieOkORWKpV5hgfhnEDSyi4FdGgGkh5hl0CFMnnrfnmUceZdzIQw89hsyDiyzcSrIK6HXA+Ei4Po4rrtXsapQG2aaeIYWpbSshgwyIiKOY/mKI0TS4ieoJrJ113IkfPHfUtgwUQ057o5JZhlHmaGUYIxewaJq+VGOEqVEtUihg4AqMMAauDeNr7JsINET1qd8Upx71QIfaIMQO8VDnVdWRR8LkdsLs2ApXdmsHntBjHlX0IAIc4IESknDDL+SwdKUb3DIMZzhsICNxH1icEjSAgAP1YAyZooiDMGczbGhiDEP4yARCFwlMpKtDKHHXHOhwh0EMIhayqIkwgOELRQiiC6opQhT+hYlhGGMa6vCGN9xXsHYITx68EBLy8uAwPHShLVGIQpOuhz1CYgkHi7QBDnIQmxbcgGQJHFPJUjAm8ZXgBBn4gBMiYQlNCKwZ/s1YBvqIwaB6rCMertoZYSpTqEO5gQ506MSf5DiNZsByEHzgQlqiUAQbwKhql2xBCmzTsgfSUoIUZB9wxjENC46qjkdZG2LYNhlXvQ1uKEShClk4HnX4Q5z2MMcmZMiBCg3BB0NAwhCUgIQkNCGHliCGQKTxQ4FgAxvLIMMHEvSFIVTAQBMIgRhK0QwHVWRt5YDG5nzggw9gaAdkmIQmNBGHkpwuJW2ggyD8IEYUgaMmwXDE7BbVxivQsn/P8MY0omEMYygjGSyFhzcU0YXj/cFhf7AKF7pQhdXoAC5wEeoiH1mD2NigZDc42QpScAOVpYyYSq0aCkpw1QxcwANI/jjdJEoxjGHQQhOWqIQmPkGMcSiFbUxZR56ekYtcNI0Lb6DlJ2JKKJzkJFFs7InKInXJE7SML0w4g1DqCTZnsq8e3QhNqbyhnOawqn5OaaGPuHlZba7wm5NJhzjPU04ZiqBCHiHXOofAzsXR81nQesay9ImNYcSBBzwwSUCvBQQx0OIZl8MROVQFDU6IgVwaAIkP4KAJTmhCixsKkRfpEEbXCQMc04XdIkwqhShcAQ526N//lBHAXHQCE39SBjLu4AU86MEPe/hDHtprleZF4ZGKzFIOlqrUk91Av/p9KjErCT670OaqVyUBAy6QASaMoauYwEQk0lUGNEzCa+hw/hU94gEZtYkmF5gpCy09wRllNOMmh+JDovZVtRNEKsUtYAEDUdCCJ7QBU8SIBjTQkUFmCuex9fAGOnr8QcniCVZCxixm60aYybjDG20Szzo82w9zQEKGHZjtaKu8AyAoQQlmwAQx9KMsaAwkG9hwxmuJAYcPiGSKGhjBA0CXW2yoyjlvYgc2MsE5HlRAAhbwQRx0V4xKrKEkY4BDSmYpiEHAIqTTFakvwrhGKlyBo56II0yHcQtPVOLQmHjFHaiSBz+Eur17GNLTmqQDuqwmZOD771Ntw1/9qsySVS0BCS5Q6wswoHxOeMIY3lNoMijEDGWQhNfGUWFt+kw0xgiF/iCs0oU3CMITnsCFMZZxL7liQTWzQcEJvJ3iBbaMBVeIQyVowQxoPKNT2OhGYovzqbHx2Mc/Rkr86MSzWW2zyMkGJ/ySUpjCKObJ5lgDDyLAA49c2SMLH0IYSuHDe+YTG6197UWyQQwxeEAkThjCCBwAAQrs4AzF6EZSVJUYdjjDEkvwiJ4rgARJnHIZnIjEGMDwBXbNchCEeEW9GF1dQOQBC9j9VydoUQtb1MITndC0F9TyBjt0mgt5aESo/aDTPeihp1jAWF28ztRhWo3FN3DBDSJVsmF6u9a1tjUDGpCBGTBhC1tIgxh8bXcxlAFdmpBIhakDGcJ0wzJx1QNa/rywP0/cAhe4wLYgmKdtnqj425MP7A20JodL0OIYnRqUuzf1GbEpBzTouBk74nEY6DBlhClUPTf/XlnNTuYbgEkOco6DnMeKU5zmUEMHMJBmhgMhCFh2JxLKQIsvl/m12SDHb8rhIIx/YAhP2MIQJkAABFCAB2IoxrfmbDPmNGMSX5htBUbw8kn4kBnFsARGTUIGOMzBDnZQhCJ8IV1wtGO6wIBFIVCzkyt4A0yYtqVjullSiyvAgqhTBE/7A6sDBEDQKa2bCq/QAbuomrCLlGKCqmISphQYMBJYOxIosAu4gNtgAieYuzQotEKTBEmoKIGBBqVYB1ZyChBKh1eK/is+cLor6AI6qIROmAVayIVXGAQ9cAOokYIukRRv6zZNasKWYYIwmINLsJF0a60aYybPc6bF6qAcQQzowKZsagfJkAwxRLZVig5XWaHBGA/Kqh+1oSNTwb05bKlu6Adf8Qfe64CDc6d3QgIkeKcbSoIvIINicAZ1q7iJS6jngy0xkL4xoJA2y74P4D4IIT3wQ5tmsAQl4IEe2IAR0AAlSL9xaIZhyIRIEIMlAIOTcK76+wXp0r/pogZZYIR8uQIt0AIvEARNqIRKwARNawMvyEW1+INE6AVFSARFsLpAgMCrI5KqCIsqoAJHKqa/ykAVY0K1G0ECa7sDc40ncIIU/qQ7rkEuTuCEZViG9UkKevAg50AVQsGFTkANt8ACN5gDP3mFNOolt1iNYAosJ+w2gGwZKHgCOdAE9XGGaFjIhRyIZ1kWgcix4AgMo6gjwWAOdaiHwkAK9wG4f7vIwLij5VCbOpwmxhqUQWmpaVDJacBDcToHM+iADQiBIcghm7zJMDADOKin31g3feoWi2i+YgiDNAsDJ9gBCUAABJiADxiDYcAR5/AtOiOHZZAEJfgIB9AAJLiEZYAGU+SESYCDHFoCMeAoOxiERYiFYMC/WbyJXUoLXaSDSZilWRJGXLwCKdDFTuiFcAiHZPwDPfiDP3BGnqoKn7IC6ZGeHIAR/smjvAF7zBEMQQaYTPKZgSN4gnCkvi0QAzmgBYFhhvtILPchjuEIFeTAJWOYhU7oAq6gAim4Ajd4g3jRH0gjJPsqphN4Qqv6NhS4ARmZA4RUx2hohmcgztUaiGhgloEAjnQTG04Jjnabhk+RTumciOq8TtCYhuyEJmhiLAs6zUERlGlYltAoTkERz/HEpWfQPX+AyQhgSiQonb/xtTKIxDEwg5jjD4isMU5RN6DEBlsIAw9Qgi9Ygh7wuOwDATKwhaK4CGxgvot4hmKIhCHggRCQgKxMgkmwka+8KDMAxDE4Ay8aBEb4BZqYrnnYv7hSI1zURbqigzcoMVxkglxk/oJdVIReAIdvAAdlbJgH9AMi8Skq8Yq3YA3J06QBy80QZLsCm8wLmAEiOIIjEMcnCAMVrIOEFAjm/Lzn5FKFfAaZsoVOsIOzaIspgE0ucAMviE0vqE1Hmg216zYGasIVmIEn0A1aGIZlYIZRGiU+5Q8//dM+7VPlPE5ngIbhjAZmUFRn4FOFHFRITU6GXNThbIZKDbFRCjFmwNRkgNRmSIZOtdQQ071+KAch6IAK4AEkIAm7GwPACbYxkIRh4I+Ie5bj1CdnMIUv4AAiCINqeQDsAx0yoIXk7JQyU5ZmoAU0CAIeEAEMrQAliATNI4ZiSK5IIANAdAJ4OctDgEX8/ktRcKBFRsgJRWGCK/ACp+uCM1AULZCCvNSCKXgDRejLb8gHcfBLeXFAUQvSXhIkrVANVXOBxlQ7tmPSBtA1y7zMcGyCJlDBNJCD3QkzP+3TP+XTP+1UUDUGWsi0EkMLtUgLp2tTL2gL7KILOJ3TJgwsvpiBK7iDSaiRYziGZOiMYyAGY4hZYsjZml0GnCWGZdBZUAXNZjgG0OwMa1uGYSAGsFpaWzCGYbAFW1Bap01amLIFXIDap006W3haWqAFW+har/3arv1asfVMrH0yVggCDRCW+CyJHeoQkviCmANNaQDNdGwG0ARN/NAEJNCAHXCCvlVKBKiAHUCDTAhV/lJSx1EiBk4ggx0IAWfNSiWQA0/w2k/4hCzC1nd6gsMbhENwhLVktLYswjfQFy1AwNO9yyLALhqFAjfA0XDgBnHIB3y4BmS8gz24uveCmKfpCoDFAWHCTYLtxhJoABJAgSidUsxsWIelu4MC1ZyNXulN2pyNI6y1hVlgMD4oXTdwmio509cEWEK6wBZwsSek074oAkLDIlooBVrIBPj1hFLIhFJw30zQBE+gX/zF3/j9BE/w3/nNX/j9hE7QBAY7YPE6YEywqPFiMAPGhEmI4JeVy0mwBEuYhEqIBA2OhEnYYA+OBDkIYTrg4Ehgz7SNgA3YgT/EoS9wgiVw4SWI/oStJVq7/VmfZYY9zVtNUNsdaCcNIAAgroAhQAM4GoZigFqordbkclwRIK7BHQI4mIRLAMYITsV2IoIngDZEcx1gEN39iwVFmJ20yMsrWN12JSQ01gJzjbrY1QZ9wAc4BocilECtgxj48orsEdi/YsLHLAEDY4EZgIIjaAIqnTtDFoM0SAOKqtxMmDZMgF/41YRMeGRKnmQG2wQIhtE94IMjdJqfQmNQts28GF4Xs42+iLswENEQDuGUmIM2aGU4eOVCk2U4iL85ENE5SIla3uVdNhYyoA9fJhYyMBb6oI+3fVsncFVxXAJmhqclaOFnBlxABERmFkf23JsIoLId/lCnhzotb2YnOMiE9j1Hcj5HVUgui0qfSggCCggBIvABCgDiB9CAIaiPX3xZC7aES7DgSRADHtAAPRtcIPiCQkMD+Ks7JyCCxyUC2JTNRZCFLvZiYIiFceUDK5CCIsjoGjACI2gBpEJjMqaDV9iFa9gGcYDjfLBXYOi05LFjwyRSR9rjv5o8E8gAFvCBgjRknXbYRE6DV9ZlNGiJMzgDEXmPMxADNKg7+kiDkO2C7kUePdjes3CLNlokLZGvABveEnCxBqpTIiCCQATEGwpEImAnJXCn0wrE4ivr4jstLfPDb47rznkoclk4IFi4CrHQEPCAEAiBD+hrwPYnEfgA/g8YbMP2Jw/AABHgAA4QgQ7oAA9gz1b4xA9oVn/yp77+ABBAOB/YGjng4CreYEnQ4Diog0soBTmwvhCAKAmQZ3SSQrsLg0ikj0hsiSX4AAtIysGlySQARC176yHwALiDgoYmhDE60VmkRUPJFy/AaNsJJn6xgUciJHftgpG+hm/4hpNGaXzYhl6YHWh0aYlBtRqQNf9SgQ+EO7lLZLrr6TPoafju6SWI63d+qLLegfr2CBAAgRCYASM4XSxIr1Dr3jVStRyQ7kXC6rsIrAFjINpAWRS4AAyYcA3gAA3QAAyoAA0QgQqY8ArggA7HcAzQgAvocApv4gu/8AqwAA3X/rPctgALOD8NsIAJmIAKmAAKkIAah/E9e3EfH4EJAIkJ8HGQKHIJUAAFWAAkL/IJcEl/SAUQoAAP6AEVr4AWtwAK/wAiaIJntsmSyCF4AkScC8sdmIAKrwACGIABeAAaUujH1Wu8JkQkEIEJGIEBQAAL4AC/9gA+5wAM4ADCzvAMMAIqWNM7YITjFqn944URu0XsKoLopoGkAmkvSARdQIZt+AY43vSUFgdqSIQ6tuMsyALocaTYOKoAYwFAboI2SOo2YIOeboM2aG/4HoOeVoIPAOgVN/I963Arr3Edp4AMKAEjMNcu4INQO8IuwMsiOHDuMarYWHAGIrASkJQ5/i3BC0ByBUjKB3iAJScAkOh2BNB2BRj3ESD3ckd3bR+Bcyf3EcAQCXiAeH+Acd92BzAAJMf3c293JUf3dkfyccd3dT9yJ9+ED0CQD9gAHed1CZhwD9jvy+YAPifsDmBsDeBrJIADMbhQCqAAYE1zyPmACICAB4AAI5+ADfCBduKA1r5zHceAIJd3ep+ACR/y4W5oRWCEh64JahApYZCFWCAgR48CI/A6+YoCjJaRM7CDXqgG7N70TecHfujuV7ADl+5doLLqRaoLGriaJ0iDOqiDOQh7NrgDNmiDOmiD+K71NGgC4nIAddd2HQ/yI992xTaC1cWChgHMs1iLR1Iq/qR6pAM3uwfPzSe09hOwtQuwgHpXSnQnAG0fdwh4nMdBIrkHiYEHCXyv+yM3ACPf9rgPfXQfd8EtfYCP/HHvFXGSMqY8eGDPbSPPcw6YAJkneQkgeXl/HAnw22D7gG7/eDVPAAqYcI9HIqX8fSuiIie+823/fXpXyoaHeQXAgAywASg4vPobIxShhjK6CVgIYxZ119VA40g7XV20A12wBux+Y6hPaTi+V0Uo3bLgCuhB+iLtEusfe0rY/7Dv/zq4A4CoI/AOmzQGxRg0+ITDAwkKHkKEOEICxQcRM7AoAuUKFz1u9OTBMgVHDhw3UqSoUQOHDRs0UpxAgeIEzRMl/m7cmEniQoOIChz6DPrwAQIJDxpOkJD0oYGJQYECVTAiosOoPg0ERaBVK4GtWx8QeOi1Xz9/5h71gABCxAQLFSRQMNqQogYMRxEczUuA6FYKO8Y4+XB0AGHCeClMgMD37tEJH3aEsEC0q1e8WyVYSGphQYYZG7koCi2LFy9hpoXxkhULFiE6b9xc0SIlipQrU6ZcwYJFixc7u6xd+6YPH3Fx+IYf1yfuWi87b7xwyYLFShUrU6hQiaKxDSlTpkiJGiWKkkDyAuuwKZjwYEIgHzBYsEo16dKHDDLYKFK7ixs306mQZEMKLbhAQw0u0UBDCzCVEBNNMz2YwQUXLCAU/gJCPSQBXgpoRRFFTylggHwYQnQUhz5diCJllXnlAGUEUEaWWY9sEIF7Hnp4FEUTvJWXjz8qRgEPTizRwWCFDYDXj5Zp1ZAIH3hAgVZJrujVT/FJkMADGMhgxBVevKHIK7+MdpowwKS22iCCvNHFFVdIIcVtU1ihGxZd2KGLNdkIR5yf+eSjzz2DirNNOL3c4QUedVJXxRRRQOFFIqfooot3pIwyCqaijHdeQXWksYV6BrWRhhNPIDHEexNMcCFWPyn1oX0XtFBEEVRUgUUWVgBYw0soDWjggTScFJNMxh6LwoQMLLCVAmE9W1lESj6gGFEkYgtRUUQtCRFWF3LF/qK4XsE4FlnnlLHBBkD0oFRSPuIFQavUVsatjh4wgYQIDriIpFYQEABBvHyliAEIHEhJQJLj/lSfAhZkYESkbwyiSCxlmgYOarL4EssihLCJxZvYvVmnyF7c0QtwfRKXDz7GvTzoNjMbmkiiXFhhhQ46QDFHL8ggg4rQpmSaSimakkKJKAKxQVBCbNSxRRptbLHFE09sEUYTPhw8wbWwAvXqBSvMYEQUb2LRq4It0ORCCy0k6OuAMKHQoIMRXrDZuFt1hSKLr2YbEeCMMWlAilkhUCXf5O4tYzlgRGBjB0plJldeEBgVLuNcHcWBEkNoABaSVJZrWV4XToCB6lIa/vaVhhDFGtEFNxgxhRd/KLIIxsJoLEwwvqjGyCCvdSHym1eYLDIdvewSHMwvi2Nc9DJvo4023HBzihc66yypLtUgo4vQp5BPvilHjwdJIkxDnd4dBiVSNRRQOBHG1FRvcUQIGFAr330r2MBsV6hCFEiiIJTQRAVw89UBEViTY51AQswal+KctbfAZesuVjmctlLEIrE4i0MeTJE/yFIOIUQOBBrYEauARDAEjK5KivHcECogOgIUQABJIthRFEMtHmEgMYlbWIdghyMF6MgCMrBBFKxAsVjEwhfBMNOZOgYLWAxCD3woHtquIB1dfSkRvQjHNsSBnOihURyD+sY3/qo3s3Ao4g5Q2IIXFPEzoJ1ifOU7hSlSIR5Okad9TLvDefJ3hKs9wSBnaEMbQHUEGSDsAQ6oigImmQEAQoEKyMuOStwGkxOgZIFroxsEazKhC3RwbyEMkVZASCLACQ6DsgRhKzF0oQQ8pIT2eFwENsCDFSplBF77EVFGF0MYTdJzRAAYjAYgAB0yiXPcwotSKjAvhX0QVgqYgFgaYgEPeMZ2dlAEI2QxRSrKQjWwKIQg2FQ8O+lKN7l5wxiD46fivOw4arzHPrfBjXDET1JjRIUugBa+oAkNFUf7Y6fOI5BEpIFp+SPCEZwwBlIR8jxteAIRPLABDzVsbDNgYm6u/lPABtJkQAVCKbLsVoIJNcACtNxc4mopQg5iC5YPqVDgcDotBOhULA5YHLhqWcJ+sCIIvfyABlj1LmJCwJiF0eEAyvUADgxhBwIjgA6pqrkmLUZHFOEKEV1HSQ4J7GEYwE8UwFQxKAKDisJQpyLWxAf/6OadecVCHXlxDW3oA1D5eF5xCFWocADUkFu4gxhPsYvfWCN8lVIoQztlnjpQgjyJSEQbjnAEIsxxC6XK6HnsIJA06E8EH5JABQBohCLQiTq9etuCaLICuL1tBQikW0xKIKG8QSQBe6uSCE+HU5/OEltF9YrhbnpToFZJuBc6alI30AEebCApEsDcdi8n/jqpFsZZGoCMJAkjgAIQpitVIiZSNATD1lFzLg9oy08ONwFw2uAJYBKNLOJqJl507BWDWJMbuADPO3WBP88ZBC7+Gr3BioMfxflGof7Zi/jdIAMZyPANjnCHU/QijwYtKCoqOx6lZTY8KraDIbFGqjYQxKHloYQdNjoED1AEYmWLwhRyRUAc1GBBu12BsFyQAhZ8EkIykVB8nsu3F5W1lXw50UyZYqFsLVcrhlOlVqSrZQOo13CUSQBZ+rEKIFj3l/TBEbzA6y+iSEADIRBMM/31VXiJlS/wVdIRS3QtCax1Bra7w1tHQw3TkIY0q2HnXf3TBS48mguQ7o8bKPYK/mQIg8LfAMemw2ENa1w4fo9sAKlPgJMIemALk8qj+CpFNE6Fx8SZKsXR2ODZU0ltajIuz4kze4k6iIEIIajABUZ6qyn8B8hBduBtE9SCFei2JjV56YQc8tWakrWqUQ7hCCrYSgt+dcs1dXLiFKdemhog3VsRN1DL3IoeUMADIHjLmivSQ4KFd71bwcAHOOAiqnq13FMyLlK89t6y+khWIozKBDASKS7cgb+jSbSiYwGKNb2hTZGedH9ek3GKhaYXithsIrxgSBlgYAGkboCpb0ACUicgARM4AinIVwpTDK1opSAFrVNxipuXzxR1eEITjlA1g6Rn15ilxCgs4fRL/mSKEmxIQgiAQIQinE03vVo2TFJwW18tSLe8tcmyaOnMcqGdqoZJ0ra5LK6w0HRFL+pKerkCo7srDEkCUNjdnVUWe6QC3h7wQL0tpyOCUWbPW4EABTAgpfcKAACtKx2LGjPW8NoUiXPRlkUypAEQeMatioDFxShe8UUUwq5uSDClKe1xN3gh9luAQoYz0ACvKQCXBiC1hm2fgAbEPPgQkEEdSGF875hij3lExfITigpSpKEJTcCa1KBWh/UlYjy9FgXUM6WpURBtDmF4ghH2g7MCgv2Tt23J25BsLLstyyF0b93ajemAqgpgqDDE9rXtPqWyqhfeCWDeGRMB6p2b/qUXYfiDPwBeB0TA4OEIBIzAvVWE2zUJ4wXR/zmTDgVg/yGAdgnMe1kJ7GCJWHDIXGBACBjdHUScxfiCL5geL0DRIgwYmxRYFrBepXWcG7SBF0gBFMhAAyxAugWXAVRIA/DEAqjc760cBAjM8KVBzd2CdzRf8yEUKuwCKsTP9E1f1UBN9mUfp4zCJaTYKNDa+RgNrb0CJthB7HFBgYkEkK2NCngdgdSA20Tbg9TNBTBL3xmT2v0hV20F6VQV2lHelCxOAhZiYRigMyEgIE5VJCLJAvrDKDgglMSK4R3eC7md6liABubQwhziiswXq7jXnn0NjlSEtVhABxxBHYxR/i+8QmiQ3sRRnBXVVTu9Rha8SRZ43Gus3pvYwAqwgBAqIS4lwBAuwAEwwAXYHgasXAOoThCpjgccQRqsmh41XxY+FvOlAdE5gfTZTx2IYTkan/fxXKbUHPko1C3Moh3cwR6s3qPkgEoAy221gEusgEyUwEyUgG/x4bM0IgLqXeIdHJVoG3xhE9sRZEI25ENK1QLaAyQ4YA8Ekbs0RF4oBSd6YIekzikOAAAEAAf23Vd8BXcVEzaBlYmoYkVIAAg8ASlsw3B8AzWIXGiQCcekU2qoxi8IGMa9AS/mhoLpIBdRgQ3MQAYcgDEGXwIsJQM0AArIAMpB4zRigAfIAAiA/gAQAEETcIf4jI/zJRQyjMIYeJb0NUEazAGsxZr3ueXOjUJm0drN6UItvMIsEoIfQNoVUEEO5AANeFIo5RY/loAJ/KMEPQtEPhOS1NnBwdDdCYAINtNADiREOiIkEqTaLeBZVOTkFB4FYI7XHCKXqc68mBcASB6M7J1J9k8FiqA0ZciO7AgHxCRgSRg+aEM4yGBoLELHvCCApRMUxYIitNNddYEV2IYX6WB/iAwVGMEMFCMDHEAy4tLKOSNGzMBnTaUMeFbVeNZ3XmMd5NFjgaVY1gF4NoETNJLSuGUqHN/53NzNjces4ZwtyOIsCsLqWUcRyOGAvI1/rsCD/OM//pZdZf4fwGHmBtrZue1fuQlgej3oQJLkZFrmASqgP5SDGvQSD0xOrGiXUWzkXvBfTSkOZmCAhuhdVz3mV/wIRt6ZRlZFaH7AEYjCNgDKPX2DbnpMaECRTpJGcC5CLrqTyMjJFSQYMMbeFBQBDayAUh7AMa4cCswAEUwlRXkW1oBKQlTNFhTdEUxf8e2CQWUh0JCCId2aqGDWW5aC8nmHe44H1N2c0LwCKcyiH+iBgT0KkLkEbTkQTfwjCRBoQOYdDEWmSj5kZbSd/wkguQzggzaJg7rIEFkmVZWFOZjBBlTAvCkGjnjNjnCkKsnLiR6k5C0MEe3Fj5hiCLKoWIHN/gYQQR1kAz7wg8v4yT18wzWEgyzAAjktwsUEw++kU3AyAsgIAh9ER2xghxU82uoJZRE8JwpIp1NKYwNkABGgpfRtaUQxTRqwwZZazRFwZVeyASkgw6f9xi4kAhJYaROMAdQoTfIxH84pn81lCqcYjZy+QieExiDclRfkaT2OUp/+KaBSW4WMZrmkKHi95oZUklQ4wFFMRVBwiwOMAL/AmSQ9RKRSxlChHVmtCHjtHVUtYDmYQS/tz1zEhb1lpLdN0+K1RQZO1UiKIntppCnWy1wQgIdUwA6wgTXgA622jKDYajZcAy/c5CvAQrAGKxTt6poUqxtIhxRghybB08gU/kFSVojKkZozHlKuHV3TpIf1gUp6GITVdGkQJFIieJo1nIKtfadokaPPEVSl7IIu1G2l4G0fiQfPlYLQ0OksKoIftIlIRAH64dYnNcifBipwgc1MHaSF2tm/yItSaEAFaIAGbAAFXG7lagZFxEV8OFXlxIcFZIYpOpW8WIvncpMGMubeXSgvdUAIUIBY5UgpvlDNOuEmpo5dHGgO1VS1OJVTIUbwqipRaAkEfJMMiKsuvMNxvIOgIMc32Ko2bEM2HMp99qpwMu0VsQYh8CteSW3hUu1xvokUDKPtWQCpQYCGcaeLcatAANIopMJ3jIKMdat3gmfKJBZ4Sk3xyS3Q/uDt3eKtLpxCGhoNzumCLO7r8EBtnuIADgAmHdqETQwooJ7SNHoAfHDTZKimQyZoVSVOnD3JB/BACIQAZIDADuwACJjwB7iwB7hwDO+ACMwZlMBwDX+ACHhACMDwB4CAB3TAB5hwCLBAv3EIQS6gKwiBdclABAhMtcimpz6qE1oABzwJ5l6u49UF/wwi5iEABFwlB3CADXOAB4hxEM2LYkBABMhAE7DBKBQUN2zDN7wD9VbPoAyKoGjDPVCvbt4kLZKe9sbCsKqedMBJ4UaBJh0PXz4nC/CENF6lDMxAE0hNIxUf+CHf3OpCHazBZREE/r7tHZipl4pWIvAcpRiU/mQN8GShAnzGqS7MAuAOwh/0By8W7gPbgJD56YAWJgpkgA9rJQvPWVw8lyISZM5WwGMgwRJ8QRIkQRN8ATN/ATQ3ARJY8zUvQTYvgTUrwTUnATdfczhb8xeEwRiEQTkjwQzwT4KWSwlVlwbIwFN5yJpZC59xQAgMQT7vwBAAQVZBRpSc4HctzARs5RAEwUErQUIHAZV6QAU44QZ4ABCkwSiQ0Tvww23a6jfYsTa8g/Sy0UezEa7KwiwywugFMuld0ceADB8Mrm0gMm3gxqM4KwuwAAeQ7lpVaa7BL/gtH96GDyV0MvuEyiiDJ3gmUhtk3yur8gBLlvmUwvwODeDW/tUf3GkXVEF2AOxJIC4va5i1Et1Zqivh5Z7AMSR45R2MaMAQhAEZxEEciAEZwAEckMFczzUa0DUZiIFd1/Vb3zUZnIEYjIEYiMFf93UcRMJhR4IcpAES8M/orOZWuHMQ1MgHaNdTQXFi8JDBsKsZnLMYnHMYbDMIYMBPUMDsmtdRYIASBHYZsEEZlMEWjMEYbIESHIwrssEpgIOs7sNF44NGb0NGUy83ZIM2gPRHRw84IJbIMQIjcO9qOPfH2NVrEGnhYh3WYYetPOcMHIwGYOVUGl0bzEGa8nQr9y3znQIkrIFDka13EvV3Xs37JsL8UkpBHRQAN/XQnA+8xnJo/giCRxiYo0SBX/7KLg+ohGSAVxbfd6CHWWKAqiLq6Owf33WFCCQBGUxCJVTCYcuBHEyCHGj4hssBHSD2hiN2YsuBJGx4W8fBiRv2YdPBJFwCJmSCJ3jCLGACHTgBCDCT6/KLV5TQKvRABPQAvLnLMNFuWHnOGMSBJKg4k8cBGTwBEGhwBgMMNEGAB3zBGkTCinu4QExCHZQBGEQhN+j2PuwDoLyDPxEtR7/DO9zDzHADcYP0PSjHrR7KjooJ96a0IhCC97K0pB2ydmAdIlOBsxqBESgBEOwAVyovEliyKKwjHxFNfgsNebhpHUACeqTHlhpd/nBpF25BmiZfpdS3/kFJg2QxX6qPei+I3IDdwQ1aB4D8ZW35Iy874wyEOiXowjVcAzLU7SiwQRBwsVdALmN2hQcsARxoQiZowiVowtNhgtNJ+7Q7HYZPwrVf+CQg9oVn+LVjuIx7Ai3QwjDYAi10Ah2MQQhMAN+R6CCW0LtZ1wcghsrqSAstHgg0ARxEgtNlVmZZAiWUARHwzwSEAAck5g6BwBjUwdNBndEUlJ58Qz5cdPSyEc3w+nA3Lz7UsT9Vj/VIrxl1Wq6uhklfUWjweQ3ScjDORhGoxErQhq3Mz9V06Vd7JclBOvLx0c0l3ymszynUnPHBGvvcr6gMta5lynz7NDJUw9IjwzA0/nUeLR+rD2dd3YEeHCcBCXht9RYvN2MGHEEjQXo48Po1fNrSHEEHPDgjrp3AKQAHJEEcaMIs0IKMZ4IlaEK0W8IlUDu0W0IlRDuGV4LeV7u0V4IlgLvci7u4zwIdhMEOtIq3aQUDbkIPaEAPgICH5kWnjoBDWwYEdMAWRIImpAKzX0ImbEImUAIcCDygTeW6G8YDyEAaWEJBSQNwzAxxOy8ddzQbWY8dYwOvW0OcE8caebymDcdg3So1yOBqwEJJh0ZJe+8g+AFLc9FsdJIN1AB2a8TRrcdQswHJZcrOp7rQVEr9suMepYIoYJ/QP831aQqr6cmnWcPS0z8ANx8q/gQNqwuPDYrEFACsAwEEihIDBzK4cCGDkjZ1Rp0KZw0iMlSJ6ohKwwFBRgQDOHLUqHGARg5I4lyiRStTJk0pM2HCdMlSzJiYMsG0hElmzEs2c+5c6WnWyVmePGGiE4aIhI9LM/ozB6mDBh4hJkioOuHBA6UQJlBQmpGCDDB1SpVVyfLSHCQYJGCQAcICAQEDCEiQwUbXNm3brl3D9i0bN33fvu3Vdi3bXr2FofWtdk3bPXzv8N27R5iwOH348In7tm1bOFmxYMGKpQj1K0aDWPvR86YLlitRotiwTcNGDSO7obRpM6cOpTrD06Spk0jUKOWkTuly/lwXqlGiUFVH/nXq+qlTpEiJSvR9OJvjx0UxR+V8F0Rr16q1b48MWXTs1XXRKv2K0B03XaxQwVGDhhROQAGFAQkyYaAMEELCuFF0eUi9XcTT7g4QHgCJrpCW0lABDZSAw5JSTiolkxFZGmoWljzJhESWWHQxJZrOysSTW2YZqpagOqlEDB8qyIgAIJfqx5xHOtjgAw8mqEqCJp1ssgKsMpoAhDDIKgvLli5ZA4kKJPBABqoI8GgCJEzRRp987mGPm3cC2yyfyd7Zhps69doLm2vWu+abd+LER5/LCLtHHM448wwcYYBxZBFZHJWFEUZgUYQQ1vjgIzYposCBBhpqqMG2IoqAYos2/u6oiDlRRKmDDeS4S2U77VDZZRdUJEKFu1lrvXU+7UhJRTlVySvPFO10sebYaiBq7xpkIoqOPudwiQU/Qe54IwsrNq3BhRRSEOiEEwgiAQUSSLgghCbSSIS5h9zbhVVTkDGlDQsRSICppYKEoIIPK6ElqJMEHlGoG4GipawRRQTKE00QLmXFlDqhkRZPKu7kxknOGMICBZZSAOSMiFSjAwxA6IDJJZl0MsoLEYAAiDEoKSsVmlmSQwkNvpRBhgg2GuABGURJkx9+8OHmsb24OQefouN85547L9PmMIj4pIwzyzCzLJ+u8xEHnESBEe1RR0ljpJBBBNFjvytmwyGH/k9zA3XUUoczD5VUKGJXO+xirdU6WpPTZVdb4QO8OlNMIWVx5YAtVjtnrWlvT8esgS++6uIbJpfTBvnjDS6woCIKAFsQUKASxC2BhAzMJaGEG46oyBRUJkf6GnjbOMUaXLfAwGWmgkRgeAQoIAINS4K6ceDmT7rF+egHtgVFohg2uOJKNq7AACFBDhkBp9TYoIMeULYqZQks6EpnlymIeeaas9QklUiU2EACEMK0IKMHgCBFG06LkzYes43PRAYfXTMUoAJ1jr2w5xoGxFqgLlPBBPJjH3HyjDCEwYuyycIXZ6uUH/iwH9lIAQf/8VRubAAFJpTqDuXBDq1I8Z1f/slqF/PRXK2s4R1dSKQatlLPMOITn+jIB3KBU4+yuFE5ykkDPs5BBi5wkYtJqQ02/fmPt761OtgN5HUKWsET2kCKH06uL7ljQxpEAZ9TiOJ3wctX8TAwhDJMokS0qIX0+CiwPQoFYABLUcMg1olOlGIWnbCe9pQggo95TCNEKkMHOAACtjhpSU+ygAgokJUHwGwMIcJSli5RByTozANEUBICHgACURTKafaojJ64oY1v3CNQ+cDaAqdWp74kRjKcCZRngvmnzogDNBz04KMcAYtFMIIQhBDEG9yAhROmEDcAskHdfHM3ws3qOtxhDt6qQ6ta7SIcqaAEfCZ3OfW8/tMau3CO7axzHsIt0RVp1GdEjKgLXNiCNIuQJmyuQIVPteAEAgoXGEvQAAWdKwMz2MIdSLGeyT2mGrq4w7qOpYtRrBEIGMjXR4L0PjJQIhM2ChggBSkwEQUMkdhDiScUuaIV0cR6KbFeJ+zQBiRwAJIj9Uc5wNCBDljyKitzEgY4IKUHmDREiiuF/C6RiTkogS08+wAEEICBOnyDMxg0WmW2UUCwAuodfjImZ95BtSYiJq2cyQc/viYOcXjtUIhKlDKBEQxf+MIRsVgNFgkqBRQCyFOgItUW0uCbRKSinLXylTj7hp3JsdMaNfwhMqThHsotC57OQsYuoqiecISj/k7h0KeeniWtXrwCFquZZmymwKnThctAYGwARDMQ0TFQdIkY1UUbtlAHeeFqOHVoAxFEOtJ97UAMlcjjLFo0MBEprEU0st52dRoxF8mIRjrt6RE88BXhIaAf0hBCBCIgAwpUZQRW8QoEmmQBDnSSlRSwoyhHSaIt3W9nSsIAG7Txp7nSlR/2IKBfvrGZBHZtgoCi2gP7so136OPCXvPaPBTomW/slYMh7utoBjtNLriNNjiwQWJbSKo03OFU5SGcZHshThvHqjmS62EdTiFa9yBtiaa1qHok95DUckO1fanTEkdLuFe8ohAj1MOJqbDiFiBUXKsjyEFKgBAiFFde/nt6zDV0AYfikuI8pEguKUaRBhmMNCOgjAROU0SihJVlFitByYxagombgvclloBRTarKEp7C4Qke+EgCiieycqzXZBHAn1XiK4GsSIACTb3QBCpABDJUIktlWUkm6jCE94KACJxsAjeaZiin0ZUv1+CGZVwdJwczcC/ZgKCFXV20DHqtUODYBjioAeIQC8Nsq3GNG7KAhSlsKm6gyg0UvHCq5JbnOrTaTo23U0PzpMd28UTGR+Xl2c+mkRuyVjJr1XPkOtWpGr5k7XviU0VYVGoQbOvCFWoLoBWEK3Ul6C3sLiDwEyjhCXfgHXt03ZddpKFUo0CFKaYzHFE4JxEy/jDvUiAQgjFE4ic1ZVF2WQJetLykJSW/hMlTLmgXecIOc2DCB+TIlPQGIQIY+IBSvdIk+lLAA/h9AAeOgIZLTNUs2V0DEN4bAhl44AjWeLCBEzzAd0fGwfZQoDAD1dZ0J61PC/Tar702bGMDAxjC8OsiBDuIEsamoNuKG25s4AUvJPc4lO3bOG1Mq+pAhLQ/FAUbemxuNKrWGu9Oty/T3RfUKl7x6maPsqL4T0W0Zj9Z4HcRVjyDf4erdaE/CEJYcITilgIZq80dxOsA2e5Qgg1roEQqfpgIIkwgXxAAwccx0aIbXXdEKRq0JjZxCU1cYhMl/wlNZESiUadE0DF3/kIINk48IflDGkHYAFNV1qRMNump973QAzCQBDIcXROasPPxLQEHIEzALTI4Qi/ugVevEU1NdtrGZRY4VkMNhsIgA03kSq7sygC/AZnC5tiAQRb8ylEWQRFAR3Rmgwo4T9pwowi2wAu+Y2+QYxQYp7LYhTsSwZx4h1YkZ/BoTxouilnG7N3o5AUVDyIgz5dgMI2qAXNqIRcUwQ8EgQ+4gLaigPNa4AY+r1wGwqFax6EywPTqoBcqR9bC4RRYr1hIQTjWyLhybBTCACOExHhAwAnmzM4E5kZqAWK8C0ZGISdcAieYzxJWziVq4g1XItDsIA6c4APAJ1/6wRV6INPO/scqLE0rlkr8XoYDmiAOes9mzoIS0IAHICAstuAU6i8f9qFoxKpr6KoyJuyWHOzWhOkyYq3CIkMy/mQfhO0aTsvsFFDEgqFsLg909q22RMU2PqUGbsAIpuA7yqOGdvEDcaw7RpA5tg07UJANSKG0lgXdXhA0uKEZnXHx7OTdIqjC0u2irAEXbqHEpow/NkXFboAFCkRcvij0SMAgUECigEuf6kRCxmKchKMO1gX15sUURAEMNICrNCJ/vqAkVkLUXoRE0HAnSAQneOINKcEg33AnbIIlSsElLKENpg/3vLB4+iEV/JADmioQJYC+LM0qMCDoWAkCOgARN8EsVML5/i5BDN6PAo5gEusvgyxxH2Yyg5zmHs5BUHAprOjKmAbjG9bxloqproQhHHrhtMKGFVtxNDznNbrg2XBAVEDFFm0gHbmj23axhrqNO3gRK62yd5CFVXJMF3DwdpRM/+4ENNCSBs+SL6zxPXDhFS7PB/NAdKqACnIgN1ZgBQpEIC7gixiqdWYACihqF9YNtXZhC5rgGOsRHo+jdpZjFOpgCz7gIx7AA/jREp4vJezM+HYiE3TCJkLzJi7BDt4wJ2ZiIVFkFm6iEiKSKkiKeIbHHi5yAzLyvZ4kfTJyIkcyCRJR1HpvFFKCR4AgAoBAFGbNMmryEmnyEi3DOYOpaCoD/lCyhjBAo8KCUq66BhxS8bR6wRF8Ie2OjYMYcFIujy6drQJzY4VsgyqhQARPIYdWhW9qTFWCkReT49tmBRmOw56e46JkTf+ccS8OSDHW0hkjqBn1RFnCAS5ZY22A0Aqm4C47RS8JZEB6i3UEznUQQna2gATRCECnsLhGIRVUJTlMVBQgqx6How2AIB8hwAOQAA6kS0Z2AidOE0ctwQ5CkxJMMyYqwRIqgRJKMyauK0c+s6ea4DVHagDMYROOhAOU5CrQx/smwAMwAPc+6QOSQBLUz79GoaouoRLYQAYGDDm3oRKXkyaVU02ec4H+Tx/0wcMeqE6wkwD1gTtlAbZk/iE8xZMBY+GZBgEPsuUp2fMGiuBTZmAGjoAw5ak78m6ytpIXu0MUcAhwKOI84iO4HsMZYfBOJkwx0hLyENQGHa8o5ZKa6pIKDMoGWsAIc2tcCK63mHAL7KCiovAaSCEx2YBER6EUKG4UKIES2kgXKCINxKMO3o+VPEBdJkEhdcI0YaIgofUm1jAnKgFIJ8FZifQSTIEMcYIOInIHJlJfOOIpOgDommpKq2IQrRRLPQkEkqAOurVFji8lKAEMeGYX8m/WZrJrYnJNeTJN3pRgAeWWtCEbtiFhEWjqEugbqiEceOHJgoGDzs4VnelzTOjZisAI5gZRqVJ27gCdwiGH/tQMUsUJRSm1IfrGVlBhOHpMU0FrPaTRTibsHt6hMJAJBt/tM6qz8RyuF+TSDdwACKfg2fDSBl41QwlCQVjnXBACCCbKIazxFLaguCjBjHThjRhicbCDItaMFJpApDhACciADnpCIW0CIWHiEhDyWoMUJ3oUWytBW4lUefaoForhE3CiEuIgDHagY6yPAIJELprUSCrgSq3CAsDPkybAAjzAAyDg0njACSBh5MBrJSxhDDqADbaBH+7BGe+BJkXXX9d0rYQJTtOkTUNx8fYPTg6MH/SBL6zhFmChT0EM7UhsEPygbUjHCDyFFnXgBm7RCD5UT04hMo+Db9gFOepT/lVWtp7ghceQ4bTaybMOFEA/1ZYuQ2ebMS0NCDS0ofHiKWhNbD/2jXSG8N/4cnUyYCAKbssOIqLWpRf6IrOsNg24Izpk6DpU5RQSgQ2QtaIe7unKNhKe1TR3FFqJ9EZPE1u1FYK1lW5jokT2qBgQBiYmAQ7GwEcygi7mYnDNlWRAEn++75M86XHZIisggAfGgCxqJhVgJBXAwDj14XPrpP4wSE0qkTkFVpjWCk50OB8ChS/izYByeB5mkq5k9xp6gU/FczzNBlW9YPM61gik7QZuAApw4AgSwWqQZUXzbhd30UQ/8NsAZ1XgE51YsD3OEhoXY1CcU1TppGf1QhTh/oMULu8NYIO2VhVRXXVAxFFcMiDg4tcgQiDhbvV+wSyHimWe3oh5kysRptYaRmELGGQOFNJtbQJbozVIfxRIY2ISIiGCITgSgFT99KgW9sgTxFSDw0AJfoR4BGBMQngAyoFkIgAEIkBlprQjgQ54smICZCAN5EB+SkEzLQEMgmBfYa1O8EGJzQEmLfES7eF15ypO8sEeMEiJLVFNELZOImOu1tQS5SE0RCM8027EHIURLu8O8kA2qGA3bGCeASQHhLeLU6+J5sU7hoMD/7k+R7AYL/UYZ+WdUjHxAvROtuY578GtOtWACsM69QQZnmwQQic27LICQQWQBySQBeII/jOUBBzKIFigNxLhWHbhEqy2DoaRnsJJOB71Dr6DdxLPGnrhDuAgDnKUNClBgoF0bitBDiS4lIu6EjDBYQZmKHBiEuRgDIagA6yvI6aaqI4kBHg5fTbSSstrhYFADCiBREnuXr9ACa5BYHGYm9uUh2USm2H3Et9aJr3Z6xbjwGTyH2YSbJaJFxhQFpbJUVADxtzAC0bninODY3Mji0elDvakd5B3VfBOeV1FoMlpF0ghf/3TasxyLamGUBo6FO04LSXaMZDhtdammtCTYwEEdTyafXPrdczRIC5gBpzAuEZLMtclP7GjRPHuDlqlUiNEF0zBEiYhlGWCbd/2kx9Y8lsxoagh+CZSWWBu6kcjQQyw6gGmGrsfrQeQBAMggCu8byOBWRCPJw0iYZQ0AUxTIhKQoAm2IYMk4xuWJh/u+nNvaa2puWj6gZvfWk2VGB8mDCd9bR/+gcAJnB/EARh6wYk/KBZOA7BDBwugQFRmwLARNYtvgJ7bIPUoWjoe+9q8Az9vbD5qJRHyd4ZSb2YNFKI92zLQkmoIlE7Yoyh74aKLNn2NYAZOZy8DmcdRAH7H5QIYwCBkJ3+v47ZbuhfOo29MoZTCg1WQI9zkaeKC1FmjNdASMkdlgrjptoELTWBoxA1XLhLO4AhEqiPmgiPmIiAAADs=;" vertex="1" parent="1">
          <mxGeometry x="30" y="320" width="103.08" height="60" as="geometry" />
        </mxCell>
        <mxCell id="sbMq7EM7i_iv8GLkC_kZ-2" value="" style="rounded=0;whiteSpace=wrap;html=1;" vertex="1" parent="1">
          <mxGeometry x="190" y="290" width="440" height="140" as="geometry" />
        </mxCell>
      </root>
    </mxGraphModel>
  </diagram>
</mxfile>
